<svg width="111" height="124" viewBox="0 0 111 124" fill="none" xmlns="http://www.w3.org/2000/svg">
<path d="M208 146.387V24.1023L201.426 20.3226L189.693 27.0938V60.9678L181.869 56.4537V47.4209L176.002 44.0308V30.4839L164.269 23.7082L154.493 29.3554V60.9678L146.669 56.4537V38.3881L140.803 34.9981V16.9325L127.113 9.02829L115.379 15.804V51.9351L105.603 57.5822V34.9981L95.8226 29.3554L87.999 33.8695V45.1594L80.1798 49.678V22.5797L72.3562 18.0611L64.5326 22.5797V4.51414L56.7089 0L39.1092 10.1613V25.9653L33.2426 29.3554V38.3881L27.376 41.7738V30.4839L15.6428 23.7082L0 32.741V146.387H208Z" fill="#37B7FE" fill-opacity="0.22"/>
<path opacity="0.85" d="M208 146.387V24.1023L201.426 20.3226L189.693 27.0938V60.9678L181.869 56.4537V47.4209L176.002 44.0308V30.4839L164.269 23.7082L154.493 29.3554V60.9678L146.669 56.4537V38.3881L140.803 34.9981V16.9325L127.113 9.02829L115.379 15.804V51.9351L105.603 57.5822V34.9981L95.8226 29.3554L87.999 33.8695V45.1594L80.1798 49.678V22.5797L72.3562 18.0611L64.5326 22.5797V4.51414L56.7089 0L39.1092 10.1613V25.9653L33.2426 29.3554V38.3881L27.376 41.7738V30.4839L15.6428 23.7082L0 32.741V146.387H208Z" fill="white" fill-opacity="0.16"/>
<path opacity="0.6" d="M73.7132 51.9269L75.3746 52.8898V51.4388L73.7132 50.4804V51.9269ZM73.7132 73.3019L75.3746 74.2603V72.8138L73.7132 71.851V73.3019ZM73.7132 76.1591L75.3746 77.1175V75.6665L73.7132 74.7081V76.1591ZM73.7132 78.8461L75.3746 79.8089V78.358L73.7132 77.3996V78.8461ZM73.7132 81.5331L75.3746 82.4914V81.045L73.7132 80.0821V81.5331ZM73.7132 65.3171L75.3746 66.2754V64.829L73.7132 63.8706V65.3171ZM73.7132 57.3054L75.3746 58.2637V56.8128L73.7132 55.8544V57.3054ZM73.7132 54.6184L75.3746 55.5767V54.1303L73.7132 53.1674V54.6184ZM73.7132 59.961L75.3746 60.9194V59.4729L73.7132 58.5145V59.961ZM73.7132 67.9772L75.3746 68.9356V67.4846L73.7132 66.5262V67.9772ZM73.7132 62.6346L75.3746 63.5929V62.142L73.7132 61.1836V62.6346ZM73.7132 84.1932L75.3746 85.1516V83.7006L73.7132 82.7422V84.1932ZM73.7132 70.6463L75.3746 71.6046V70.1582L73.7132 69.1998V70.6463ZM73.7132 106.132L75.3746 107.091V105.64L73.7132 104.682V106.132ZM73.7132 103.275L75.3746 104.234V102.765L73.7132 101.806V103.275ZM73.7132 92.187L75.3746 93.1454V91.6989L73.7132 90.7405V92.187ZM73.7132 86.8444L75.3746 87.8027V86.3562L73.7132 85.3979V86.8444ZM73.7132 89.5314L75.3746 90.4897V89.0387L73.7132 88.0804V89.5314ZM73.7132 97.5431L75.3746 98.5014V97.0549L73.7132 96.0966V97.5431ZM73.7132 100.23L75.3746 101.188V99.7419L73.7132 98.7791V100.23ZM73.7132 94.8874L75.3746 95.8458V94.3948L73.7132 93.4365V94.8874ZM77.157 135.237L78.8184 136.195V134.749L77.157 133.791V135.237ZM77.157 132.55L78.8184 133.508V132.057L77.157 131.099V132.55ZM77.157 137.893L78.8184 138.851V137.382L77.157 136.424V137.893ZM77.157 143.419L78.8184 144.382V142.931L77.157 141.972V143.419ZM77.157 140.732L78.8184 141.69V140.239L77.157 139.281V140.732ZM77.157 129.859L78.8184 130.817V129.37L77.157 128.412V129.859ZM77.157 124.507L78.8184 125.465V124.019L77.157 123.061V124.507ZM73.7132 49.2713L75.3746 50.2296V48.7787L73.7132 47.8203V49.2713ZM77.157 127.194L78.8184 128.152V126.701L77.157 125.743V127.194ZM73.7132 41.058L75.3746 42.0164V40.5654L73.7132 39.6071V41.058ZM73.7132 38.371L75.3746 39.3294V37.8829L73.7132 36.9245V38.371ZM73.7132 35.6841L75.3746 36.6424V35.1914L73.7132 34.2331V35.6841ZM73.7132 46.3693L75.3746 47.3277V45.8767L73.7132 44.9184V46.3693ZM73.7132 43.6823L75.3746 44.6407V43.1942L73.7132 42.2358V43.6823ZM73.7132 22.3118L75.3746 23.2702V21.8192L73.7132 20.8608V22.3118ZM73.7132 24.9988L75.3746 25.9616V24.5106L73.7132 23.5523V24.9988ZM77.157 146.048L77.7033 146.361H78.8184V145.56L77.157 144.597V146.048ZM73.7132 27.6723L75.3746 28.6307V27.1842L73.7132 26.2214V27.6723ZM73.7132 33.015L75.3746 33.9733V32.5268L73.7132 31.5685V33.015ZM73.7132 30.328L75.3746 31.2863V29.8354L73.7132 28.877V30.328ZM61.5053 33.3329L63.1667 34.2913V32.8448L61.5053 31.9178V33.3329ZM61.5053 60.2342L63.1667 61.1926V59.7461L61.5053 58.7877V60.2342ZM61.5053 108.945L63.1667 109.908V108.497L61.5053 107.539V108.945ZM61.5053 68.2952L63.1667 69.2535V67.8026L61.5053 66.8487V68.2952ZM61.5053 70.9822L63.1667 71.9405V70.4761L61.5053 69.5357V70.9822ZM61.5053 76.3248L63.1667 77.2876V75.8053L61.5053 74.847V76.3248ZM61.5053 73.6378L63.1667 74.5962V73.1497L61.5053 72.1868V73.6378ZM61.5053 57.4218L63.1667 58.3802V56.9337L61.5053 55.9753V57.4218ZM61.5053 46.7365L63.1667 47.6949V46.2484L61.5053 45.2856V46.7365ZM61.5053 49.4235L63.1667 50.3864V48.9354L61.5053 47.977V49.4235ZM61.5053 44.0809L63.1667 45.0393V43.5614L61.5053 42.6031V44.0809ZM61.5053 52.0971L63.1667 53.0555V51.609L61.5053 50.6461V52.0971ZM61.5053 54.7841L63.1667 55.7424V54.2915L61.5053 53.3331V54.7841ZM61.5053 100.817L63.1667 101.78V100.329L61.5053 99.3702V100.817ZM61.5053 95.4741L63.1667 96.4324V94.9859L61.5053 94.0276V95.4741ZM61.5053 98.1611L63.1667 99.1194V97.6685L61.5053 96.7101V98.1611ZM61.5053 103.692L63.1667 104.655V103.204L61.5053 102.245V103.692ZM61.5053 106.379L63.1667 107.337V105.891L61.5053 104.928V106.379ZM61.5053 92.8319L63.1667 93.7902V92.3393L61.5053 91.3809V92.8319ZM61.5053 81.7122L63.1667 82.6706V81.1793L61.5053 80.2209V81.7122ZM61.5053 84.3992L63.1667 85.3576V83.9111L61.5053 82.9527V84.3992ZM61.5053 87.4534L63.1667 88.4118V86.9653L61.5053 86.0069V87.4534ZM61.5053 79.0566L63.1667 80.0149V78.4923L61.5053 77.5339V79.0566ZM61.5053 90.127L63.1667 91.0853V89.6344L61.5053 88.676V90.127ZM61.5053 63.0287L63.1667 63.987V62.4599L61.5053 61.5016V63.0287ZM73.7132 141.489L75.3746 142.447V140.92L73.7132 139.962V141.489ZM73.7132 138.802L75.3746 139.76V138.314L73.7132 137.355V138.802ZM61.5053 41.3939L63.1667 42.3523V40.9013L61.5053 39.9429V41.3939ZM73.7132 146.388H75.3746V146.267L73.7132 145.304V146.388ZM73.7132 135.882L75.3746 136.84V135.394L73.7132 134.435V135.882ZM61.5053 6.45854L63.1667 7.4169V5.98832L61.5053 5.04787V6.45854ZM61.5053 9.14554L63.1667 10.1039V8.6574L61.5053 7.69904V9.14554ZM73.7132 125.197L75.3746 126.155V124.709L73.7132 123.75V125.197ZM73.7132 133.213L75.3746 134.171V132.72L73.7132 131.784V133.213ZM73.7132 130.526L75.3746 131.484V130.038L73.7132 129.097V130.526ZM73.7132 127.839L75.3746 128.797V127.346L73.7132 126.41V127.839ZM73.7132 144.05L75.3746 145.009V143.562L73.7132 142.604V144.05ZM61.5053 27.8515L63.1667 28.8098V27.3589L61.5053 26.4005V27.8515ZM61.5053 30.5206L63.1667 31.4789V30.0324L61.5053 29.0741V30.5206ZM61.5053 36.0513L63.1667 37.0096V35.5587L61.5053 34.6048V36.0513ZM61.5053 38.7383L63.1667 39.6966V38.2322L61.5053 37.2918V38.7383ZM61.5053 19.8532L63.1667 20.8116V19.3651L61.5053 18.4022V19.8532ZM61.5053 14.5106L63.1667 15.4689V14.0045L61.5053 13.0462V14.5106ZM61.5053 17.1976L63.1667 18.1559V16.6915L61.5053 15.7331V17.1976ZM61.5053 25.2137L63.1667 26.1721V24.7256L61.5053 23.7628V25.2137ZM61.5053 22.5268L63.1667 23.4896V22.0386L61.5053 21.0803V22.5268ZM61.5053 11.8415L63.1667 12.7998V11.3175L61.5053 10.3592V11.8415ZM61.5053 65.644L63.1667 66.6024V65.1559L61.5053 64.1617V65.644ZM77.157 69.9477L78.8184 70.906V69.4595L77.157 68.5012V69.9477ZM77.157 61.936L78.8184 62.8943V61.4433L77.157 60.485V61.936ZM77.157 64.623L78.8184 65.5813V64.1169L77.157 63.1585V64.623ZM77.157 67.3099L78.8184 68.2683V66.8173L77.157 65.859V67.3099ZM77.157 78.1788L78.8184 79.1417V77.6907L77.157 76.701V78.1788ZM77.157 72.6526L78.8184 73.6109V72.1331L77.157 71.1702V72.6526ZM77.157 75.3396L78.8184 76.3024V74.8514L77.157 73.8931V75.3396ZM77.157 48.4383L78.8184 49.4011V47.9502L77.157 46.9918V48.4383ZM77.157 51.2955L78.8184 52.2583V50.8073L77.157 49.849V51.2955ZM77.157 56.6426L78.8184 57.6009V56.1007L77.157 55.1424V56.6426ZM77.157 53.9556L78.8184 54.914V53.4137L77.157 52.4554V53.9556ZM77.157 59.2982L78.8184 60.2566V58.7877L77.157 57.8293V59.2982ZM77.157 45.7558L78.8184 46.7141V45.2677L77.157 44.3048V45.7558ZM77.157 96.8848L78.8184 97.8476V96.3608L77.157 95.4024V96.8848ZM77.157 99.5717L78.8184 100.53V99.0836L77.157 98.1208V99.5717ZM77.157 102.259L78.8184 103.222V101.771L77.157 100.812V102.259ZM77.157 108.17L78.8184 109.128V107.601L77.157 106.643V108.17ZM77.157 105.313L78.8184 106.276V104.825L77.157 103.866V105.313ZM77.157 83.5618L78.8184 84.5201V83.0691L77.157 82.1108V83.5618ZM77.157 94.247L78.8184 95.2054V93.7544L77.157 92.7961V94.247ZM77.157 86.2308L78.8184 87.1892V85.6576L77.157 84.6993V86.2308ZM77.157 80.8882L78.8184 81.8466V80.4001L77.157 79.388V80.8882ZM77.157 88.9044L78.8184 89.8628V88.3446L77.157 87.3862V88.9044ZM77.157 91.5914L78.8184 92.5498V91.0316L77.157 90.0732V91.5914ZM77.157 24.4166L78.8184 25.3794V23.8568L77.157 22.8985V24.4166ZM77.157 43.0464L78.8184 44.0048V42.5583L77.157 41.5999V43.0464ZM77.157 32.3656L78.8184 33.324V31.873L77.157 30.9146V32.3656ZM77.157 35.0526L78.8184 36.011V34.56L77.157 33.6016V35.0526ZM77.157 29.71L78.8184 30.6683V29.2174L77.157 28.259V29.71ZM77.157 40.3952L78.8184 41.3536V39.9026L77.157 38.9443V40.3952ZM77.157 37.7083L78.8184 38.6666V37.2201L77.157 36.2618V37.7083ZM77.157 27.0185L78.8184 27.9769V26.5438L77.157 25.581V27.0185ZM17.3401 60.6328L19.0015 61.5911V60.1312L17.3401 59.1728V60.6328ZM20.7839 92.196L22.4454 93.1543V91.7078L20.7839 90.7495V92.196ZM20.7839 89.509L22.4454 90.4718V89.0208L20.7839 88.0625V89.509ZM20.7839 135.031L22.4454 135.989V134.538L20.7839 133.576V135.031ZM20.7839 102.868L22.4454 103.826V102.38L20.7839 101.421V102.868ZM20.7839 100.181L22.4454 101.139V99.7195L20.7839 98.7612V100.181ZM20.7839 97.4938L22.4454 98.4522V97.0057L20.7839 96.0473V97.4938ZM20.7839 94.8068L22.4454 95.7652V94.3142L20.7839 93.3558V94.8068ZM20.7839 75.9173L22.4454 76.8756V75.4918L20.7839 74.5335V75.9173ZM20.7839 84.1171L22.4454 85.0754V83.6289L20.7839 82.6706V84.1171ZM20.7839 73.2482L22.4454 74.2066V72.7556L20.7839 71.7972V73.2482ZM20.7839 81.2599L22.4454 82.2227V80.7718L20.7839 79.8134V81.2599ZM20.7839 78.5729L22.4454 79.5313V78.0803L20.7839 77.1219V78.5729ZM20.7839 126.939L22.4454 127.897V126.451L20.7839 125.492V126.939ZM20.7839 70.5478L22.4454 71.5061V70.0596L20.7839 69.1013V70.5478ZM20.7839 124.288L22.4454 125.246V123.795L20.7839 122.837V124.288ZM20.7839 129.63L22.4454 130.589V129.138L20.7839 128.179V129.63ZM20.7839 121.614L22.4454 122.572V121.126L20.7839 120.168V121.614ZM20.7839 132.299L22.4454 133.258V131.811L20.7839 130.853V132.299ZM20.7839 113.589L22.4454 114.547V113.101L20.7839 112.138V113.589ZM20.7839 118.963L22.4454 119.921V118.47L20.7839 117.512V118.963ZM20.7839 108.17L22.4454 109.133V107.736L20.7839 106.777V108.17ZM20.7839 110.933L22.4454 111.896V110.445L20.7839 109.487V110.933ZM20.7839 105.501L22.4454 106.459V105.008L20.7839 104.05V105.501ZM20.7839 116.289L22.4454 117.248V115.801L20.7839 114.838V116.289ZM20.7839 86.7996L22.4454 87.7579V86.3115L20.7839 85.3486V86.7996ZM24.2277 142.331L25.8892 143.289V141.838L24.2277 140.88V142.331ZM24.2277 145.188L25.8892 146.146V144.695L24.2277 143.737V145.188ZM24.2277 139.657L25.8892 140.616V139.218L24.2277 138.255V139.657ZM20.7839 33.0508L22.4454 34.0092V32.5627L20.7839 31.5998V33.0508ZM20.7839 30.3638L22.4454 31.3222V29.8757L20.7839 28.9173V30.3638ZM24.2277 137.019L25.8892 137.982V136.531L24.2277 135.573V137.019ZM20.7839 35.7199L22.4454 36.6827V35.2317L20.7839 34.2734V35.7199ZM24.2277 123.679L25.8892 124.619V123.186L24.2277 122.228V123.679ZM24.2277 126.366L25.8892 127.306V125.859L24.2277 124.901V126.366ZM24.2277 129.053L25.8892 129.993V128.542L24.2277 127.584V129.053ZM24.2277 131.74L25.8892 132.698V131.202L24.2277 130.244V131.74ZM24.2277 134.427L25.8892 135.385V133.934L24.2277 132.976V134.427ZM20.7839 54.4213L22.4454 55.3797V53.9332L20.7839 52.9659V54.4213ZM20.7839 59.9521L22.4454 60.9104V59.4639L20.7839 58.5011V59.9521ZM20.7839 38.3934L22.4454 39.3518V37.9053L20.7839 36.9469V38.3934ZM20.7839 62.6211L22.4454 63.584V62.133L20.7839 61.1747V62.6211ZM20.7839 67.9683L22.4454 68.9266V67.4756L20.7839 66.5173V67.9683ZM20.7839 65.2813L22.4454 66.2396V64.7931L20.7839 63.8348V65.2813ZM20.7839 57.2651L22.4454 58.2234V56.7769L20.7839 55.8186V57.2651ZM20.7839 51.7388L22.4454 52.6972V51.2462L20.7839 50.2879V51.7388ZM20.7839 43.7226L22.4454 44.681V43.2479L20.7839 42.2896V43.7226ZM20.7839 41.0356L22.4454 41.994V40.543L20.7839 39.5847V41.0356ZM20.7839 49.0474L22.4454 50.0057V48.5592L20.7839 47.6009V49.0474ZM20.7839 46.3604L22.4454 47.3187V45.8678L20.7839 44.9094V46.3604ZM20.7839 137.664L22.4454 138.627V137.176L20.7839 136.263V137.664ZM17.3401 106.258L19.0015 107.216V105.765L17.3401 104.807V106.258ZM17.3401 103.571L19.0015 104.529V103.083L17.3401 102.124V103.571ZM17.3401 109.008L19.0015 109.966V108.497L17.3401 107.539V109.008ZM17.3401 114.359L19.0015 115.318V113.871L17.3401 112.913V114.359ZM17.3401 111.672L19.0015 112.635V111.184L17.3401 110.226V111.672ZM17.3401 100.897L19.0015 101.856V100.405L17.3401 99.4464V100.897ZM17.3401 90.2076L19.0015 91.1704V89.7195L17.3401 88.7611V90.2076ZM17.3401 84.865L19.0015 85.8233V84.3768L17.3401 83.4184V84.865ZM17.3401 117.028L19.0015 117.987V116.558L17.3401 115.595V117.028ZM24.2277 121.009L25.8892 121.968V120.521L24.2277 119.563V121.009ZM17.3401 98.2193L19.0015 99.1777V97.7491L17.3401 96.7907V98.2193ZM17.3401 92.8767L19.0015 93.835V92.3751L17.3401 91.4123V92.8767ZM17.3401 87.534L19.0015 88.4924V87.0459L17.3401 86.1054V87.534ZM61.5053 111.663L63.1667 112.622V111.184L61.5053 110.226V111.663ZM17.3401 141.251L19.0015 142.21V140.763L17.3401 139.805V141.251ZM17.3401 138.394L19.0015 139.357V137.906L17.3401 136.948V138.394ZM17.3401 143.925L19.0015 144.883V143.428L17.3401 142.465V143.925ZM17.3401 146.388H19.0015V146.115L17.3401 145.157V146.388ZM17.3401 122.366L19.0015 123.325V121.878L17.3401 120.92V122.366ZM17.3401 125.053L19.0015 126.012V124.561L17.3401 123.602V125.053ZM17.3401 133.065L19.0015 134.023V132.577L17.3401 131.619V133.065ZM17.3401 119.706L19.0015 120.669V119.218L17.3401 118.26V119.706ZM17.3401 130.396L19.0015 131.336V129.885L17.3401 128.927V130.396ZM17.3401 127.709L19.0015 128.649V127.203L17.3401 126.245V127.709ZM17.3401 95.5502L19.0015 96.5086V95.0621L17.3401 94.1037V95.5502ZM17.3401 41.7477L19.0015 42.7061V41.2551L17.3401 40.2967V41.7477ZM17.3401 39.0607L19.0015 40.0191V38.5726L17.3401 37.6097V39.0607ZM17.3401 36.3737L19.0015 37.3366V35.8856L17.3401 34.9272V36.3737ZM17.3401 47.0635L19.0015 48.0397V46.5888L17.3401 45.6304V47.0635ZM17.3401 44.3765L19.0015 45.3348V43.8883L17.3401 42.93V44.3765ZM17.3401 82.1511L19.0015 83.1094V81.6585L17.3401 80.7315V82.1511ZM20.7839 143.204L22.4454 144.162V142.756L20.7839 141.793V143.204ZM20.7839 140.347L22.4454 141.305V139.859L20.7839 138.95V140.347ZM17.3401 49.7594L19.0015 50.7267V49.2802L17.3401 48.3219V49.7594ZM20.7839 145.918L21.599 146.388H22.4409V145.425L20.7794 144.467L20.7839 145.918ZM17.3401 31.058L19.0015 32.0163V30.5743L17.3401 29.6159V31.058ZM17.3401 28.371L19.0015 29.3293V27.8873L17.3401 26.9289V28.371ZM17.3401 33.7136L19.0015 34.672V33.2613L17.3401 32.3029V33.7136ZM17.3401 68.6445L19.0015 69.6028V68.1519L17.3401 67.1935V68.6445ZM17.3401 73.9871L19.0015 74.9455V73.4945L17.3401 72.5361V73.9871ZM17.3401 71.3001L19.0015 72.2585V70.812L17.3401 69.8536V71.3001ZM17.3401 76.6428L19.0015 77.6011V76.1546L17.3401 75.1963V76.6428ZM17.3401 79.3297L19.0015 80.2836V78.8327L17.3401 77.8743V79.3297ZM17.3401 57.9547L19.0015 58.9131V57.4666L17.3401 56.5082V57.9547ZM17.3401 55.2677L19.0015 56.2261V54.7751L17.3401 53.8615V55.2677ZM17.3401 65.953L19.0015 66.9114V65.5052L17.3401 64.5423V65.953ZM17.3401 52.4106L19.0015 53.4137V51.9627L17.3401 51.0044V52.4106ZM17.3401 63.2795L19.0015 64.2423V62.8182L17.3401 61.8598V63.2795ZM17.3401 135.725L19.0015 136.684V135.233L17.3401 134.274V135.725ZM58.0614 55.4334L59.7229 56.3918V54.9408L58.0614 53.9825V55.4334ZM58.0614 50.0863L59.7229 51.0492V49.5982L58.0614 48.6398V50.0863ZM58.0614 52.7733L59.7229 53.7317V52.2852L58.0614 51.3223V52.7733ZM58.0614 34.0719L59.7229 35.0302V33.5837L58.0614 32.6254V34.0719ZM58.0614 60.9731L59.7229 61.9315V60.485L58.0614 59.5266V60.9731ZM58.0614 63.6601L59.7229 64.6185V63.1675L58.0614 62.2091V63.6601ZM58.0614 47.4441L59.7229 48.4025V46.9515L58.0614 45.9931V47.4441ZM58.0614 39.4279L59.7229 40.3863V38.9398L58.0614 37.9814V39.4279ZM58.0614 36.7409L59.7229 37.6993V36.2483L58.0614 35.29V36.7409ZM58.0614 44.7527L59.7229 45.711V44.2645L58.0614 43.3061V44.7527ZM58.0614 66.3113L59.7229 67.2696V65.8231L58.0614 64.8648V66.3113ZM58.0614 42.0836L59.7229 43.0419V41.591L58.0614 40.6326V42.0836ZM58.0614 58.2996L59.7229 59.2579V57.8069L58.0614 56.8486V58.2996ZM58.0614 88.0669L59.7229 89.0253V87.5788L58.0614 86.616V88.0669ZM58.0614 68.9848L59.7229 69.9432V68.4922L58.0614 67.5339V68.9848ZM58.0614 90.7898L59.7229 91.7481V90.3016L58.0614 89.3433V90.7898ZM58.0614 96.1324L59.7229 97.0908V95.6443L58.0614 94.6859V96.1324ZM24.2277 118.349L25.8892 119.308V117.857L24.2277 116.898V118.349ZM58.0614 85.3979L59.7229 86.3607V84.8963L58.0614 83.9379V85.3979ZM58.0614 71.6584L59.7229 72.6168V71.1702L58.0614 70.2119V71.6584ZM58.0614 82.3481L59.7229 83.3065V81.8555L58.0614 80.8972V82.3481ZM58.0614 74.332L59.7229 75.2903V73.8393L58.0614 72.881V74.332ZM58.0614 77.0189L59.7229 77.9818V76.5308L58.0614 75.5724V77.0189ZM58.0614 79.7059L59.7229 80.6643V79.2178L58.0614 78.255V79.7059ZM58.0614 9.8755L59.7229 10.8339V9.3381L58.0614 8.37974V9.8755ZM58.0614 31.4341L59.7229 32.3925V30.9415L58.0614 29.9832V31.4341ZM61.5053 133.092L63.1667 134.05V132.546L61.5053 131.587V133.092ZM61.5053 130.405L63.1667 131.363V129.917L61.5053 128.954V130.405ZM61.5053 138.421L63.1667 139.38V137.929L61.5053 136.97V138.421ZM61.5053 141.278L63.1667 142.237V140.741L61.5053 139.783V141.278ZM61.5053 127.731L63.1667 128.694V127.243L61.5053 126.285V127.731ZM61.5053 122.389L63.1667 123.347V121.901L61.5053 120.942V122.389ZM61.5053 114.377L63.1667 115.335V113.884L61.5053 112.926V114.377ZM61.5053 117.064L63.1667 118.022V116.576L61.5053 115.618V117.064ZM61.5053 119.751L63.1667 120.709V119.258L61.5053 118.3V119.751ZM61.5053 125.094L63.1667 126.052V124.529L61.5053 123.571V125.094ZM61.5053 143.979L63.1667 144.937V143.428L61.5053 142.47V143.979ZM61.5053 135.779L63.1667 136.737V135.291L61.5053 134.332V135.779ZM58.0614 23.1851L59.7229 24.1479V22.6969L58.0614 21.7386V23.1851ZM58.0614 20.4981L59.7229 21.4564V20.0055L58.0614 19.0471V20.4981ZM58.0614 25.8407L59.7229 26.7991V25.3526L58.0614 24.3897V25.8407ZM58.0614 17.8245L59.7229 18.7829V17.3364L58.0614 16.378V17.8245ZM58.0614 28.5143L59.7229 29.4726V28.0217L58.0614 27.0633V28.5143ZM58.0614 98.7791L59.7229 99.7374V98.2865L58.0614 97.3281V98.7791ZM58.0614 7.13925L59.7229 8.09761V6.66903L58.0614 5.71067V7.13925ZM58.0614 4.45226L59.7229 5.41062V3.99547L58.0614 3.03711V4.45226ZM61.5053 146.352H63.1667V146.052L61.5053 145.094V146.352ZM58.0614 15.1375L59.7229 16.0959V14.6807L58.0614 13.7224V15.1375ZM58.0614 12.4505L59.7229 13.4089V12.0117L58.0614 11.0533V12.4505ZM58.0614 93.4051L59.7229 94.3635V92.9125L58.0614 91.9541V93.4051ZM24.2277 77.9728L25.8892 78.9401V77.4892L24.2277 76.5308V77.9728ZM24.2277 75.2858L25.8892 76.2531V74.8067L24.2277 73.8483V75.2858ZM24.2277 72.5988L25.8892 73.5572V72.1062L24.2277 71.1479V72.5988ZM24.2277 69.9118L25.8892 70.8702V69.4237L24.2277 68.4653V69.9118ZM24.2277 83.2707L25.8892 84.229V82.7825L24.2277 81.8197V83.2707ZM24.2277 80.5837L25.8892 81.6271V80.1762L24.2277 79.2178V80.5837ZM24.2277 64.5558L25.8892 65.5141V64.0676L24.2277 63.1093V64.5558ZM24.2277 59.2131L25.8892 60.1715V58.7877L24.2277 57.8249V59.2131ZM24.2277 56.356L25.8892 57.3143V55.8678L24.2277 54.905V56.356ZM24.2277 67.2293L25.8892 68.1877V66.7367L24.2277 65.7784V67.2293ZM24.2277 61.8867L25.8892 62.8451V61.4747L24.2277 60.5163V61.8867ZM24.2277 86.1144L25.8892 87.0728V85.6263L24.2277 84.6634V86.1144ZM24.2277 104.816L25.8892 105.774V104.323L24.2277 103.365V104.816ZM24.2277 107.503L25.8892 108.497V107.046L24.2277 106.088V107.503ZM24.2277 110.19L25.8892 111.184V109.738L24.2277 108.775V110.19ZM24.2277 112.953L25.8892 113.911V112.465L24.2277 111.502V112.953ZM24.2277 53.7138L25.8892 54.6766V53.2256L24.2277 52.2673V53.7138ZM24.2277 115.627L25.8892 116.585V115.134L24.2277 114.176V115.627ZM24.2277 94.1619L25.8892 95.1203V93.7186L24.2277 92.7602V94.1619ZM24.2277 88.8148L25.8892 89.7777V88.3446L24.2277 87.3862V88.8148ZM24.2277 91.5018L25.8892 92.4602V91.0316L24.2277 90.0732V91.5018ZM24.2277 96.8445L25.8892 97.8028V96.3563L24.2277 95.398V96.8445ZM24.2277 102.187L25.8892 103.145V101.699L24.2277 100.741V102.187ZM58.0614 101.645L59.7229 102.604V101.153L58.0614 100.194V101.645ZM24.2277 99.5404L25.8892 100.499V99.0478L24.2277 98.0894V99.5404ZM58.0614 125.712L59.7229 126.67V125.219L58.0614 124.261V125.712ZM58.0614 123.025L59.7229 123.983V122.537L58.0614 121.578V123.025ZM58.0614 120.338L59.7229 121.296V119.845L58.0614 118.887V120.338ZM58.0614 131.023L59.7229 131.981V130.535L58.0614 129.572V131.023ZM58.0614 128.336L59.7229 129.299V127.848L58.0614 126.889V128.336ZM24.2277 51.0716L25.8892 52.0299V50.5789L24.2277 49.6206V51.0716ZM58.0614 109.67L59.7229 110.633V109.182L58.0614 108.224V109.67ZM58.0614 104.328L59.7229 105.286V103.84L58.0614 102.881V104.328ZM58.0614 107.015L59.7229 107.973V106.527L58.0614 105.564V107.015ZM58.0614 112.357L59.7229 113.316V111.856L58.0614 110.897V112.357ZM58.0614 115.044L59.7229 116.003V114.552L58.0614 113.593V115.044ZM58.0614 133.746L59.7229 134.704V133.253L58.0614 132.295V133.746ZM58.0614 117.713L59.7229 118.672V117.225L58.0614 116.267V117.713ZM58.0614 136.415L59.7229 137.373V135.927L58.0614 134.968V136.415ZM24.2277 40.3863L25.8892 41.3447V39.8937L24.2277 38.9353V40.3863ZM24.2277 37.6993L25.8892 38.6577V37.2112L24.2277 36.2528V37.6993ZM24.2277 45.7155L25.8892 46.6962V45.2453L24.2277 44.2869V45.7155ZM24.2277 48.4025L25.8892 49.3608V47.9143L24.2277 46.956V48.4025ZM24.2277 43.0598L25.8892 44.0093V42.5628L24.2277 41.6044V43.0598ZM58.0614 139.25L59.7229 140.208V138.762L58.0614 137.803V139.25ZM24.2277 35.0526L25.8892 36.0154V34.5645L24.2277 33.6061V35.0526ZM58.0614 141.932L59.7229 142.891V141.44L58.0614 140.481V141.932ZM24.2277 32.3656L25.8892 33.324V31.8775L24.2277 30.9146V32.3656ZM58.0614 144.583L59.7229 145.542V144.1L58.0614 143.141V144.583Z" fill="white" fill-opacity="0.16"/>
<path opacity="0.2" d="M45.643 42.3341L47.3045 41.3757V39.9292L45.643 40.8741V42.3341ZM45.643 45.0211L47.3045 44.0627V42.6117L45.643 43.5611V45.0211ZM45.643 47.7081L47.3045 46.7497V45.3032L45.643 46.2481V47.7081ZM45.643 39.6963L47.3045 38.738V37.287L45.643 38.2454V39.6963ZM45.643 50.3816L47.3045 49.3829V47.932L45.643 48.8948V50.3816ZM45.643 34.1656L47.3045 33.2073V31.7608L45.643 32.7191V34.1656ZM45.643 26.1539L47.3045 25.1911V23.7446L45.643 24.7029V26.1539ZM45.643 23.4669L47.3045 22.513V21.0621L45.643 22.0204V23.4669ZM45.643 37.0094L47.3045 36.051V34.6045L45.643 35.5629V37.0094ZM45.643 85.2856L47.3045 84.3138V82.8629L45.643 83.8212V85.2856ZM45.643 28.8096L47.3045 27.8512V26.4047L45.643 27.3631V28.8096ZM45.643 71.9268L47.3045 70.9684V69.5175L45.643 70.4758V71.9268ZM45.643 74.6138L47.3045 73.6554V72.2089L45.643 73.118V74.6138ZM45.643 77.3008L47.3045 76.3424V74.8915L45.643 75.805V77.3008ZM45.643 20.8247L47.3045 19.826V18.3795L45.643 19.3379V20.8247ZM45.643 82.6255L47.3045 81.6268V80.1803L45.643 81.1387V82.6255ZM45.643 55.7243L47.3045 54.7569V53.3104L45.643 54.2688V55.7243ZM45.643 79.9564L47.3045 78.9936V77.5471L45.643 78.492V79.9564ZM45.643 58.3978L47.3045 57.4394V55.9885L45.643 56.9468V58.3978ZM45.643 69.2667L47.3045 68.3083V66.8484L45.643 67.8067V69.2667ZM45.643 61.0669L47.3045 60.1085V58.662L45.643 59.6204V61.0669ZM45.643 63.924L47.3045 62.9657V61.4744L45.643 62.4328V63.924ZM45.643 66.611L47.3045 65.6527V64.1614L45.643 65.1198V66.611ZM45.643 31.51L47.3045 30.5516V29.1006L45.643 30.059V31.51ZM49.0868 113.226L50.7483 112.263V110.817L49.0868 111.775V113.226ZM49.0868 124.019L50.7483 123.06V121.609L49.0868 122.568V124.019ZM49.0868 110.525L50.7483 109.567V108.116L49.0868 109.079V110.525ZM49.0868 107.838L50.7483 106.88V105.434L49.0868 106.392V107.838ZM49.0868 118.663L50.7483 117.704V116.253L49.0868 117.212V118.663ZM49.0868 121.35L50.7483 120.391V118.945L49.0868 119.903V121.35ZM49.0868 116.007L50.7483 115.049V113.602L49.0868 114.56V116.007ZM49.0868 96.8979L50.7483 95.9395V94.4886L49.0868 95.4469V96.8979ZM49.0868 94.2109L50.7483 93.2526V91.8016L49.0868 92.7644V94.2109ZM49.0868 99.5536L50.7483 98.5952V97.1487L49.0868 98.107V99.5536ZM49.0868 102.241L50.7483 101.282V99.8312L49.0868 100.79V102.241ZM49.0868 105.187L50.7483 104.229V102.778L49.0868 103.736V105.187ZM49.0868 137.382L50.7483 136.424V134.919L49.0868 135.877V137.382ZM45.643 10.0902L47.3045 9.13182V7.68533L45.643 8.63025V10.0902ZM49.0868 145.532L50.7483 144.574V143.123L49.0868 144.081V145.532ZM49.0868 142.845L50.7483 141.887V140.441L49.0868 141.399V142.845ZM45.643 15.4328L47.3045 14.4745V13.028L45.643 14.0042V15.4328ZM49.0868 126.643L50.7483 125.685V124.238L49.0868 125.196V126.643ZM49.0868 91.506L50.7483 90.5432V89.0967L49.0868 90.055V91.506ZM49.0868 131.99L50.7483 131.027V129.581L49.0868 130.539V131.99ZM49.0868 129.303L50.7483 128.345V126.894L49.0868 127.852V129.303ZM45.643 18.0929L47.3045 17.1391V15.697L45.643 16.6554V18.0929ZM49.0868 139.988L50.7483 139.03V137.606L49.0868 138.564V139.988ZM49.0868 134.646L50.7483 133.687V132.232L49.0868 133.195V134.646ZM45.643 12.7637L47.3045 11.8054V10.3544L45.643 11.3172V12.7637ZM42.1992 49.6696L43.8606 48.7112V47.2602L42.1992 48.2231V49.6696ZM42.1992 36.1271L43.8606 35.1688V33.7088L42.1992 34.6762V36.1271ZM42.1992 41.6534L43.8606 40.695V39.2485L42.1992 40.2069V41.6534ZM42.1992 44.3404L43.8606 43.382V41.931L42.1992 42.876V44.3404ZM42.1992 33.467L43.8606 32.5086V31.0621L42.1992 32.0071V33.467ZM42.1992 47.0139L43.8606 46.0511V44.5911L42.1992 45.5495V47.0139ZM42.1992 38.9977L43.8606 38.0394V36.575L42.1992 37.5333V38.9977ZM42.1992 17.4391L43.8606 16.4807V15.0163L42.1992 15.9747V17.4391ZM42.1992 20.1261L43.8606 19.1677V17.7212L42.1992 18.6483V20.1261ZM45.643 87.9681L47.3045 87.0008V85.5543L45.643 86.5127V87.9681ZM42.1992 81.9135L43.8606 80.9551V79.5086L42.1992 80.467V81.9135ZM42.1992 25.4419L43.8606 24.479V23.0325L42.1992 23.9909V25.4419ZM42.1992 22.7549L43.8606 21.7965V20.3455L42.1992 21.3218V22.7549ZM42.1992 71.2148L43.8606 70.2564V68.8188L42.1992 69.7772V71.2148ZM42.1992 52.3297L43.8606 51.3713V49.9203L42.1992 50.8921V52.3297ZM42.1992 79.2309L43.8606 78.2681V76.835L42.1992 77.7934V79.2309ZM42.1992 68.5412L43.8606 67.5828V66.1363L42.1992 67.1081V68.5412ZM42.1992 76.5574L43.8606 75.599V74.148L42.1992 75.1243V76.5574ZM42.1992 73.8704L43.8606 72.9076V71.4611L42.1992 72.4508V73.8704ZM42.1992 57.6544L43.8606 56.696V55.2451L42.1992 56.2348V57.6544ZM42.1992 54.9674L43.8606 54.0091V52.6073L42.1992 53.5657V54.9674ZM42.1992 60.31L43.8606 59.3517V57.9052L42.1992 58.9083V60.31ZM42.1992 62.997L43.8606 62.0387V60.5877L42.1992 61.5774V62.997ZM42.1992 65.8542L43.8606 64.8958V63.4449L42.1992 64.4346V65.8542ZM42.1992 28.0796L43.8606 27.1212V25.6747L42.1992 26.6644V28.0796ZM45.643 109.769L47.3045 108.81V107.359L45.643 108.322V109.769ZM45.643 112.456L47.3045 111.493V110.064L45.643 111.023V112.456ZM42.1992 14.7521L43.8606 13.7938V12.3473L42.1992 13.3056V14.7521ZM45.643 117.95L47.3045 117.006V115.555L45.643 116.513V117.95ZM45.643 120.637L47.3045 119.679V118.215L45.643 119.173V120.637ZM45.643 104.198L47.3045 103.239V101.779L45.643 102.738V104.198ZM45.643 115.187L47.3045 114.229V112.783L45.643 113.741V115.187ZM45.643 90.8432L47.3045 89.8804V88.4339L45.643 89.3922V90.8432ZM45.643 93.5302L47.3045 92.5719V91.1254L45.643 92.0837V93.5302ZM45.643 98.8728L47.3045 97.9145V96.468L45.643 97.4263V98.8728ZM45.643 96.1859L47.3045 95.2275V93.7765L45.643 94.7349V96.1859ZM45.643 101.528L47.3045 100.57V99.0923L45.643 100.051V101.528ZM45.643 107.144L47.3045 106.186V104.739L45.643 105.698V107.144ZM45.643 123.311L47.3045 122.353V120.902L45.643 121.86V123.311ZM45.643 144.87L47.3045 143.875V142.442L45.643 143.401V144.87ZM45.643 146.406H47.3045V145.134L45.643 146.092V146.406ZM45.643 139.339L47.3045 138.381V136.934L45.643 137.892V139.339ZM42.1992 12.083L43.8606 11.1247V9.6737L42.1992 10.6321V12.083ZM45.643 141.995L47.3045 141.036V139.585L45.643 140.544V141.995ZM45.643 125.962L47.3045 125.004V123.557L45.643 124.516V125.962ZM45.643 128.649L47.3045 127.691V126.24L45.643 127.198V128.649ZM45.643 136.665L47.3045 135.707V134.256L45.643 135.214V136.665ZM45.643 131.323L47.3045 130.36V128.913L45.643 129.872V131.323ZM45.643 134.01L47.3045 133.051V131.6L45.643 132.563V134.01ZM42.1992 30.7845L43.8606 29.8261V28.3752L42.1992 29.3335V30.7845ZM52.5307 46.369L54.1921 45.4107V43.9597L52.5307 44.9046V46.369ZM52.5307 49.056L54.1921 48.0977V46.6512L52.5307 47.5916V49.056ZM49.0868 88.8504L50.7483 87.892V86.441L49.0868 87.3994V88.8504ZM52.5307 51.7296L54.1921 50.7712V49.3203L52.5307 50.2786V51.7296ZM52.5307 57.0722L54.1921 56.1139V54.6629L52.5307 55.6257V57.0722ZM52.5307 59.9294L54.1921 58.971V57.5201L52.5307 58.4829V59.9294ZM52.5307 54.4031L54.1921 53.4403V51.9938L52.5307 52.9522V54.4031ZM52.5307 35.7017L54.1921 34.7433V33.261L52.5307 34.2194V35.7017ZM52.5307 33.0147L54.1921 32.0563V30.6054L52.5307 31.5682V33.0147ZM52.5307 43.7L54.1921 42.7416V41.2951L52.5307 42.2535V43.7ZM52.5307 38.3573L54.1921 37.399V35.948L52.5307 36.9064V38.3573ZM52.5307 41.0443L54.1921 40.086V38.635L52.5307 39.5933V41.0443ZM52.5307 30.171L54.1921 29.2126V27.7616L52.5307 28.7245V30.171ZM52.5307 86.8575L54.1921 85.8992V84.4527L52.5307 85.411V86.8575ZM52.5307 83.9735L54.1921 83.0151V81.5641L52.5307 82.5225V83.9735ZM52.5307 81.2865L54.1921 80.3236V78.8772L52.5307 79.8355V81.2865ZM52.5307 92.1867L54.1921 91.2239V89.7774L52.5307 90.7357V92.1867ZM52.5307 89.4997L54.1921 88.5414V87.0904L52.5307 88.0488V89.4997ZM52.5307 73.2569L54.1921 72.2985V70.8789L52.5307 71.8372V73.2569ZM52.5307 70.5699L54.1921 69.6115V68.1919L52.5307 69.1502V70.5699ZM52.5307 78.5861L54.1921 77.6277V76.1767L52.5307 77.1485V78.5861ZM52.5307 67.9008L54.1921 66.9424V65.5049L52.5307 66.4633V67.9008ZM52.5307 75.9125L54.1921 74.9541V73.5076L52.5307 74.466V75.9125ZM52.5307 65.2272L54.1921 64.2689V62.8224L52.5307 63.7807V65.2272ZM52.5307 11.4247L54.1921 10.4664V9.04674L52.5307 10.0051V11.4247ZM89.5932 130.176L91.2547 129.218V127.798L89.5932 128.757V130.176ZM89.5932 127.489L91.2547 126.531V125.08L89.5932 126.038V127.489ZM89.5932 124.802L91.2547 123.844V122.393L89.5932 123.356V124.802ZM89.5932 122.115L91.2547 121.152V119.782L89.5932 120.74V122.115ZM89.5932 132.984L91.2547 132.026V130.579L89.5932 131.538V132.984ZM89.5932 135.671L91.2547 134.713V133.262L89.5932 134.22V135.671ZM89.5932 119.455L91.2547 118.497V117.046L89.5932 118.004V119.455ZM89.5932 108.77L91.2547 107.812V106.361L89.5932 107.319V108.77ZM89.5932 111.457L91.2547 110.499V109.052L89.5932 110.01V111.457ZM89.5932 114.144L91.2547 113.186V111.766L89.5932 112.724V114.144ZM89.5932 116.831L91.2547 115.873V114.426L89.5932 115.384V116.831ZM89.5932 138.39L91.2547 137.431V135.985L89.5932 136.943V138.39ZM52.5307 8.78251L54.1921 7.81968V6.39109L52.5307 7.34945V8.78251ZM52.5307 19.4678L54.1921 18.5094V17.0584L52.5307 18.0347V19.4678ZM52.5307 16.7808L54.1921 15.8224V14.3894L52.5307 15.3477V16.7808ZM52.5307 14.0938L54.1921 13.1354V11.7158L52.5307 12.6607V14.0938ZM52.5307 24.7791L54.1921 23.8207V22.3697L52.5307 23.3281V24.7791ZM52.5307 22.0921L54.1921 21.1337V19.6872L52.5307 20.6456V22.0921ZM52.5307 6.06417L54.1921 5.10581V3.7041L52.5307 4.66694V6.06417ZM52.5307 94.811L54.1921 93.8526V92.4017L52.5307 93.3645V94.811ZM89.5932 143.701L91.2547 142.742V141.296L89.5932 142.254V143.701ZM89.5932 146.343H89.6693L91.2771 145.416V144.01L89.6156 144.968L89.5932 146.343ZM52.5307 27.484L54.1921 26.5211V25.0746L52.5307 26.033V27.484ZM89.5932 141.077L91.2547 140.118V138.667L89.5932 139.626V141.077ZM52.5307 62.585L54.1921 61.6267V60.1757L52.5307 61.1341V62.585ZM52.5307 97.5159L54.1921 96.5576V95.1066L52.5307 96.0649V97.5159ZM49.0868 43.0013L50.7483 42.043V40.5965L49.0868 41.5549V43.0013ZM49.0868 48.344L50.7483 47.3856V45.9391L49.0868 46.8975V48.344ZM49.0868 40.3323L50.7483 39.3739V37.9229L49.0868 38.8813V40.3323ZM49.0868 51.0175L50.7483 50.0592V48.6216L49.0868 49.58V51.0175ZM49.0868 56.3602L50.7483 55.4018V53.9508L49.0868 54.9137V56.3602ZM49.0868 53.6732L50.7483 52.7103V51.2638L49.0868 52.2222V53.6732ZM49.0868 29.441L50.7483 28.4826V27.0317L49.0868 27.9945V29.441ZM49.0868 26.754L50.7483 25.7912V24.3939L49.0868 25.3523V26.754ZM49.0868 24.067L50.7483 23.1087V21.6577L49.0868 22.616V24.067ZM49.0868 32.0832L50.7483 31.1248V29.6739L49.0868 30.6322V32.0832ZM49.0868 37.6095L50.7483 36.6511V35.2046L49.0868 36.163V37.6095ZM49.0868 34.9225L50.7483 33.9641V32.5131L49.0868 33.4715V34.9225ZM49.0868 80.5252L50.7483 79.5623V78.1158L49.0868 79.0742V80.5252ZM49.0868 77.8382L50.7483 76.8798V75.4288L49.0868 76.3917V77.8382ZM49.0868 75.1512L50.7483 74.1928V72.7463L49.0868 73.7047V75.1512ZM49.0868 85.8409L50.7483 84.8826V83.4316L49.0868 84.39V85.8409ZM49.0868 83.154L50.7483 82.1956V80.7491L49.0868 81.7075V83.154ZM49.0868 64.4525L50.7483 63.4941V62.0476L49.0868 63.006V64.4525ZM49.0868 61.7655L50.7483 60.8071V59.3562L49.0868 60.3145V61.7655ZM49.0868 58.9083L50.7483 57.95V56.6378L49.0868 57.5962V58.9083ZM49.0868 69.7772L50.7483 68.8188V67.3724L49.0868 68.3307V69.7772ZM49.0868 67.0902L50.7483 66.1319V64.6809L49.0868 65.6392V67.0902ZM49.0868 72.4329L50.7483 71.4745V70.0235L49.0868 70.9819V72.4329ZM49.0868 45.5316L50.7483 44.5732V43.1223L49.0868 44.0806V45.5316ZM52.5307 121.824L54.1921 120.866V119.419L52.5307 120.378V121.824ZM52.5307 119.137L54.1921 118.179V116.728L52.5307 117.686V119.137ZM52.5307 116.45L54.1921 115.492V114.045L52.5307 115.214V116.45ZM52.5307 113.763L54.1921 112.8V111.354L52.5307 112.527V113.763ZM52.5307 127.118L54.1921 126.159V124.713L52.5307 125.671V127.118ZM52.5307 124.431L54.1921 123.472V122.245L52.5307 123.204V124.431ZM52.5307 105.595L54.1921 104.636V103.185L52.5307 104.144V105.595ZM52.5307 110.969L54.1921 110.01V108.559L52.5307 109.518V110.969ZM52.5307 102.908L54.1921 101.949V100.503L52.5307 101.461V102.908ZM52.5307 99.9611L54.1921 99.0027V97.7936L52.5307 98.7519V99.9611ZM52.5307 129.76L54.1921 128.801V127.35L52.5307 128.309V129.76ZM52.5307 108.264L54.1921 107.306V105.859L52.5307 106.817V108.264ZM49.0868 10.547L50.7483 9.58861V8.36603L49.0868 9.32439V10.547ZM49.0868 21.2322L50.7483 20.2739V18.8274L49.0868 19.7857V21.2322ZM49.0868 7.87789L50.7483 6.91953V5.69248L49.0868 6.65084V7.87789ZM49.0868 13.2205L50.7483 12.2622V11.0351L49.0868 11.9935V13.2205ZM49.0868 18.5632L50.7483 17.6048V16.3777L49.0868 17.3361V18.5632ZM49.0868 15.8762L50.7483 14.9178V13.7087L49.0868 14.667V15.8762ZM52.5307 135.102L54.1921 134.144V132.693L52.5307 133.656V135.102ZM52.5307 132.415L54.1921 131.453V130.261L52.5307 131.22V132.415ZM52.5307 137.758L54.1921 136.795V135.349L52.5307 136.307V137.758ZM52.5307 145.958L54.1921 145V143.549L52.5307 144.771V145.958ZM52.5307 143.271L54.1921 142.313V140.866L52.5307 142.084V143.271ZM52.5307 140.584L54.1921 139.621V138.175L52.5307 139.133V140.584ZM5.39634 116.885L7.0578 115.926V114.475L5.39634 115.434V116.885ZM8.84017 112.223L10.5016 111.264V109.813L8.84017 110.772V112.223ZM5.39634 81.6268L7.0578 80.664V79.2175L5.39634 80.1759V81.6268ZM5.39634 87.1531L7.0578 86.1947V84.7438L5.39634 85.7066V87.1531ZM5.39634 78.9533L7.0578 77.9949V76.5216L5.39634 77.4799V78.9533ZM5.39634 95.1693L7.0578 94.2109V92.7599L5.39634 93.7183V95.1693ZM5.39634 92.4823L7.0578 91.5239V90.0774L5.39634 91.0313V92.4823ZM5.39634 89.7953L7.0578 88.8325V87.386L5.39634 88.3443V89.7953ZM5.39634 65.5631L7.0578 64.6092V63.1627L5.39634 64.1211V65.5631ZM5.39634 68.2501L7.0578 67.2962V65.8452L5.39634 66.8036V68.2501ZM5.39634 70.9371L7.0578 69.9787V68.5322L5.39634 69.4906V70.9371ZM5.39634 76.2797L7.0578 75.3214V73.8749L5.39634 74.8332V76.2797ZM5.39634 73.5927L7.0578 72.6344V71.1834L5.39634 72.1418V73.5927ZM5.39634 105.837L7.0578 104.878V103.427L5.39634 104.386V105.837ZM5.39634 119.298L7.0578 118.349V116.898L5.39634 117.856V119.298ZM5.39634 114.216L7.0578 113.257V111.811L5.39634 112.769V114.216ZM89.5887 106.155L91.2502 105.196V103.75L89.5887 104.708V106.155ZM5.39634 121.959L7.0578 121V119.558L5.39634 120.517V121.959ZM5.39634 124.646L7.0578 123.687V122.236L5.39634 123.195V124.646ZM5.39634 97.8249L7.0578 96.8531V95.4066L5.39634 96.365V97.8249ZM5.39634 100.512L7.0578 99.5401V98.0891L5.39634 99.0475V100.512ZM5.39634 103.199L7.0578 102.241V100.794L5.39634 101.752V103.199ZM5.39634 108.546L7.0578 107.583V106.137L5.39634 107.095V108.546ZM5.39634 62.9433L7.0578 61.9849V60.534L5.39634 61.4744V62.9433ZM5.39634 111.215L7.0578 110.257V108.765L5.39634 109.728V111.215ZM8.84017 120.015L10.5016 119.057V117.606L8.84017 118.564V120.015ZM8.84017 133.369L10.5016 132.411V130.964L8.84017 131.923V133.369ZM8.84017 128.027L10.5016 127.068V125.622L8.84017 126.58V128.027ZM8.84017 130.714L10.5016 129.755V128.304L8.84017 129.263V130.714ZM8.84017 136.056L10.5016 135.098V133.575L8.84017 134.534V136.056ZM8.84017 144.256L10.5016 143.298V141.847L8.84017 142.81V144.256ZM8.84017 138.73L10.5016 137.767V136.262L8.84017 137.221V138.73ZM8.84017 141.417L10.5016 140.459V138.949L8.84017 139.912V141.417ZM5.39634 60.2294L7.0578 59.2711V57.8201L5.39634 58.7874V60.2294ZM8.84017 114.892L10.5016 113.933V112.487L8.84017 113.445V114.892ZM8.84017 122.644L10.5016 121.685V120.239L8.84017 121.197V122.644ZM8.84017 125.331L10.5016 124.372V122.921L8.84017 123.88V125.331ZM5.39634 127.306L7.0578 126.347V124.901L5.39634 125.859V127.306ZM8.84017 117.301L10.5016 116.343V114.892L8.84017 115.855V117.301ZM5.39634 49.3561L7.0578 48.3977V46.9512L5.39634 47.9096V49.3561ZM5.39634 52.0431L7.0578 51.0847V49.6337L5.39634 50.5921V52.0431ZM5.39634 57.3857L7.0578 56.4273V54.9764L5.39634 55.9392V57.3857ZM8.84017 146.401H9.68209L10.5016 145.931V144.48L8.84017 145.438V146.401ZM5.39634 46.696L7.0578 45.7376V44.2777L5.39634 45.236V46.696ZM5.39634 54.7121L7.0578 53.7493V52.2939L5.39634 53.2522V54.7121ZM5.39634 44.0224L7.0578 43.064V41.6175L5.39634 42.5759V44.0224ZM5.39634 33.3371L7.0578 32.3653V30.9144L5.39634 31.8772V33.3371ZM5.39634 36.0241L7.0578 35.0523V33.6058L5.39634 34.5642V36.0241ZM5.39634 41.3668L7.0578 40.4084V38.9574L5.39634 39.9158V41.3668ZM5.39634 38.6798L7.0578 37.7214V36.2749L5.39634 37.2333V38.6798ZM5.39634 84.2825L7.0578 83.3241V81.8732L5.39634 82.836V84.2825ZM1.95251 107.825L3.61397 106.862V105.416L1.95251 106.374V107.825ZM1.95251 105.138L3.61397 104.18V102.729L1.95251 103.692V105.138ZM1.95251 102.451L3.61397 101.493V100.046L1.95251 101.005V102.451ZM1.95251 110.467L3.61397 109.509V108.058L1.95251 109.021V110.467ZM1.95251 113.154L3.61397 112.196V110.745L1.95251 111.703V113.154ZM1.95251 99.7954L3.61397 98.837V97.386L1.95251 98.3444V99.7954ZM1.95251 94.4528L3.61397 93.4944V92.0434L1.95251 93.0018V94.4528ZM1.95251 97.1397L3.61397 96.1814V94.7349L1.95251 95.6932V97.1397ZM1.95251 86.2709L3.61397 85.3125V83.866L1.95251 84.8244V86.2709ZM1.95251 89.128L3.61397 88.1697V86.7187L1.95251 87.6771V89.128ZM1.95251 116.208L3.61397 115.25V113.799L1.95251 114.766V116.208ZM1.95251 91.7971L3.61397 90.8387V89.3922L1.95251 90.3506V91.7971ZM1.95251 129.303L3.61397 128.345V126.894L1.95251 127.852V129.303ZM1.95251 137.319L3.61397 136.356V134.919L1.95251 135.877V137.319ZM1.95251 134.632L3.61397 133.674V132.232L1.95251 133.195V134.632ZM1.95251 139.975L3.61397 139.016V137.57L1.95251 138.528V139.975ZM1.95251 145.317L3.61397 144.359V142.913L1.95251 143.875V145.317ZM1.95251 142.63L3.61397 141.672V140.248L1.95251 141.188V142.63ZM1.95251 83.566L3.61397 82.6076V81.179L1.95251 82.1418V83.566ZM1.95251 131.932L3.61397 130.973V129.545L1.95251 130.503V131.932ZM1.95251 121.247L3.61397 120.288V118.842L1.95251 119.8V121.247ZM1.95251 123.934L3.61397 122.975V121.524L1.95251 122.483V123.934ZM1.95251 126.621L3.61397 125.662V124.216L1.95251 125.174V126.621ZM1.95251 118.873L3.61397 117.901V116.468L1.95251 117.427V118.873ZM1.95251 54.018L3.61397 53.0552V51.6221L1.95251 52.5805V54.018ZM5.39634 146.191L7.0578 145.219V143.786L5.39634 144.744V146.191ZM1.95251 35.321L3.61397 34.3627V32.9117L1.95251 33.8701V35.321ZM1.95251 40.6637L3.61397 39.7053V38.2543L1.95251 39.2127V40.6637ZM1.95251 37.9767L3.61397 37.0183V35.5718L1.95251 36.5302V37.9767ZM1.95251 80.9103L3.61397 79.9475V78.501L1.95251 79.4593V80.9103ZM1.95251 45.9794L3.61397 45.0211V43.5701L1.95251 44.5285V45.9794ZM5.39634 135.322L7.0578 134.364V132.913L5.39634 133.871V135.322ZM1.95251 48.6754L3.61397 47.717V46.2705L1.95251 47.2289V48.6754ZM5.39634 132.648L7.0578 131.69V130.243L5.39634 131.202V132.648ZM5.39634 143.338L7.0578 142.38V140.929L5.39634 141.887V143.338ZM5.39634 140.651L7.0578 139.693V138.242L5.39634 139.205V140.651ZM5.39634 137.964L7.0578 137.001V135.555L5.39634 136.513V137.964ZM1.95251 43.3327L3.61397 42.3744V40.9279L1.95251 41.8862V43.3327ZM1.95251 72.8896L3.61397 71.9313V70.4803L1.95251 71.4387V72.8896ZM1.95251 70.2027L3.61397 69.2443V67.7978L1.95251 68.7561V70.2027ZM1.95251 78.2188L3.61397 77.2605V75.8095L1.95251 76.7679V78.2188ZM1.95251 51.3176L3.61397 50.3592V48.9351L1.95251 49.8935V51.3176ZM1.95251 75.5453L3.61397 74.5869V73.1404L1.95251 74.0988V75.5453ZM1.95251 67.5336L3.61397 66.5752V65.1242L1.95251 66.0826V67.5336ZM5.39634 129.993L7.0578 129.034V127.583L5.39634 128.542V129.993ZM1.95251 56.6916L3.61397 55.7332V54.2822L1.95251 55.2451V56.6916ZM1.95251 59.3786L3.61397 58.4202V56.9692L1.95251 57.9276V59.3786ZM1.95251 64.9048L3.61397 63.9464V62.4999L1.95251 63.4583V64.9048ZM42.1992 84.6094L43.8606 83.651V82.2001L42.1992 83.136V84.6094ZM1.95251 62.2223L3.61397 61.2639V59.813L1.95251 60.7713V62.2223ZM12.284 96.5083L13.9455 95.5499V94.099L12.284 95.0618V96.5083ZM12.284 53.391L13.9455 52.4327V50.9817L12.284 51.9401V53.391ZM12.284 50.7041L13.9455 49.7457V48.2992L12.284 49.2576V50.7041ZM12.284 58.9039L13.9455 57.9455V56.499L12.284 57.4574V58.9039ZM12.284 48.035L13.9455 47.0766V45.6256L12.284 46.584V48.035ZM12.284 61.5774L13.9455 60.619V59.1681L12.284 60.1309V61.5774ZM12.284 37.3497L13.9455 36.3958V34.9493L12.284 35.9077V37.3497ZM12.284 34.6627L13.9455 33.7044V32.2534L12.284 33.261V34.6627ZM12.284 64.2196L13.9455 63.2568V61.8103L12.284 62.8179V64.2196ZM12.284 42.661L13.9455 41.7698V40.3188L12.284 41.2772V42.661ZM12.284 39.974L13.9455 39.0828V37.6318L12.284 38.5947V39.974ZM12.284 45.3166L13.9455 44.3583V42.9118L12.284 43.8701V45.3166ZM12.284 74.8735L13.9455 74.0137V72.5627L12.284 73.5211V74.8735ZM12.284 83.0733L13.9455 82.115V80.7312L12.284 81.6895V83.0733ZM12.284 85.7603L13.9455 84.802V83.4182L12.284 84.3765V85.7603ZM12.284 88.4473L13.9455 87.489V86.1052L12.284 87.0456V88.4473ZM12.284 91.1343L13.9455 90.1715V88.725L12.284 89.6833V91.1343ZM12.284 93.8213L13.9455 92.8629V91.412L12.284 92.3748V93.8213ZM12.284 32.0205L13.9455 31.0621V29.6157L12.284 30.574V32.0205ZM12.284 72.2806L13.9455 71.3267V69.8802L12.284 70.8386V72.2806ZM12.284 69.5936L13.9455 68.6397V67.1887L12.284 68.1471V69.5936ZM12.284 77.6053L13.9455 76.647V75.2005L12.284 76.1588V77.6053ZM12.284 80.2923L13.9455 79.3339V77.883L12.284 78.8413V80.2923ZM12.284 66.9335L13.9455 65.9751V64.5241L12.284 65.5049V66.9335ZM12.284 56.2482L13.9455 55.2899V53.8613L12.284 54.8196V56.2482ZM42.1992 106.173L43.8606 105.214V103.763L42.1992 104.722V106.173ZM42.1992 103.486L43.8606 102.527V101.081L42.1992 102.052V103.486ZM42.1992 109.106L43.8606 108.147V106.705L42.1992 107.673V109.106ZM42.1992 100.816L43.8606 99.8581V98.4205L42.1992 99.3789V100.816ZM42.1992 111.779L43.8606 110.821V109.392L42.1992 110.342V111.779ZM42.1992 114.466L43.8606 113.508V112.079L42.1992 113.015V114.466ZM42.1992 98.1608L43.8606 97.2024V95.7559L42.1992 96.7098V98.1608ZM42.1992 87.2606L43.8606 86.3022V84.8512L42.1992 85.8096V87.2606ZM42.1992 117.167L43.8606 116.208V114.766L42.1992 115.711V117.167ZM42.1992 89.9341L43.8606 88.9758V87.5248L42.1992 88.4787V89.9341ZM42.1992 95.5096L43.8606 94.5513V93.1003L42.1992 94.0363V95.5096ZM42.1992 92.8226L43.8606 91.8643V90.4178L42.1992 91.3672V92.8226ZM42.1992 141.323L43.8606 140.364V138.905L42.1992 139.845V141.323ZM12.284 29.3649L13.9455 28.4065V26.9555L12.284 27.887V29.3649ZM42.1992 138.64L43.8606 137.682V136.235L42.1992 137.194V138.64ZM42.1992 135.953L43.8606 134.995V133.575L42.1992 134.52V135.953ZM42.1992 119.921L43.8606 118.963V117.516L42.1992 118.492V119.921ZM42.1992 146.37H42.9829L43.8785 145.864V144.417L42.1992 145.394V146.37ZM42.1992 143.965L43.8606 143.007V141.56L42.1992 142.532V143.965ZM42.1992 122.595L43.8606 121.636V120.185L42.1992 121.161V122.595ZM42.1992 125.281L43.8606 124.323V122.877L42.1992 123.835V125.281ZM42.1992 130.629L43.8606 129.666V128.201L42.1992 129.178V130.629ZM42.1992 133.316L43.8606 132.357V130.888L42.1992 131.851V133.316ZM42.1992 127.973L43.8606 127.015V125.564L42.1992 126.509V127.973ZM8.84017 58.2366L10.5016 57.2782V55.8317L8.84017 56.7901V58.2366ZM8.84017 66.2528L10.5016 65.2944V63.8479L8.84017 64.8063V66.2528ZM8.84017 68.9398L10.5016 67.9814V66.5304L8.84017 67.4888V68.9398ZM8.84017 44.7076L10.5016 43.7492V42.3027L8.84017 43.2611V44.7076ZM8.84017 71.6088L10.5016 70.6505V69.204L8.84017 70.1623V71.6088ZM8.84017 74.2958L10.5016 73.3375V71.8865L8.84017 72.8449V74.2958ZM8.84017 60.937L10.5016 59.9787V58.5277L8.84017 59.4905V60.937ZM8.84017 63.624L10.5016 62.6612V61.2147L8.84017 62.173V63.624ZM12.284 99.2177L13.9455 98.2593V96.8128L12.284 97.7488V99.2177ZM8.84017 50.0368L10.5016 49.0784V47.6319L8.84017 48.5903V50.0368ZM8.84017 55.3794L10.5016 54.4211V52.9656L8.84017 53.924V55.3794ZM8.84017 109.186L10.5016 108.224V106.777L8.84017 107.735V109.186ZM8.84017 52.7103L10.5016 51.752V50.301L8.84017 51.2594V52.7103ZM8.84017 76.938L10.5016 75.9797V74.5332L8.84017 75.4915V76.938ZM8.84017 101.17L10.5016 100.212V98.7609L8.84017 99.7192V101.17ZM8.84017 98.4832L10.5016 97.5249V96.0918L8.84017 97.0502V98.4832ZM8.84017 95.7962L10.5016 94.8379V93.3869L8.84017 94.3453V95.7962ZM8.84017 106.482L10.5016 105.523V104.072L8.84017 105.031V106.482ZM8.84017 103.795L10.5016 102.836V101.39L8.84017 102.348V103.795ZM8.84017 85.0931L10.5016 84.1347V82.6882L8.84017 83.6466V85.0931ZM8.84017 93.1093L10.5016 92.1509V90.7044L8.84017 91.6628V93.1093ZM8.84017 79.5668L10.5016 78.6085V77.1575L8.84017 78.1158V79.5668ZM8.84017 82.2538L10.5016 81.291V79.8445L8.84017 80.8028V82.2538ZM8.84017 87.78L10.5016 86.8217V85.3707L8.84017 86.3335V87.78ZM8.84017 90.467L10.5016 89.5042V88.0756L8.84017 89.034V90.467ZM8.84017 47.3498L10.5016 46.3914V44.9405L8.84017 45.8988V47.3498ZM12.284 120.655L13.9455 119.693V118.246L12.284 119.204V120.655ZM12.284 117.968L13.9455 117.006V115.572L12.284 116.558V117.968ZM12.284 125.985L13.9455 125.026V123.589L12.284 124.547V125.985ZM12.284 115.295L13.9455 114.336V112.89L12.284 113.871V115.295ZM12.284 123.311L13.9455 122.38V120.933L12.284 121.891V123.311ZM12.284 128.654L13.9455 127.695V126.249L12.284 127.207V128.654ZM8.84017 42.0251L10.5016 41.0667V39.6157L8.84017 40.5741V42.0251ZM12.284 101.851L13.9455 100.884V99.4326L12.284 100.391V101.851ZM12.284 107.194L13.9455 106.258V104.807L12.284 105.765V107.194ZM12.284 110.23L13.9455 109.272V107.825L12.284 108.783V110.23ZM12.284 112.917L13.9455 111.958V110.508L12.284 111.452V112.917ZM12.284 104.533L13.9455 103.571V102.124L12.284 103.082V104.533ZM8.84017 34.0089L10.5016 33.0505V31.5995L8.84017 32.5624V34.0089ZM8.84017 31.3219L10.5016 30.3635V28.917L8.84017 29.8754V31.3219ZM8.84017 36.669L10.5016 35.7062V34.2597L8.84017 35.218V36.669ZM12.284 146.388H13.9455V145.147L12.284 146.115V146.388ZM8.84017 39.356L10.5016 38.3976V36.9511L8.84017 37.9095V39.356ZM12.284 142.21L13.9455 141.251V139.805L12.284 140.763V142.21ZM12.284 136.683L13.9455 135.725V134.274L12.284 135.232V136.683ZM12.284 133.996L13.9455 133.038V131.605L12.284 132.563V133.996ZM12.284 139.343L13.9455 138.381V136.934L12.284 137.892V139.343ZM12.284 131.327L13.9455 130.369V128.918L12.284 129.876V131.327ZM12.284 144.87L13.9455 143.911V142.46L12.284 143.428V144.87ZM45.643 53.0104L47.3045 52.0699V50.6234L45.643 51.5818V53.0104ZM160.637 139.594L162.299 138.636V137.189L160.637 138.148V139.594ZM160.637 118.036L162.299 117.077V115.631L160.637 116.589V118.036ZM160.637 134.252L162.299 133.293V131.847L160.637 132.805V134.252ZM160.637 142.268L162.299 141.309V139.845L160.637 140.803V142.268ZM160.637 144.955L162.299 143.996V142.532L160.637 143.49V144.955ZM160.637 146.406H162.299V145.219L160.637 146.177V146.406ZM157.193 31.5145L158.855 30.5561V29.1051L157.193 30.0635V31.5145ZM160.637 131.6L162.299 130.638V129.191L160.637 130.149V131.6ZM160.637 123.401L162.299 122.438V120.991L160.637 121.932V123.401ZM160.637 120.714L162.299 119.755V118.304L160.637 119.245V120.714ZM160.637 128.73L162.299 127.771V126.32L160.637 127.279V128.73ZM160.637 126.043L162.299 125.084V123.633L160.637 124.619V126.043ZM160.637 136.916L162.299 135.958V134.516L160.637 135.474V136.916ZM157.193 52.8581L158.855 51.8998V50.4533L157.193 51.4116V52.8581ZM157.193 55.5451L158.855 54.5868V53.1358L157.193 54.0941V55.5451ZM157.193 50.2025L158.855 49.2441V47.7931L157.193 48.7515V50.2025ZM157.193 61.0714L158.855 60.113V58.6665L157.193 59.6249V61.0714ZM157.193 58.3844L158.855 57.426V55.975L157.193 56.9334V58.3844ZM157.193 36.8257L158.855 35.8674V34.4164L157.193 35.3748V36.8257ZM157.193 47.511L158.855 46.5527V45.1017L157.193 46.0645V47.511ZM157.193 39.4948L158.855 38.5365V37.09L157.193 38.0483V39.4948ZM157.193 34.1522L158.855 33.1938V31.7473L157.193 32.7057V34.1522ZM157.193 42.1684L158.855 41.21V39.759L157.193 40.7174V42.1684ZM157.193 44.8554L158.855 43.8925V42.446L157.193 43.4044V44.8554ZM160.637 56.4049L162.299 55.4466V53.9956L160.637 54.9585V56.4049ZM160.637 75.1064L162.299 74.148V72.6971L160.637 73.6599V75.1064ZM160.637 72.4194L162.299 71.4611V70.028L160.637 70.9864V72.4194ZM160.637 67.0768L162.299 66.1184V64.6719L160.637 65.6303V67.0768ZM160.637 69.7638L162.299 68.8054V67.3544L160.637 68.3128V69.7638ZM160.637 77.78L162.299 76.8171V75.3572L160.637 76.3156V77.78ZM160.637 80.467L162.299 79.5086V78.0442L160.637 79.0025V80.467ZM160.637 59.0964L162.299 58.1381V56.6871L160.637 57.6454V59.0964ZM160.637 115.384L162.299 114.426V112.975L160.637 113.933V115.384ZM160.637 53.5836L162.299 52.6253V51.1788L160.637 52.1371V53.5836ZM160.637 64.457L162.299 63.4986V62.0118L160.637 62.9702V64.457ZM160.637 61.77L162.299 60.8116V59.3651L160.637 60.3235V61.77ZM160.637 83.3286L162.299 82.3702V80.9237L160.637 81.8821V83.3286ZM157.193 63.7628L158.855 62.8045V61.3535L157.193 62.3119V63.7628ZM160.637 104.704L162.299 103.741V102.272L160.637 103.23V104.704ZM160.637 107.391L162.299 106.432V104.986L160.637 105.944V107.391ZM160.637 102.048L162.299 101.09V99.6386L160.637 100.601V102.048ZM160.637 112.733L162.299 111.775V110.288L160.637 111.246V112.733ZM160.637 110.046L162.299 109.088V107.601L160.637 108.559V110.046ZM160.637 91.3448L162.299 90.3864V88.9355L160.637 89.8938V91.3448ZM160.637 86.0022L162.299 85.0438V83.5928L160.637 84.5512V86.0022ZM160.637 99.361L162.299 98.3981V96.9516L160.637 97.91V99.361ZM160.637 88.6712L162.299 87.7129V86.2664L160.637 87.2247V88.6712ZM160.637 94.0139L162.299 93.0555V91.609L160.637 92.5674V94.0139ZM160.637 96.7009L162.299 95.7425V94.2557L160.637 95.2141V96.7009ZM123.852 61.9312L125.496 60.937V59.4905L123.834 60.4489L123.852 61.9312ZM123.852 21.6756L125.496 20.6769V19.2304L123.834 20.1888L123.852 21.6756ZM157.193 133.575L158.855 132.617V131.17L157.193 132.129V133.575ZM123.852 16.2927L125.496 15.3477V13.8878L123.834 14.8462L123.852 16.2927ZM123.852 26.9824L125.514 26.024V24.5731L123.852 25.5314V26.9824ZM123.852 24.2954L125.514 23.337V21.8861L123.852 22.8489V24.2954ZM157.193 66.3916L158.855 65.4332V63.9867L157.193 64.9451V66.3916ZM123.852 29.6336L125.496 28.6931V27.2466L123.834 28.205L123.852 29.6336ZM157.193 138.905L158.855 137.946V136.5L157.193 137.458V138.905ZM157.193 136.218L158.855 135.259V133.808L157.193 134.767V136.218ZM157.193 141.56L158.855 140.602V139.151L157.193 140.109V141.56ZM157.193 146.361H158.129L158.855 145.944V144.493L157.193 145.452V146.361ZM157.193 144.229L158.855 143.271V141.824L157.193 142.783V144.229ZM123.852 18.9662L125.514 18.0079V16.5569L123.852 17.5197V18.9662ZM123.852 51.2101L125.514 50.2517V48.8052L123.852 49.7636V51.2101ZM123.852 53.8971L125.514 52.9387V51.4878L123.852 52.4461V53.8971ZM123.852 56.5841L125.514 55.6257V54.1792L123.852 55.1376V56.5841ZM123.852 59.2711L125.514 58.3127V56.817L123.852 57.7753V59.2711ZM123.852 48.5858L125.496 47.5916V46.1451L123.834 47.1035L123.852 48.5858ZM123.852 32.3698L125.514 31.4115V29.9605L123.852 30.9188V32.3698ZM123.852 35.0568L125.514 34.0984V32.5893L123.852 33.5476V35.0568ZM123.852 37.7438L125.496 36.7093V35.2583L123.834 36.2167L123.852 37.7438ZM123.852 40.601L125.514 39.6426V38.1916L123.852 39.0828V40.601ZM123.852 45.9436L125.496 44.9046V43.4537L123.834 44.4165L123.852 45.9436ZM123.852 43.2566L125.496 42.2176V40.7711L123.852 41.7698V43.2566ZM123.852 13.6997L125.496 12.6607V11.2142L123.834 12.1726L123.852 13.6997ZM157.193 88.0398L158.855 87.0814V85.6349L157.193 86.5933V88.0398ZM157.193 130.785L158.855 129.827V128.38L157.193 129.339V130.785ZM157.193 90.7134L158.855 89.755V88.304L157.193 89.2624V90.7134ZM157.193 98.7295L158.855 97.7667V96.3202L157.193 97.2786V98.7295ZM157.193 93.3824L158.855 92.4241V90.9776L157.193 91.9359V93.3824ZM157.193 96.0694L158.855 95.1111V93.6601L157.193 94.6184V96.0694ZM157.193 82.527L158.855 81.5686V80.1177L157.193 81.076V82.527ZM160.637 50.9638L162.299 50.001V48.4873L160.637 49.4456V50.9638ZM157.193 71.7745L158.855 70.8117V69.3652L157.193 70.3236V71.7745ZM157.193 77.1172L158.855 76.1543V74.7078L157.193 75.6662V77.1172ZM157.193 79.8042L158.855 78.8458V77.3993L157.193 78.3577V79.8042ZM157.193 74.4615L158.855 73.5032V72.0522L157.193 73.015V74.4615ZM157.193 85.3349L158.855 84.3765V82.9256L157.193 83.866V85.3349ZM157.193 117.391L158.855 116.432V114.986L157.193 115.944V117.391ZM157.193 122.738L158.855 121.775V120.328L157.193 121.287V122.738ZM157.193 120.051L158.855 119.092V117.641L157.193 118.6V120.051ZM157.193 128.067L158.855 127.109V125.658L157.193 126.616V128.067ZM157.193 125.38L158.855 124.422V122.962L157.193 123.925V125.38ZM157.193 104.009L158.855 103.051V101.6L157.193 102.558V104.009ZM157.193 106.696L158.855 105.738V104.292L157.193 105.25V106.696ZM157.193 101.354L158.855 100.395V98.9445L157.193 99.9073V101.354ZM157.193 112.039L158.855 111.081V109.634L157.193 110.593V112.039ZM157.193 109.352L158.855 108.394V106.943L157.193 107.901V109.352ZM157.193 114.695L158.855 113.736V112.285L157.193 113.244V114.695ZM157.193 69.092L158.855 68.1337V66.6827L157.193 67.6411V69.092ZM205.111 112.568L206.773 113.526V112.079L205.111 111.121V112.568ZM205.111 115.255L206.773 116.213V114.766L205.111 113.808V115.255ZM205.111 109.912L206.773 110.87V109.392L205.111 108.434V109.912ZM205.111 107.225L206.773 108.183V106.705L205.111 105.747V107.225ZM205.111 117.91L206.773 118.869V117.409L205.111 116.45V117.91ZM205.111 120.597L206.773 121.556V120.109L205.111 119.151V120.597ZM205.111 104.354L206.773 105.313V103.839L205.111 102.881V104.354ZM205.111 96.3426L206.773 97.301V95.8231L205.111 94.8647V96.3426ZM205.111 93.6556L206.773 94.614V93.1675L205.111 92.2046V93.6556ZM205.111 123.257L206.773 124.216V122.765L205.111 121.806V123.257ZM205.111 98.9982L206.773 99.9566V98.5101L205.111 97.5517V98.9982ZM205.111 101.685L206.773 102.644V101.193L205.111 100.234V101.685ZM201.668 32.531L203.329 33.4894V32.0429L201.668 31.0845V32.531ZM201.668 24.5193L203.329 25.4777V24.0267L201.668 23.0683V24.5193ZM205.111 144.829L206.773 145.788V144.323L205.111 143.365V144.829ZM205.111 142.142L206.773 143.101V141.636L205.111 140.678V142.142ZM201.668 27.175L203.329 28.1333V26.6868L201.668 25.7285V27.175ZM201.668 29.862L203.329 30.8203V29.3693L201.668 28.411V29.862ZM205.111 139.487L206.773 140.445V138.949L205.111 137.991V139.487ZM205.111 128.613L206.773 129.572V128.125L205.111 127.162V128.613ZM205.111 131.3L206.773 132.259V130.808L205.111 129.849V131.3ZM205.111 136.643L206.773 137.601V136.15L205.111 135.192V136.643ZM205.111 133.956L206.773 134.914V133.441L205.111 132.483V133.956ZM205.111 90.9955L206.773 91.9583V90.5073L205.111 89.549V90.9955ZM205.111 125.926L206.773 126.889V125.425L205.111 124.466V125.926ZM205.111 39.8531L206.773 40.8114V39.3515L205.111 38.3887V39.8531ZM205.111 47.8693L206.773 48.8276V47.3767L205.111 46.4183V47.8693ZM205.111 42.5222L206.773 43.485V42.034L205.111 41.0757V42.5222ZM205.111 45.2092L206.773 46.1675V44.721L205.111 43.7627V45.2092ZM205.111 53.409L206.773 54.3673V52.9208L205.111 51.9625V53.409ZM205.111 50.5518L206.773 51.5102V50.0637L205.111 49.1053V50.5518ZM205.111 37.193L206.773 38.1513V36.7048L205.111 35.7465V37.193ZM205.111 29.1813L206.773 30.1396V28.6886L205.111 27.7303V29.1813ZM205.111 56.0825L206.773 57.0409V55.563L205.111 54.6047V56.0825ZM205.111 25.0612V26.5077L206.773 27.4661V26.0196L205.111 25.0612ZM205.111 31.8503L206.773 32.8087V31.3353L205.111 30.377V31.8503ZM205.111 34.5373L206.773 35.4957V34.0447L205.111 33.0863V34.5373ZM205.111 77.4665L206.773 78.4249V76.9783L205.111 76.02V77.4665ZM205.111 74.7795L206.773 75.7379V74.2869L205.111 73.3285V74.7795ZM205.111 88.3219L206.773 89.2803V87.8069L205.111 86.8486V88.3219ZM205.111 80.3057L206.773 81.2641V79.8176L205.111 78.8592V80.3057ZM205.111 58.7471L206.773 59.7055V58.259L205.111 57.3006V58.7471ZM205.111 82.9793L206.773 83.9377V82.4867L205.111 81.5283V82.9793ZM205.111 85.6663L206.773 86.6246V85.1781L205.111 84.2198V85.6663ZM205.111 64.1077L206.773 65.0705V63.5792L205.111 62.6209V64.1077ZM205.111 61.4207L206.773 62.379V60.9281L205.111 59.9697V61.4207ZM205.111 69.4324L206.773 70.3952V68.9442L205.111 67.9859V69.4324ZM205.111 72.1194L206.773 73.0777V71.5954L205.111 70.6371V72.1194ZM205.111 66.7767L206.773 67.7351V66.2886L205.111 65.3258V66.7767ZM201.668 72.8001L203.329 73.7584V72.3119L201.681 71.3267L201.668 72.8001ZM201.668 123.96L203.329 124.919V123.468L201.668 122.509V123.96ZM201.668 126.647L203.329 127.606V126.159L201.668 125.201V126.647ZM201.668 121.305L203.329 122.263V120.817L201.668 119.858V121.305ZM201.668 134.664L203.329 135.622V134.175L201.668 133.217V134.664ZM201.668 131.977L203.329 132.939V131.488L201.668 130.53V131.977ZM201.668 118.622L203.329 119.581V118.13L201.668 117.171V118.622ZM201.668 129.307L203.329 130.266V128.819L201.668 127.857V129.307ZM201.668 107.932L203.329 108.895V107.444L201.668 106.486V107.932ZM201.668 105.245L203.329 106.204V104.735L201.668 103.772V105.245ZM201.668 110.588L203.329 111.546V110.1L201.668 109.142V110.588ZM201.668 115.931L203.329 116.889V115.443L201.668 114.484V115.931ZM201.668 113.244L203.329 114.202V112.751L201.668 111.793V113.244ZM160.637 37.5199L162.299 36.5615V35.1105L160.637 36.0689V37.5199ZM201.681 137.467L203.343 138.425V136.979L201.681 136.02V137.467ZM160.637 34.8463L162.299 33.888V32.4415L160.637 33.3998V34.8463ZM160.637 40.189L162.299 39.2306V37.7841L160.637 38.7425V40.189ZM160.637 45.5316L162.299 44.5732V43.1133L160.637 44.0717V45.5316ZM160.637 42.8446L162.299 41.8862V40.4353L160.637 41.3936V42.8446ZM201.681 102.321L203.343 103.28V101.829L201.681 100.884V102.321ZM201.681 140.123L203.343 141.081V139.63L201.681 138.672V140.123ZM201.681 142.81L203.343 143.768V142.321L201.681 141.363V142.81ZM160.637 29.5082L162.299 28.5498V27.0988L160.637 28.0617V29.5082ZM160.637 32.1952L162.299 31.2368V29.7679L160.637 30.7263V32.1952ZM201.681 145.497L203.253 146.392H203.343V144.995L201.681 144.037V145.497ZM201.681 94.3363L203.343 95.2947V93.8482L201.681 92.8853V94.3363ZM201.681 56.7498L203.343 57.7081V56.2572L201.681 55.2988V56.7498ZM201.681 59.4368L203.343 60.3951V58.9486L201.681 57.9903V59.4368ZM201.681 54.0941L203.343 55.0525V53.606L201.681 52.6476V54.0941ZM201.681 62.1103L203.343 63.0687V61.6177L201.681 60.6594V62.1103ZM201.681 64.7973L203.343 65.7557V64.3092L201.681 63.3508V64.7973ZM201.681 67.4843L203.343 68.4427V66.9962L201.681 65.9527V67.4843ZM201.681 51.4564L203.343 52.4148V50.9638L201.681 50.0054V51.4564ZM201.681 40.5831L203.343 41.5414V40.0949L201.681 39.0828V40.5831ZM201.681 37.8961L203.343 38.8544V37.4079L201.681 36.3958V37.8961ZM201.681 48.5858L203.343 49.5442V48.0395L201.681 47.0811V48.5858ZM201.681 99.7148L203.343 100.673V99.2266L201.681 98.2683V99.7148ZM201.681 45.9123L203.343 46.8706V45.4241L201.681 44.4613V45.9123ZM201.681 43.2253L203.343 44.1881V42.7371L201.681 41.7788V43.2253ZM201.681 91.6851L203.343 92.6435V91.197L201.681 90.2387V91.6851ZM201.681 88.9981L203.343 89.9565V88.5055L201.681 87.5472V88.9981ZM201.681 86.3112L203.343 87.2695V85.823L201.681 84.8647V86.3112ZM201.681 35.1822L203.343 36.1406V34.6896L201.681 33.7088V35.1822ZM201.681 96.983L203.343 97.9458V96.4949L201.681 95.5365V96.983ZM201.681 80.9551L203.343 81.9135V80.467L201.681 79.5086V80.9551ZM201.681 75.4288L203.343 76.3872V74.9362L201.681 73.9779V75.4288ZM160.637 48.1962L162.299 47.2378V45.8003L160.637 46.7631V48.1962ZM201.681 83.6286L203.343 84.587V83.136L201.681 82.1777V83.6286ZM201.681 70.0817L203.343 71.0446V69.5936L201.681 68.6397V70.0817ZM89.5932 103.49L91.2547 102.532V101.081L89.5932 102.039V103.49ZM201.681 78.295L203.343 79.2533V77.8024L201.681 76.844V78.295ZM93.037 34.3358L94.6985 33.3774V31.9175L93.037 32.8759V34.3358ZM116.987 133.069L118.649 132.111V130.66L116.987 131.618V133.069ZM93.0594 37.0094L94.7209 36.051V34.6045L93.0594 35.5629V37.0094ZM93.0594 39.6963L94.7209 38.738V37.2915L93.0594 38.2499V39.6963ZM93.0594 82.63L94.7209 81.6716V80.2206L93.037 81.179L93.0594 82.63ZM93.0594 47.6991L94.7209 46.7407V45.2898L93.037 46.2481L93.0594 47.6991ZM116.987 146.388H117.372L118.649 145.653V144.202L116.987 145.161V146.388ZM116.987 135.738L118.649 134.78V133.333L116.987 134.292V135.738ZM93.037 50.3682L94.6985 49.4053V47.9588L93.037 48.9351V50.3682ZM116.965 138.591L118.626 137.633V136.186L116.987 137.158L116.965 138.591ZM116.965 141.278L118.626 140.32V138.86L116.987 139.818L116.965 141.278ZM123.852 64.5779L125.514 63.6195V62.1685L123.852 63.1269V64.5779ZM93.037 42.352L94.6985 41.3936V39.9427L93.037 40.901V42.352ZM93.037 71.9089L94.6985 70.9505V69.5354L93.037 70.4937V71.9089ZM93.037 74.5959L94.6985 73.6375V72.1865L93.037 73.1494V74.5959ZM93.037 79.9385L94.6985 78.9802V77.5337L93.037 78.492V79.9385ZM93.037 77.2515L94.6985 76.2887V74.8422L93.037 75.805V77.2515ZM93.037 69.2353L94.6985 68.277V66.8484L93.037 67.8067V69.2353ZM93.037 61.2191L94.6985 60.2608V58.8322L93.037 59.7906V61.2191ZM93.037 66.5618L94.6985 65.6034V64.1614L93.037 65.1198V66.5618ZM93.037 55.6929L94.6985 54.7345V53.2836L93.037 54.2419V55.6929ZM93.037 58.3799L94.6985 57.4215V55.975L93.037 56.9334V58.3799ZM93.037 53.0373L94.6985 52.0789V50.6279L93.037 51.5908V53.0373ZM93.037 63.9106L94.6985 62.9523V61.5013L93.037 62.4596V63.9106ZM93.037 45.0211L94.6985 44.0627V42.6162L93.037 43.5611V45.0211ZM116.987 87.4487L118.649 86.4903V85.0304L116.987 85.9887V87.4487ZM116.987 130.409L118.649 129.451V128.004L116.987 128.949V130.409ZM116.987 84.7617L118.649 83.8033V82.3523L116.987 83.3152V84.7617ZM116.987 95.4469L118.649 94.4886V93.0376L116.987 94.0049V95.4469ZM116.987 82.0747L118.649 81.1163V79.6698L116.987 80.6461V82.0747ZM116.987 92.7644L118.649 91.8016V90.3551L116.987 91.3314V92.7644ZM116.987 71.3894L118.649 70.431V68.998L116.987 69.9832V71.3894ZM116.987 98.3175L118.649 97.3592V95.9127L116.987 96.8889V98.3175ZM116.987 68.5322L118.649 67.5739V66.1229L116.987 67.1037V68.5322ZM116.987 79.4056L118.649 78.4472V77.0142L116.987 77.9725V79.4056ZM116.987 76.7186L118.649 75.7602V74.3137L116.987 75.3035V76.7186ZM116.987 74.0316L118.649 73.0732V71.6223L116.987 72.6299V74.0316ZM116.987 90.0595L118.649 89.1012V87.6502L116.987 88.6578V90.0595ZM116.987 119.661L118.649 118.703V117.252L116.987 118.259V119.661ZM116.987 122.348L118.649 121.39V119.943L116.987 120.933V122.348ZM116.987 125.035L118.649 124.077V122.626L116.987 123.607V125.035ZM116.987 100.991L118.649 100.033V98.5997L116.987 99.5401V100.991ZM116.987 127.709L118.649 126.746V125.299L116.987 126.276V127.709ZM116.987 117.019L118.649 116.061V114.632L116.987 115.59V117.019ZM116.987 106.334L118.649 105.375V103.924L116.987 104.914V106.334ZM116.987 103.647L118.649 102.684V101.237L116.987 102.227V103.647ZM116.987 108.989L118.649 108.031V106.616L116.987 107.574V108.989ZM116.987 114.332L118.649 113.374V111.923L116.987 112.917V114.332ZM116.987 111.645L118.649 110.687V109.24L116.987 110.248V111.645ZM93.0594 146.339H94.291L94.7388 146.092V144.641L93.037 145.667L93.0594 146.339ZM89.6156 63.1806L91.2771 62.2223V60.7713L89.6156 61.7297V63.1806ZM89.6156 60.3235L91.2771 59.3651V57.9141L89.6156 58.8725V60.3235ZM89.6156 54.9808L91.2771 54.0225V52.5715L89.6156 53.5299V54.9808ZM89.6156 57.6678L91.2771 56.7095V55.2943L89.6156 56.2527V57.6678ZM89.6156 65.8676L91.2771 64.9093V63.4628L89.6156 64.4211V65.8676ZM89.6156 38.9664L91.2771 38.008V36.5615L89.6156 37.5199V38.9664ZM89.6156 44.309L91.2771 43.3507V41.9042L89.6156 42.8625V44.309ZM89.6156 71.2148L91.2771 70.2519V68.8054L89.6156 69.7638V71.2148ZM89.6156 41.6578L91.2771 40.6995V39.2619L89.6156 40.2203V41.6578ZM89.6156 49.674L91.2771 48.7112V47.2781L89.6156 48.2365V49.674ZM89.6156 52.361L91.2771 51.4027V49.9562L89.6156 50.9145V52.361ZM89.6156 47.0184L91.2771 46.06V44.6091L89.6156 45.5719V47.0184ZM89.6156 68.577L91.2771 67.6187V66.1677L89.6156 67.126V68.577ZM89.6156 95.4783L91.2771 94.5199V93.0689L89.6156 94.0273V95.4783ZM89.6156 92.7913L91.2771 91.8329V90.3864L89.6156 91.3448V92.7913ZM89.6156 98.1384L91.2771 97.1756V95.7291L89.6156 96.6874V98.1384ZM89.6156 90.1222L91.2771 89.1638V87.7129L89.6156 88.6712V90.1222ZM89.6156 100.807L91.2771 99.8491V98.3981L89.6156 99.361V100.807ZM89.6156 79.2489L91.2771 78.2905V76.844L89.6156 77.8024V79.2489ZM89.6156 76.5619L91.2771 75.599V74.1525L89.6156 75.1109V76.5619ZM89.6156 73.8749L91.2771 72.9165V71.5058L89.6156 72.4687V73.8749ZM89.6156 81.8911L91.2771 80.9327V79.522L89.6156 80.4804V81.8911ZM89.6156 87.2337L91.2771 86.2753V84.8244L89.6156 85.7827V87.2337ZM89.6156 84.5467L91.2771 83.5883V82.1418L89.6156 83.1002V84.5467ZM116.987 65.8811L118.649 64.9182V63.4717L116.987 64.4301V65.8811ZM93.0594 109.513L94.7209 108.555V107.104L93.037 108.049L93.0594 109.513ZM93.0594 117.525L94.7209 116.567V115.12L93.0594 116.079V117.525ZM93.0594 101.497L94.7209 100.539V99.0923L93.0594 100.055V101.497ZM93.0594 104.184L94.7209 103.221V101.779L93.0594 102.738V104.184ZM93.0594 112.196L94.7209 111.237V109.791L93.037 110.736L93.0594 112.196ZM93.0594 114.883L94.7209 113.924V112.474L93.037 113.423L93.0594 114.883ZM93.0594 106.867L94.7209 105.908V104.462L93.0594 105.42V106.867ZM93.0594 98.8504L94.7209 97.8921V96.4053L93.0594 97.3637V98.8504ZM93.0594 88.1652L94.7209 87.2068V85.7603L93.0594 86.7187V88.1652ZM89.6156 36.3555L91.2771 35.3972V33.9462L89.6156 34.9045V36.3555ZM93.0594 93.5078L94.7209 92.5495V91.0761L93.0594 92.0344V93.5078ZM93.0594 96.1948L94.7209 95.2365V93.7855L93.0594 94.7438V96.1948ZM93.0594 90.8522L94.7209 89.8938V88.4428L93.0594 89.4012V90.8522ZM93.0594 139.124L94.7209 138.166V136.719L93.0594 137.677V139.124ZM93.0594 141.811L94.7209 140.853V139.402L93.037 140.293L93.0594 141.811ZM93.0594 85.3349L94.7209 84.3765V82.93L93.0594 83.8884V85.3349ZM93.0594 120.266L94.7209 119.307V117.856L93.0594 118.815V120.266ZM93.0594 144.493L94.7209 143.535V142.089L93.037 142.98L93.0594 144.493ZM93.0594 136.482L94.7209 135.523V134.023L93.0594 134.982V136.482ZM93.0594 125.608L94.7209 124.65V123.199L93.0594 124.162V125.608ZM93.0594 122.921L94.7209 121.959V120.512L93.0594 121.47V122.921ZM93.0594 128.264L94.7209 127.306V125.855L93.0594 126.813V128.264ZM93.0594 131.121L94.7209 130.158V128.649L93.0594 129.608V131.121ZM93.0594 133.808L94.7209 132.85V131.336L93.0594 132.295V133.808ZM116.987 143.938L118.649 142.98V141.533L116.987 142.492V143.938ZM120.431 23.6281L122.092 22.6698V21.2233L120.431 22.1816V23.6281ZM120.431 20.9411L122.092 19.9783V18.5318L120.431 19.4902V20.9411ZM120.431 18.2542L122.092 17.2958V15.8762L120.431 16.839V18.2542ZM120.431 28.9394L122.092 27.9811V26.5346L120.431 27.4929V28.9394ZM120.431 31.6264L122.092 30.6681V29.2305L120.431 30.1889V31.6264ZM123.875 131.739L125.496 130.799V129.348L123.834 130.311L123.875 131.739ZM120.431 26.2838L122.092 25.3254V23.8744L120.431 24.8328V26.2838ZM123.875 145.282L125.496 144.323V142.877L123.852 143.875L123.875 145.282ZM123.875 137.27L125.536 136.312V134.861L123.875 135.819V137.27ZM123.875 134.583L125.536 133.625V132.174L123.875 133.136V134.583ZM123.875 139.926L125.536 138.967V137.521L123.852 138.501L123.875 139.926ZM123.875 142.613L125.536 141.654V140.203L123.852 141.188L123.875 142.613ZM120.409 15.6119L122.07 14.6536V13.2071L120.409 14.1655V15.6119ZM120.409 53.203L122.07 52.2446V50.7936L120.409 51.752V53.203ZM120.409 55.8899L122.07 54.9316V53.4851L120.409 54.4435V55.8899ZM120.409 50.5473L122.07 49.589V48.1425L120.409 49.1008V50.5473ZM120.409 61.2326L122.07 60.2742V58.8277L120.409 59.7861V61.2326ZM120.409 58.5456L122.07 57.5872V56.1363L120.409 57.0946V58.5456ZM120.409 47.8603L122.07 46.8975V45.451L120.409 46.4093V47.8603ZM120.409 39.6605L122.07 38.6977V37.2512L120.409 38.2095V39.6605ZM120.409 36.9735L122.07 36.0152V34.5642L120.409 35.5226V36.9735ZM120.409 34.2865L122.07 33.3282V31.9175L120.409 32.8759V34.2865ZM120.409 45.1599L122.07 44.2015V42.7506L120.409 43.7134V45.1599ZM120.409 42.4729L122.07 41.5145V40.068L120.409 41.0264V42.4729ZM123.852 67.3858L125.514 66.4274V64.9765L123.852 65.9348V67.3858ZM123.852 86.0872L125.514 85.1289V83.6779L123.852 84.6363V86.0872ZM123.852 83.4003L125.514 82.4419V80.9954L123.852 81.9538V83.4003ZM123.852 88.7429L125.514 87.7845V86.338L123.852 87.2964V88.7429ZM123.852 91.4299L125.514 90.4715V89.0609L123.852 90.0192V91.4299ZM123.852 80.7446L125.496 79.8355V78.3845L123.834 79.3429L123.852 80.7446ZM123.852 94.3139L125.514 93.3556V91.9091L123.852 92.8674V94.3139ZM120.409 63.8614L122.07 62.903V61.4744L120.409 62.4328V63.8614ZM123.852 97.0009L125.514 96.0425V94.614L123.852 95.5723V97.0009ZM123.852 70.0683L125.514 69.1099V67.6634L123.852 68.6397V70.0683ZM123.852 78.0845L125.496 77.1485V75.702L123.834 76.6604L123.852 78.0845ZM123.852 72.7419L125.514 71.7835V70.3325L123.852 71.3267V72.7419ZM123.852 75.4288L125.496 74.4615V73.015L123.852 74.0137V75.4288ZM123.852 121.058L125.514 120.1V118.663L123.852 119.621V121.058ZM123.852 118.371L125.496 117.453V116.007L123.834 116.965L123.852 118.371ZM123.852 129.061L125.514 128.098V126.679L123.852 127.637V129.061ZM123.852 115.702L125.496 114.766V113.315L123.834 114.274L123.852 115.702ZM123.852 126.388L125.514 125.429V123.978L123.852 124.937V126.388ZM123.852 123.701L125.496 122.783V121.336L123.834 122.294L123.852 123.701ZM123.852 99.6566L125.514 98.6982V97.301L123.852 98.2593V99.6566ZM123.852 104.999L125.514 104.041V102.594L123.852 103.553V104.999ZM116.987 63.2075L118.649 62.2492V60.7982L116.987 61.7565V63.2075ZM123.875 113.056L125.496 112.079V110.633L123.852 111.632L123.875 113.056ZM123.875 107.713L125.536 106.755V105.304L123.852 106.258L123.875 107.713ZM123.875 110.4L125.536 109.437V107.991L123.852 108.945L123.875 110.4ZM123.875 102.384L125.536 101.425V99.9745L123.875 100.933V102.384ZM116.987 22.9609L118.649 22.0025V20.5426L116.987 21.5009V22.9609ZM116.987 20.2739L118.649 19.311V17.8645L116.987 18.8274V20.2739ZM120.431 146.383H121.994L122.092 146.33V144.879L120.431 145.837V146.383ZM116.987 17.5869L118.649 16.6285V15.1955L116.987 16.1583V17.5869ZM116.987 25.6031L118.649 24.6447V23.1937L116.987 24.17V25.6031ZM116.987 28.2901L118.649 27.3317V25.8852L116.987 26.8436V28.2901ZM120.431 131.076L122.092 130.118V128.649L120.431 129.612V131.076ZM120.431 133.763L122.092 132.805V131.336L120.431 132.295V133.763ZM120.431 136.621L122.092 135.662V134.211L120.431 135.17V136.621ZM120.431 144.632L122.092 143.674V142.227L120.431 143.186V144.632ZM120.431 141.945L122.092 140.987V139.536L120.431 140.494V141.945ZM116.987 30.9636L118.649 30.0053V28.5543L116.987 29.5126V30.9636ZM120.431 139.276L122.092 138.318V136.871L120.431 137.83V139.276ZM116.987 55.2048L118.649 54.2464V52.7865L116.987 53.7448V55.2048ZM116.987 52.5178L118.649 51.5594V50.1084L116.987 51.0713V52.5178ZM116.987 57.8604L118.649 56.902V55.4511L116.987 56.4139V57.8604ZM116.987 60.5474L118.649 59.589V58.1425L116.987 59.0875V60.5474ZM116.987 33.6461L118.649 32.6878V31.2413L116.987 32.1862V33.6461ZM116.987 49.8308L118.649 48.8724V47.4259L116.987 48.4022V49.8308ZM116.987 47.1438L118.649 46.1854V44.7703L116.987 45.7286V47.1438ZM116.987 36.2704L118.649 35.3121V33.8611L116.987 34.8553V36.2704ZM116.987 38.9574L118.649 37.9946V36.5481L116.987 37.5288V38.9574ZM116.987 41.6444L118.649 40.6861V39.2351L116.987 40.2024V41.6444ZM116.987 44.5016L118.649 43.5432V42.0922L116.987 43.0596V44.5016ZM120.431 80.0997L122.092 79.1414V77.6904L120.431 78.6488V80.0997ZM120.431 85.4424L122.092 84.484V83.033L120.431 83.9914V85.4424ZM120.431 82.7554L122.092 81.797V80.3505L120.431 81.3089V82.7554ZM120.431 128.389L122.092 127.427V125.98L120.431 126.938V128.389ZM120.431 90.7716L122.092 89.8132V88.3622L120.431 89.3206V90.7716ZM120.431 93.4586L122.092 92.4957V91.0492L120.431 92.0076V93.4586ZM120.431 72.0835L122.092 71.1252V69.6742L120.431 70.6371V72.0835ZM120.431 69.3966L122.092 68.4337V66.9872L120.431 67.9456V69.3966ZM120.431 96.3247L122.092 95.3663V93.9154L120.431 94.8737V96.3247ZM120.431 66.5394L122.092 65.5765V64.1614L120.431 65.1198V66.5394ZM120.431 77.4083L122.092 76.4499V75.0034L120.431 75.9618V77.4083ZM120.431 74.7213L122.092 73.7629V72.3119L120.431 73.2703V74.7213ZM120.431 88.0756L122.092 87.1173V85.6708L120.431 86.6291V88.0756ZM120.431 115.008L122.092 114.05V112.599L120.431 113.557V115.008ZM120.431 117.695L122.092 116.737V115.29L120.431 116.249V117.695ZM120.431 120.382L122.092 119.424V117.973L120.431 118.931V120.382ZM120.431 123.069L122.092 122.111V120.664L120.431 121.623V123.069ZM120.431 125.756L122.092 124.798V123.347L120.431 124.305V125.756ZM120.431 104.386L122.092 103.423V101.976L120.431 102.935V104.386ZM120.431 99.0385L122.092 98.0802V96.6337L120.431 97.592V99.0385ZM120.431 112.397L122.092 111.439V109.993L120.431 110.951V112.397ZM120.431 101.712L122.092 100.754V99.3028L120.431 100.261V101.712ZM120.431 107.055L122.092 106.096V104.645L120.431 105.608V107.055ZM120.431 109.742L122.092 108.783V107.332L120.431 108.291V109.742Z" fill="#37B7FE" fill-opacity="0.22"/>
</svg>
