<svg width="20" height="40" viewBox="0 0 20 40" fill="none" xmlns="http://www.w3.org/2000/svg">
<mask id="mask0_365_3253" style="mask-type:luminance" maskUnits="userSpaceOnUse" x="0" y="0" width="20" height="40">
<path d="M0 0.097168H20V39.9032H0V0.097168Z" fill="white"/>
</mask>
<g mask="url(#mask0_365_3253)">
<path d="M18.8192 32.5988C18.8192 32.7832 18.6675 32.9353 18.4817 32.9353H1.52028C1.33499 32.9353 1.18282 32.7832 1.18282 32.5988V7.42169C1.18282 7.2364 1.33499 7.08471 1.52028 7.08471H18.4817C18.6675 7.08471 18.8192 7.2364 18.8192 7.42169V32.5988ZM10.001 38.568C8.81771 38.568 7.85429 37.6065 7.85429 36.4256C7.85429 35.2448 8.81771 34.2842 10.001 34.2842C11.1847 34.2842 12.1477 35.2448 12.1477 36.4256C12.1477 37.6065 11.1847 38.568 10.001 38.568ZM7.63827 2.90988C7.63827 2.72459 7.79044 2.5729 7.97574 2.5729H12.0262C12.2115 2.5729 12.3637 2.72459 12.3637 2.90988V3.35919C12.3637 3.544 12.2115 3.69569 12.0262 3.69569H7.97574C7.79044 3.69569 7.63827 3.544 7.63827 3.35919V2.90988ZM16.9629 0.138184H3.0391C1.36859 0.138184 0.00146484 1.50243 0.00146484 3.16958V36.85C0.00146484 38.5181 1.36859 39.8814 3.0391 39.8814H16.9629C18.6339 39.8814 20.0005 38.5181 20.0005 36.85V3.16958C20.0005 1.50243 18.6339 0.138184 16.9629 0.138184Z" fill="#100F0D"/>
</g>
</svg>
