<svg width="24" height="24" viewBox="0 0 24 24" fill="none" xmlns="http://www.w3.org/2000/svg">
<path d="M12.8248 0.675568L23.3248 11.1756C24.0598 11.9106 23.5395 13.1671 22.5 13.1671H21.3333V20.1671C21.3333 21.0953 20.9646 21.9856 20.3082 22.6419C19.6518 23.2983 18.7616 23.6671 17.8333 23.6671H16.6667V15.5004C16.6667 14.6077 16.3256 13.7486 15.7132 13.0991C15.1007 12.4496 14.2632 12.0586 13.372 12.0062L13.1667 12.0004H10.8333C9.90508 12.0004 9.01484 12.3692 8.35846 13.0255C7.70208 13.6819 7.33333 14.5721 7.33333 15.5004V23.6671H6.16667C5.23841 23.6671 4.34817 23.2983 3.69179 22.6419C3.03542 21.9856 2.66667 21.0953 2.66667 20.1671V13.1671H1.5C0.461668 13.1671 -0.0598325 11.9106 0.675168 11.1756L11.1752 0.675568C11.394 0.456852 11.6906 0.333984 12 0.333984C12.3094 0.333984 12.6061 0.456852 12.8248 0.675568ZM13.1667 14.3337C13.4761 14.3337 13.7728 14.4567 13.9916 14.6754C14.2104 14.8942 14.3333 15.191 14.3333 15.5004V23.6671H9.66667V15.5004C9.66671 15.2146 9.77162 14.9388 9.9615 14.7253C10.1514 14.5118 10.413 14.3753 10.6968 14.3419L10.8333 14.3337H13.1667Z" fill="#034175"/>
</svg>
