<svg width="29" height="28" viewBox="0 0 29 28" fill="none" xmlns="http://www.w3.org/2000/svg">
<rect x="7" y="4" width="16" height="20" fill="#034175"/>
<path d="M5.20831 24.5H24.4583H5.20831ZM6.08331 3.5H23.5833H6.08331ZM6.95831 3.5V24.5V3.5ZM22.7083 3.5V24.5V3.5ZM11.3333 7.875H13.0833H11.3333ZM11.3333 11.375H13.0833H11.3333ZM11.3333 14.875H13.0833H11.3333ZM16.5833 7.875H18.3333H16.5833ZM16.5833 11.375H18.3333H16.5833ZM16.5833 14.875H18.3333H16.5833ZM11.3333 24.5V20.5625C11.3333 19.838 11.9213 19.25 12.6458 19.25H17.0208C17.7453 19.25 18.3333 19.838 18.3333 20.5625V24.5" fill="#034175"/>
<path d="M5.20831 24.5H24.4583M6.08331 3.5H23.5833M6.95831 3.5V24.5M22.7083 3.5V24.5M11.3333 7.875H13.0833M11.3333 11.375H13.0833M11.3333 14.875H13.0833M16.5833 7.875H18.3333M16.5833 11.375H18.3333M16.5833 14.875H18.3333M11.3333 24.5V20.5625C11.3333 19.838 11.9213 19.25 12.6458 19.25H17.0208C17.7453 19.25 18.3333 19.838 18.3333 20.5625V24.5" stroke="white" stroke-width="1.25" stroke-linecap="round" stroke-linejoin="round"/>
</svg>
