<svg width="28" height="25" viewBox="0 0 28 25" fill="none" xmlns="http://www.w3.org/2000/svg">
<path d="M14.3152 3.19922C8.28501 3.19922 3.37891 7.50889 3.37891 12.806C3.37891 18.1032 8.28501 22.4129 14.3152 22.4129C20.3455 22.4129 25.2516 18.1032 25.2516 12.806C25.2516 7.50889 20.3455 3.19922 14.3152 3.19922ZM15.9978 17.24H12.6327C12.4096 17.24 12.1956 17.1621 12.0379 17.0235C11.8801 16.8849 11.7915 16.697 11.7915 16.501C11.7915 16.305 11.8801 16.117 12.0379 15.9784C12.1956 15.8398 12.4096 15.762 12.6327 15.762H15.9978C16.2209 15.762 16.4349 15.8398 16.5926 15.9784C16.7504 16.117 16.839 16.305 16.839 16.501C16.839 16.697 16.7504 16.8849 16.5926 17.0235C16.4349 17.1621 16.2209 17.24 15.9978 17.24ZM18.5215 14.284H10.109C9.88585 14.284 9.67187 14.2062 9.5141 14.0676C9.35634 13.929 9.2677 13.741 9.2677 13.545C9.2677 13.349 9.35634 13.1611 9.5141 13.0225C9.67187 12.8839 9.88585 12.806 10.109 12.806H18.5215C18.7446 12.806 18.9586 12.8839 19.1164 13.0225C19.2742 13.1611 19.3628 13.349 19.3628 13.545C19.3628 13.741 19.2742 13.929 19.1164 14.0676C18.9586 14.2062 18.7446 14.284 18.5215 14.284ZM20.204 11.3281H8.42645C8.20333 11.3281 7.98936 11.2502 7.83159 11.1116C7.67382 10.973 7.58519 10.7851 7.58519 10.5891C7.58519 10.3931 7.67382 10.2051 7.83159 10.0665C7.98936 9.92795 8.20333 9.8501 8.42645 9.8501H20.204C20.4272 9.8501 20.6411 9.92795 20.7989 10.0665C20.9567 10.2051 21.0453 10.3931 21.0453 10.5891C21.0453 10.7851 20.9567 10.973 20.7989 11.1116C20.6411 11.2502 20.4272 11.3281 20.204 11.3281Z" fill="white"/>
</svg>
