<svg width="29" height="28" viewBox="0 0 29 28" fill="none" xmlns="http://www.w3.org/2000/svg">
<g clip-path="url(#clip0_372_767)">
<path d="M16.8333 4.66699H23.8333V11.667H16.8333V4.66699Z" stroke="black" stroke-width="1.25" stroke-linecap="round" stroke-linejoin="round"/>
<path d="M5.16667 16.333H12.1667V23.333H5.16667V16.333Z" stroke="black" stroke-width="1.25" stroke-linecap="round" stroke-linejoin="round"/>
<path d="M16.8333 19.833C16.8333 20.7613 17.2021 21.6515 17.8585 22.3079C18.5148 22.9643 19.4051 23.333 20.3333 23.333C21.2616 23.333 22.1518 22.9643 22.8082 22.3079C23.4646 21.6515 23.8333 20.7613 23.8333 19.833C23.8333 18.9048 23.4646 18.0145 22.8082 17.3581C22.1518 16.7018 21.2616 16.333 20.3333 16.333C19.4051 16.333 18.5148 16.7018 17.8585 17.3581C17.2021 18.0145 16.8333 18.9048 16.8333 19.833Z" stroke="black" stroke-width="1.25" stroke-linecap="round" stroke-linejoin="round"/>
<path d="M5.16667 8.16699C5.16667 8.62662 5.2572 9.08174 5.43309 9.50638C5.60899 9.93102 5.86679 10.3169 6.1918 10.6419C6.5168 10.9669 6.90264 11.2247 7.32728 11.4006C7.75192 11.5765 8.20705 11.667 8.66667 11.667C9.1263 11.667 9.58142 11.5765 10.0061 11.4006C10.4307 11.2247 10.8165 10.9669 11.1415 10.6419C11.4666 10.3169 11.7244 9.93102 11.9003 9.50638C12.0761 9.08174 12.1667 8.62662 12.1667 8.16699C12.1667 7.70737 12.0761 7.25224 11.9003 6.8276C11.7244 6.40296 11.4666 6.01712 11.1415 5.69212C10.8165 5.36711 10.4307 5.1093 10.0061 4.93341C9.58142 4.75752 9.1263 4.66699 8.66667 4.66699C8.20705 4.66699 7.75192 4.75752 7.32728 4.93341C6.90264 5.1093 6.5168 5.36711 6.1918 5.69212C5.86679 6.01712 5.60899 6.40296 5.43309 6.8276C5.2572 7.25224 5.16667 7.70737 5.16667 8.16699Z" stroke="black" stroke-width="1.25" stroke-linecap="round" stroke-linejoin="round"/>
</g>
<defs>
<clipPath id="clip0_372_767">
<rect width="28" height="28" fill="white" transform="translate(0.5)"/>
</clipPath>
</defs>
</svg>
