<svg width="28" height="28" viewBox="0 0 28 28" fill="none" xmlns="http://www.w3.org/2000/svg">
<g clip-path="url(#clip0_381_979)">
<path d="M14.0002 2.95898C14.1437 2.95905 14.2815 3.01579 14.3831 3.11719L24.8831 13.6172C25.2243 13.9585 24.9827 14.5418 24.5002 14.542H22.7082V22.167C22.7082 22.9295 22.4056 23.661 21.8665 24.2002C21.3273 24.7394 20.5957 25.042 19.8332 25.042H19.2913V17.5C19.2912 16.448 18.8899 15.4353 18.1682 14.6699C17.4464 13.9044 16.4588 13.4436 15.4084 13.3818H15.3899L15.1848 13.376L15.176 13.375H12.8332C11.7393 13.375 10.6898 13.8104 9.91626 14.584C9.14297 15.3574 8.70835 16.4063 8.70825 17.5V25.042H8.16626C7.40402 25.0419 6.67308 24.7391 6.13403 24.2002C5.59486 23.661 5.29126 22.9295 5.29126 22.167V14.542H3.50024C3.01817 14.542 2.77655 13.9581 3.11743 13.6172L13.6174 3.11719C13.719 3.01588 13.8568 2.95898 14.0002 2.95898ZM15.1663 16.959C15.3099 16.959 15.4485 17.0156 15.55 17.1172C15.6515 17.2187 15.7081 17.3565 15.7082 17.5V25.042H12.2913V17.5C12.2914 17.3675 12.3409 17.2396 12.429 17.1406C12.5155 17.0434 12.634 16.9808 12.7629 16.9639L12.8538 16.959H15.1663Z" stroke="black" stroke-width="1.25"/>
</g>
<defs>
<clipPath id="clip0_381_979">
<rect width="28" height="28" fill="white"/>
</clipPath>
</defs>
</svg>
