<svg width="29" height="28" viewBox="0 0 29 28" fill="none" xmlns="http://www.w3.org/2000/svg">
<g clip-path="url(#clip0_372_776)">
<path d="M9.83334 8.16667C9.83334 9.40434 10.325 10.5913 11.2002 11.4665C12.0753 12.3417 13.2623 12.8333 14.5 12.8333C15.7377 12.8333 16.9247 12.3417 17.7998 11.4665C18.675 10.5913 19.1667 9.40434 19.1667 8.16667C19.1667 6.92899 18.675 5.742 17.7998 4.86683C16.9247 3.99167 15.7377 3.5 14.5 3.5C13.2623 3.5 12.0753 3.99167 11.2002 4.86683C10.325 5.742 9.83334 6.92899 9.83334 8.16667Z" stroke="black" stroke-width="1.25" stroke-linecap="round" stroke-linejoin="round"/>
<path d="M7.5 24.5V22.1667C7.5 20.929 7.99167 19.742 8.86683 18.8668C9.742 17.9917 10.929 17.5 12.1667 17.5H16.8333C18.071 17.5 19.258 17.9917 20.1332 18.8668C21.0083 19.742 21.5 20.929 21.5 22.1667V24.5" stroke="black" stroke-width="1.25" stroke-linecap="round" stroke-linejoin="round"/>
</g>
<defs>
<clipPath id="clip0_372_776">
<rect width="28" height="28" fill="white" transform="translate(0.5)"/>
</clipPath>
</defs>
</svg>
