<svg width="29" height="28" viewBox="0 0 29 28" fill="none" xmlns="http://www.w3.org/2000/svg">
<g clip-path="url(#clip0_435_1368)">
<path d="M12.5 15.1668C12.5 15.7857 12.7458 16.3792 13.1834 16.8167C13.621 17.2543 14.2145 17.5002 14.8333 17.5002C15.4522 17.5002 16.0457 17.2543 16.4832 16.8167C16.9208 16.3792 17.1667 15.7857 17.1667 15.1668C17.1667 14.548 16.9208 13.9545 16.4832 13.5169C16.0457 13.0793 15.4522 12.8335 14.8333 12.8335C14.2145 12.8335 13.621 13.0793 13.1834 13.5169C12.7458 13.9545 12.5 14.548 12.5 15.1668Z" stroke="black" stroke-width="1.25" stroke-linecap="round" stroke-linejoin="round"/>
<path d="M10.166 24.5V23.3333C10.166 22.7145 10.4118 22.121 10.8494 21.6834C11.287 21.2458 11.8805 21 12.4993 21H17.166C17.7849 21 18.3783 21.2458 18.8159 21.6834C19.2535 22.121 19.4993 22.7145 19.4993 23.3333V24.5" stroke="black" stroke-width="1.25" stroke-linecap="round" stroke-linejoin="round"/>
<path d="M18.333 5.83333C18.333 6.45217 18.5788 7.04566 19.0164 7.48325C19.454 7.92083 20.0475 8.16667 20.6663 8.16667C21.2852 8.16667 21.8787 7.92083 22.3163 7.48325C22.7538 7.04566 22.9997 6.45217 22.9997 5.83333C22.9997 5.21449 22.7538 4.621 22.3163 4.18342C21.8787 3.74583 21.2852 3.5 20.6663 3.5C20.0475 3.5 19.454 3.74583 19.0164 4.18342C18.5788 4.621 18.333 5.21449 18.333 5.83333Z" stroke="black" stroke-width="1.25" stroke-linecap="round" stroke-linejoin="round"/>
<path d="M20.666 11.6665H22.9993C23.6182 11.6665 24.2117 11.9123 24.6493 12.3499C25.0868 12.7875 25.3327 13.381 25.3327 13.9998V15.1665" stroke="black" stroke-width="1.25" stroke-linecap="round" stroke-linejoin="round"/>
<path d="M6.66602 5.83333C6.66602 6.45217 6.91185 7.04566 7.34943 7.48325C7.78702 7.92083 8.38051 8.16667 8.99935 8.16667C9.61819 8.16667 10.2117 7.92083 10.6493 7.48325C11.0868 7.04566 11.3327 6.45217 11.3327 5.83333C11.3327 5.21449 11.0868 4.621 10.6493 4.18342C10.2117 3.74583 9.61819 3.5 8.99935 3.5C8.38051 3.5 7.78702 3.74583 7.34943 4.18342C6.91185 4.621 6.66602 5.21449 6.66602 5.83333Z" stroke="black" stroke-width="1.25" stroke-linecap="round" stroke-linejoin="round"/>
<path d="M4.33301 15.1665V13.9998C4.33301 13.381 4.57884 12.7875 5.01643 12.3499C5.45401 11.9123 6.0475 11.6665 6.66634 11.6665H8.99967" stroke="black" stroke-width="1.25" stroke-linecap="round" stroke-linejoin="round"/>
</g>
<defs>
<clipPath id="clip0_435_1368">
<rect width="28" height="28" fill="white" transform="translate(0.833008)"/>
</clipPath>
</defs>
</svg>
