<svg width="28" height="28" viewBox="0 0 28 28" fill="none" xmlns="http://www.w3.org/2000/svg">
<rect width="28" height="28" rx="14" fill="#FF3467"/>
<g clip-path="url(#clip0_566_2205)">
<path d="M8.75 8H11.75L13.25 11.75L11.375 12.875C12.1782 14.5036 13.4964 15.8218 15.125 16.625L16.25 14.75L20 16.25V19.25C20 19.6478 19.842 20.0294 19.5607 20.3107C19.2794 20.592 18.8978 20.75 18.5 20.75C15.5744 20.5722 12.8151 19.3299 10.7426 17.2574C8.67013 15.1849 7.42779 12.4256 7.25 9.5C7.25 9.10218 7.40804 8.72064 7.68934 8.43934C7.97064 8.15804 8.35218 8 8.75 8Z" stroke="white" stroke-width="1.25" stroke-linecap="round" stroke-linejoin="round"/>
</g>
<defs>
<clipPath id="clip0_566_2205">
<rect width="18" height="18" fill="white" transform="translate(5 5)"/>
</clipPath>
</defs>
</svg>
