<svg width="15" height="16" viewBox="0 0 15 16" fill="none" xmlns="http://www.w3.org/2000/svg">
<path d="M1.8714 6.75354C1.8714 7.32661 1.98427 7.89408 2.20358 8.42353C2.42289 8.95298 2.74433 9.43405 3.14955 9.83928C3.55478 10.2445 4.03585 10.5659 4.5653 10.7853C5.09475 11.0046 5.66222 11.1174 6.23529 11.1174C6.80836 11.1174 7.37583 11.0046 7.90528 10.7853C8.43473 10.5659 8.9158 10.2445 9.32103 9.83928C9.72625 9.43405 10.0477 8.95298 10.267 8.42353C10.4863 7.89408 10.5992 7.32661 10.5992 6.75354C10.5992 6.18047 10.4863 5.613 10.267 5.08355C10.0477 4.5541 9.72625 4.07303 9.32103 3.6678C8.9158 3.26258 8.43473 2.94114 7.90528 2.72183C7.37583 2.50252 6.80836 2.38965 6.23529 2.38965C5.66222 2.38965 5.09475 2.50252 4.5653 2.72183C4.03585 2.94114 3.55478 3.26258 3.14955 3.6678C2.74433 4.07303 2.42289 4.5541 2.20358 5.08355C1.98427 5.613 1.8714 6.18047 1.8714 6.75354Z" stroke="black" stroke-width="0.93512" stroke-linecap="round" stroke-linejoin="round"/>
<path d="M13.0928 13.6116L9.35236 9.87109" stroke="black" stroke-width="0.93512" stroke-linecap="round" stroke-linejoin="round"/>
</svg>
