<svg width="430" height="569" viewBox="0 0 430 569" fill="none" xmlns="http://www.w3.org/2000/svg">
<rect x="-282" y="-437" width="1006" height="1006" rx="503" fill="#37B7FE" fill-opacity="0.05"/>
<g clip-path="url(#clip0_353_2339)">
<rect x="-141" y="-203" width="724.32" height="724.32" rx="362.16" fill="#37B7FE" fill-opacity="0.1"/>
<path d="M449 456.749H-7V456.977H449V456.749Z" fill="#37B7FE"/>
<path d="M209.144 416.073H33.0459C31.6664 416.071 30.3442 415.521 29.3696 414.545C28.3949 413.569 27.8475 412.246 27.8475 410.866V163.322C27.8595 161.95 28.4122 160.639 29.3856 159.672C30.3589 158.706 31.6743 158.162 33.0459 158.16H209.144C210.525 158.16 211.85 158.709 212.826 159.685C213.803 160.662 214.352 161.986 214.352 163.367V410.866C214.352 412.247 213.803 413.572 212.826 414.548C211.85 415.525 210.525 416.073 209.144 416.073ZM33.0459 158.342C31.7269 158.345 30.4626 158.87 29.5308 159.804C28.5989 160.738 28.0755 162.003 28.0755 163.322V410.866C28.0755 412.185 28.5989 413.45 29.5308 414.384C30.4626 415.317 31.7269 415.843 33.0459 415.845H209.144C210.464 415.843 211.729 415.318 212.662 414.384C213.596 413.451 214.121 412.186 214.124 410.866V163.322C214.121 162.002 213.596 160.737 212.662 159.803C211.729 158.87 210.464 158.345 209.144 158.342H33.0459Z" fill="#37B7FE"/>
<path d="M406.419 416.073H230.312C228.931 416.071 227.608 415.522 226.632 414.546C225.656 413.57 225.106 412.246 225.104 410.866V163.322C225.118 161.949 225.673 160.638 226.648 159.672C227.623 158.705 228.939 158.162 230.312 158.16H406.419C407.789 158.165 409.102 158.709 410.073 159.675C411.045 160.642 411.596 161.952 411.608 163.322V410.866C411.608 412.244 411.062 413.566 410.089 414.542C409.117 415.518 407.797 416.069 406.419 416.073ZM230.312 158.342C228.992 158.345 227.726 158.87 226.793 159.803C225.86 160.737 225.334 162.002 225.332 163.322V410.866C225.334 412.186 225.86 413.451 226.793 414.384C227.726 415.318 228.992 415.843 230.312 415.845H406.419C407.739 415.843 409.004 415.318 409.937 414.384C410.87 413.451 411.396 412.186 411.398 410.866V163.322C411.396 162.002 410.87 160.737 409.937 159.803C409.004 158.87 407.739 158.345 406.419 158.342H230.312Z" fill="#37B7FE"/>
<path d="M403.309 465.431H374.517V465.659H403.309V465.431Z" fill="#37B7FE"/>
<path d="M298.83 462.959H268.36V463.187H298.83V462.959Z" fill="#37B7FE"/>
<path d="M411.626 473.904H354.69V474.132H411.626V473.904Z" fill="#37B7FE"/>
<path d="M58.3813 472.371H40.8435V472.599H58.3813V472.371Z" fill="#37B7FE"/>
<path d="M94.1317 472.371H66.5072V472.599H94.1317V472.371Z" fill="#37B7FE"/>
<path d="M215.656 468.523H165.897V468.751H215.656V468.523Z" fill="#37B7FE"/>
<path d="M334.672 456.749V298.28H294.945V456.749H334.672Z" fill="#A8CADD"/>
<path d="M332.492 337.851V302.904H297.125V337.851H332.492Z" fill="#234A5D"/>
<path d="M322.642 302.448H306.983C306.983 303.415 307.368 304.343 308.052 305.027C308.736 305.711 309.664 306.096 310.631 306.096H319.04C320 306.084 320.916 305.694 321.59 305.011C322.264 304.328 322.643 303.407 322.642 302.448Z" fill="#2E6787"/>
<path d="M332.492 375.946V340.998H297.125V375.946H332.492Z" fill="#234A5D"/>
<path d="M332.492 414.031V379.083H297.125V414.031H332.492Z" fill="#234A5D"/>
<path d="M332.492 452.116V417.168H297.125V452.116H332.492Z" fill="#234A5D"/>
<path d="M322.642 340.56H306.983C306.983 341.528 307.368 342.455 308.052 343.14C308.736 343.824 309.664 344.208 310.631 344.208H319.04C320 344.196 320.916 343.806 321.59 343.124C322.264 342.441 322.643 341.52 322.642 340.56Z" fill="#2E6787"/>
<path d="M322.642 378.618H306.983C306.983 379.585 307.368 380.513 308.052 381.197C308.736 381.881 309.664 382.266 310.631 382.266H319.04C320 382.254 320.916 381.864 321.59 381.181C322.264 380.498 322.643 379.577 322.642 378.618Z" fill="#2E6787"/>
<path d="M322.642 416.703H306.983C306.983 417.67 307.368 418.598 308.052 419.282C308.736 419.967 309.664 420.351 310.631 420.351H319.04C320 420.339 320.916 419.949 321.59 419.266C322.264 418.584 322.643 417.663 322.642 416.703Z" fill="#2E6787"/>
<path d="M354.517 456.749V298.28H334.672V456.749H354.517Z" fill="#234A5D"/>
<path d="M377.982 456.758V298.289H338.256V456.758H377.982Z" fill="#A8CADD"/>
<path d="M375.803 337.851V302.904H340.435V337.851H375.803Z" fill="#234A5D"/>
<path d="M365.953 302.448H350.294C350.294 303.415 350.679 304.343 351.363 305.027C352.047 305.711 352.975 306.096 353.942 306.096H362.36C363.318 306.081 364.232 305.69 364.904 305.008C365.577 304.325 365.953 303.406 365.953 302.448Z" fill="#2E6787"/>
<path d="M375.803 375.936V340.989H340.435V375.936H375.803Z" fill="#234A5D"/>
<path d="M375.812 414.031V379.083H340.445V414.031H375.812Z" fill="#234A5D"/>
<path d="M375.803 452.116V417.168H340.435V452.116H375.803Z" fill="#234A5D"/>
<path d="M365.953 340.56H350.294C350.294 341.528 350.679 342.455 351.363 343.14C352.047 343.824 352.975 344.208 353.942 344.208H362.36C363.318 344.194 364.232 343.803 364.904 343.12C365.577 342.438 365.953 341.518 365.953 340.56Z" fill="#2E6787"/>
<path d="M365.953 378.618H350.294C350.294 379.585 350.679 380.513 351.363 381.197C352.047 381.881 352.975 382.266 353.942 382.266H362.36C363.318 382.251 364.232 381.861 364.904 381.178C365.577 380.495 365.953 379.576 365.953 378.618Z" fill="#2E6787"/>
<path d="M365.953 416.703H350.294C350.294 417.67 350.679 418.598 351.363 419.282C352.047 419.967 352.975 420.351 353.942 420.351H362.36C363.318 420.337 364.232 419.946 364.904 419.263C365.577 418.581 365.953 417.661 365.953 416.703Z" fill="#2E6787"/>
<path d="M397.828 456.749V298.28H377.983V456.749H397.828Z" fill="#234A5D"/>
<path d="M372.994 266.633H361.393V298.28H372.994V266.633Z" fill="#3FB6F9" fill-opacity="0.42"/>
<path d="M324.968 298.28H369.218L375.803 247.071H331.553L324.968 298.28Z" fill="#2E6787"/>
<path d="M319.916 298.28H368.087L374.681 247.071H326.5L319.916 298.28Z" fill="#A8CADD"/>
<path d="M364.576 294.249L370.121 251.102H330.02L324.466 294.249H364.576Z" fill="#C7EBFF"/>
<path d="M354.339 280.182C359.06 275.755 359.731 268.8 355.838 264.649C351.945 260.497 344.961 260.72 340.24 265.148C335.519 269.575 334.848 276.53 338.741 280.681C342.634 284.833 349.618 284.61 354.339 280.182Z" fill="#2E6787"/>
<path d="M157.525 456.749H281.283L281.283 195.196H157.525L157.525 456.749Z" fill="#2E6787"/>
<path d="M154.77 456.749H278.529L278.529 195.196H154.77L154.77 456.749Z" fill="#234A5D"/>
<path d="M273.595 451.204V200.741H159.714V451.204H273.595Z" fill="#C7EBFF"/>
<path d="M161.793 451.204L161.793 200.741H159.714L159.714 451.204H161.793Z" fill="#2E6787"/>
<path d="M156.822 281.973H276.495V274.531H156.822V281.973Z" fill="#234A5D"/>
<path d="M116.22 449.663H133.466V337.824H116.22L116.22 449.663Z" fill="#A8CADD"/>
<path d="M45.0935 456.749H130.156V449.663H45.0935V456.749Z" fill="#A8CADD"/>
<path d="M116.22 337.824H41.7828V449.663H116.22V337.824Z" fill="#234A5D"/>
<path d="M109.435 351.586H48.5591V388.267H109.435V351.586Z" fill="#A8CADD"/>
<path d="M109.435 399.22H48.5591V435.901H109.435V399.22Z" fill="#A8CADD"/>
<path d="M60.9075 376.393V363.479C60.9075 362.34 59.9847 361.417 58.8463 361.417H57.9343C56.796 361.417 55.8732 362.34 55.8732 363.479V376.393C55.8732 377.531 56.796 378.454 57.9343 378.454H58.8463C59.9847 378.454 60.9075 377.531 60.9075 376.393Z" fill="#234A5D"/>
<path d="M60.8984 424.017V411.103C60.8984 409.965 59.9757 409.042 58.8373 409.042H57.9253C56.787 409.042 55.8642 409.965 55.8642 411.103V424.017C55.8642 425.155 56.787 426.078 57.9253 426.078H58.8373C59.9757 426.078 60.8984 425.155 60.8984 424.017Z" fill="#234A5D"/>
<path d="M115.874 274.65C113.949 275.616 108.705 274.577 110.447 278.124C111.456 279.978 112.658 281.72 114.032 283.323C115.983 285.73 115.618 288.348 113.311 289.296C112.808 289.475 112.366 289.791 112.034 290.208C110.976 291.731 113.484 293.774 114.716 295.297C115.947 296.82 116.439 298.316 115.536 299.456C114.633 300.596 112.436 300.24 110.776 300.623C106.772 301.535 110.885 307.007 110.466 309.88C110.174 311.814 108.596 312.361 106.462 312.616C104.72 312.835 102.394 312.99 102.294 314.778C102.212 316.328 104.228 318.079 104.756 319.702C105.009 320.402 105.105 321.149 105.037 321.889C104.969 322.63 104.739 323.347 104.364 323.989C104.011 324.529 103.55 324.99 103.01 325.343C102.47 325.696 101.863 325.934 101.227 326.041C99.248 326.46 96.2566 326.041 96.1107 328.257C96.0469 329.251 96.74 330.136 96.2566 331.057C95.9938 331.44 95.6502 331.761 95.25 331.998C94.8498 332.234 94.4027 332.38 93.9402 332.425C92.0451 332.713 90.1148 332.68 88.231 332.324C85.9054 331.896 82.4763 329.844 83.7349 327.874C83.9542 327.588 84.2287 327.35 84.5421 327.173C84.8554 326.996 85.2012 326.884 85.5589 326.843C86.1152 326.725 87.7386 326.898 87.9483 326.524C88.1581 326.15 87.6017 324.7 87.5744 324.171C87.5192 322.718 87.7485 321.268 88.2493 319.903C88.8931 318.12 89.9169 316.499 91.2498 315.151C91.8061 314.595 92.6816 314.185 92.791 313.373C92.7874 312.459 92.4649 311.575 91.879 310.874C90.967 309.616 89.6082 308.421 89.143 307.08C88.3587 304.983 90.2557 304.344 92.0067 303.834C93.6027 303.405 95.6547 302.849 95.1531 300.915C94.761 299.52 93.0099 298.38 92.481 297.021C91.7696 295.197 93.4933 295.133 94.7245 294.476C96.3296 293.628 96.7309 292.123 96.1563 290.208C95.2443 287.062 89.4166 282.611 92.3715 280.559C93.1285 280.04 93.8216 279.866 94.2776 279.082C94.7336 278.298 94.8248 277.203 95.4541 276.446C96.4481 275.242 98.5093 275.042 99.5854 273.92C101.792 271.631 97.0227 267.536 101.409 266.624C102.337 266.511 103.216 266.148 103.954 265.575C104.355 265.201 104.674 263.405 105.121 263.277C107.119 262.721 110.721 266.597 111.852 267.791C113.092 269.205 118.19 273.491 115.874 274.65Z" fill="#3FB6F9" fill-opacity="0.42"/>
<path d="M81.6281 328.084C82.8137 325.886 88.0121 323.697 84.5556 321.153C82.7009 319.891 80.7053 318.851 78.6094 318.052C75.5998 316.793 74.5327 313.893 76.0558 311.495C76.4126 310.99 76.6354 310.403 76.7033 309.789C76.831 307.573 73.5204 307.053 71.6235 306.251C69.7265 305.448 68.4771 304.226 68.6777 302.493C68.8875 300.587 70.9851 299.757 72.2436 298.344C75.2897 294.924 68.7051 291.832 67.5651 288.667C66.7899 286.506 67.8843 285.019 69.6262 283.369C71.0398 282.055 73.0097 280.45 72.1342 278.562C71.3863 276.921 68.6686 276.383 67.3371 275.042C66.7188 274.441 66.2274 273.722 65.8921 272.928C65.5569 272.134 65.3846 271.28 65.3854 270.418C65.4072 268.905 66.0039 267.458 67.0543 266.369C68.5774 264.709 71.4502 263.295 70.3831 260.897C69.8998 259.839 68.8145 259.365 68.7507 258.161C68.7712 257.623 68.8987 257.094 69.1257 256.605C69.3528 256.117 69.6748 255.678 70.0731 255.315C71.5476 253.871 73.2718 252.706 75.162 251.877C77.442 250.874 81.546 250.837 81.546 253.637C81.4752 254.466 81.1057 255.241 80.5063 255.817C80.0777 256.282 78.5547 257.103 78.5729 257.641C78.5911 258.179 79.8588 259.292 80.1598 259.821C81.0015 261.304 81.5727 262.925 81.847 264.609C82.2379 266.838 82.2038 269.122 81.7467 271.339C81.5551 272.251 80.9988 273.218 81.3363 274.121C81.8108 275.013 82.5864 275.708 83.5251 276.082C84.9751 276.811 86.8356 277.176 87.9939 278.243C89.8179 279.912 88.4955 281.773 87.2004 283.35C86.0239 284.782 84.4644 286.652 85.9875 288.293C87.0819 289.479 89.2342 289.552 90.4289 290.619C92.0249 292.051 90.5475 293.191 89.8087 294.623C88.8967 296.447 89.298 298.271 90.8302 299.876C93.3655 302.511 100.862 303.524 99.33 307.409C98.947 308.412 98.418 309.023 98.418 310.099C98.418 311.175 98.9379 312.37 98.7919 313.537C98.5548 315.361 96.8494 316.875 96.4937 318.69C95.7732 322.402 102.157 323.606 98.8375 327.3C98.0622 328.031 97.4849 328.947 97.1595 329.963C97.0044 330.583 97.6793 332.626 97.351 333.036C95.8918 334.86 90.6387 333.118 89.0062 332.589C86.9998 331.923 80.2145 330.701 81.6281 328.084Z" fill="#234A5D"/>
<path d="M68.3494 323.132C68.3494 323.132 68.9786 337.824 93.0281 337.824C117.078 337.824 117.716 323.132 117.716 323.132H68.3494Z" fill="#A8CADD"/>
<path d="M221 532C318.754 532 398 519.688 398 504.5C398 489.312 318.754 477 221 477C123.246 477 44 489.312 44 504.5C44 519.688 123.246 532 221 532Z" fill="#37B7FE" fill-opacity="0.25"/>
<path d="M278.948 480.105L271.634 479.996L269.947 463.014L277.27 463.124L278.948 480.105Z" fill="#FFB573"/>
<path d="M316.605 480.132H309.291L303.591 463.178H310.905L316.605 480.132Z" fill="#FFB573"/>
<path d="M308.315 479.284H317.234C317.38 479.285 317.522 479.334 317.636 479.425C317.751 479.516 317.831 479.643 317.864 479.786L319.305 486.297C319.341 486.456 319.341 486.62 319.303 486.778C319.266 486.936 319.193 487.083 319.09 487.208C318.987 487.333 318.856 487.433 318.709 487.5C318.561 487.566 318.4 487.598 318.238 487.593C315.365 487.547 313.267 487.374 309.656 487.374C307.43 487.374 300.718 487.611 297.645 487.611C294.571 487.611 294.17 484.574 295.428 484.291C301.065 483.06 305.314 481.364 307.12 479.731C307.452 479.443 307.876 479.284 308.315 479.284Z" fill="#263238"/>
<path d="M271.698 479.184L279.687 479.312C279.832 479.312 279.973 479.362 280.085 479.454C280.198 479.545 280.276 479.672 280.307 479.813L281.648 486.343C281.683 486.5 281.681 486.664 281.643 486.82C281.605 486.977 281.532 487.123 281.429 487.247C281.326 487.371 281.196 487.47 281.049 487.536C280.902 487.602 280.742 487.634 280.581 487.629C277.69 487.538 273.531 487.301 269.902 487.246C265.67 487.182 262.004 487.355 257.033 487.246C254.033 487.2 253.248 484.154 254.507 483.899C260.253 482.732 264.931 482.668 269.929 479.695C270.461 479.365 271.073 479.189 271.698 479.184Z" fill="#263238"/>
<path d="M276.194 261.973C273.879 267.112 271.301 272.128 268.47 277.002C267.056 279.437 265.578 281.854 263.973 284.225C262.376 286.656 260.647 288.997 258.793 291.239L258.073 292.096L257.708 292.525C257.58 292.671 257.498 292.78 257.243 293.044C256.197 294.221 254.856 295.097 253.358 295.58C252.43 295.871 251.453 295.973 250.485 295.881C249.631 295.808 248.796 295.592 248.013 295.242C246.886 294.73 245.858 294.023 244.976 293.154C243.727 291.907 242.653 290.496 241.784 288.959C241.022 287.641 240.331 286.283 239.714 284.891C237.461 279.625 235.774 274.134 234.68 268.512L239.933 266.879C241.055 269.269 242.213 271.74 243.426 274.093C244.639 276.446 245.879 278.799 247.22 280.96C247.849 282.015 248.534 283.035 249.272 284.016C249.851 284.812 250.525 285.535 251.278 286.168C251.552 286.378 251.762 286.423 251.652 286.332C251.499 286.25 251.332 286.197 251.16 286.177C250.876 286.144 250.588 286.166 250.312 286.241C249.764 286.414 249.682 286.542 249.746 286.423L250.758 285.028C253.72 280.73 256.419 276.256 258.839 271.631C261.347 266.97 263.791 262.1 266.08 257.385L276.194 261.973Z" fill="#FFB573"/>
<path d="M279.24 257.386C281.21 264.098 267.321 282.402 267.321 282.402L253.303 273.391C255.945 267.588 259.201 262.084 263.016 256.975C268.752 249.615 277.07 250.017 279.24 257.386Z" fill="#3FB6F9"/>
<path opacity="0.2" d="M279.24 257.386C281.21 264.098 267.321 282.402 267.321 282.402L253.303 273.391C255.945 267.588 259.201 262.084 263.016 256.975C268.752 249.615 277.07 250.017 279.24 257.386Z" fill="black"/>
<path opacity="0.2" d="M270.695 265.265C267.813 266.496 263.572 273.473 261.365 278.58L267.311 282.402C270.633 277.96 273.621 273.278 276.249 268.393C274.37 266.332 272.218 264.618 270.695 265.265Z" fill="black"/>
<path d="M239.805 269.506L241.629 261.252L233.303 261.188C233.303 261.188 231.078 267.39 235.556 270.308L239.805 269.506Z" fill="#FFB573"/>
<path d="M240.654 253.519L233.978 255.917L233.276 261.188L241.602 261.252L240.654 253.519Z" fill="#FFB573"/>
<path opacity="0.2" d="M269.956 463.014L270.823 471.769L278.137 471.888L277.28 463.133L269.956 463.014Z" fill="black"/>
<path opacity="0.2" d="M310.905 463.188H303.591L306.527 471.924H313.851L310.905 463.188Z" fill="black"/>
<path d="M311.872 254.412C303.983 282.219 305.579 311.732 304.867 317.705C299.14 317.295 277.571 315.681 265.816 314.805C260.69 273.136 270.941 251.731 270.941 251.731C270.941 251.731 273.458 251.248 276.869 250.892C277.936 250.783 279.094 250.691 280.298 250.628C280.964 250.628 281.639 250.564 282.323 250.555C287.874 250.649 293.416 251.061 298.921 251.786C299.961 251.914 301.019 252.078 302.049 252.242C303.08 252.406 303.928 252.579 304.785 252.753C308.798 253.546 311.872 254.412 311.872 254.412Z" fill="#3FB6F9"/>
<path opacity="0.2" d="M311.872 254.412C303.983 282.219 305.579 311.732 304.867 317.705C299.14 317.295 277.571 315.681 265.816 314.805C260.69 273.136 270.941 251.731 270.941 251.731C270.941 251.731 273.458 251.248 276.869 250.892C277.936 250.783 279.094 250.691 280.298 250.628C280.964 250.628 281.639 250.564 282.323 250.555C287.874 250.649 293.416 251.061 298.921 251.786C299.961 251.914 301.019 252.078 302.049 252.242C303.08 252.406 303.928 252.579 304.785 252.753C308.798 253.546 311.872 254.412 311.872 254.412Z" fill="black"/>
<path opacity="0.2" d="M303.536 266.341C302.834 269.032 303.636 281.307 306.445 284.335C306.828 280.404 307.357 276.3 308.014 272.105L303.536 266.341Z" fill="black"/>
<path d="M298.666 232.944C297.225 238.206 295.447 247.919 298.921 251.758C295.802 254.431 291.762 257.477 285.405 257.23C279.049 256.984 280.472 252.67 282.323 250.527C288.379 249.542 288.561 245.11 287.795 240.887L298.666 232.944Z" fill="#FFB573"/>
<path d="M298.338 250.272C298.338 250.272 295.711 254.604 285.15 257.239C286.901 258.863 287.749 262.711 287.749 262.711C287.749 262.711 301.53 259.392 301.11 251.64C300.269 251.032 299.332 250.569 298.338 250.272Z" fill="#263238"/>
<path d="M281.393 261.717C281.393 261.717 282.779 258.38 285.15 257.24C284.047 256.1 282.414 252.68 283.381 250.117C282.563 250.052 281.74 250.104 280.937 250.272C280.937 250.272 276.76 255.534 281.393 261.717Z" fill="#263238"/>
<path d="M284.694 261.818C284.576 262.529 284.156 263.058 283.782 262.985C283.408 262.912 283.18 262.283 283.308 261.572C283.436 260.86 283.855 260.322 284.22 260.395C284.585 260.468 284.84 261.097 284.694 261.818Z" fill="#263238"/>
<path d="M284.074 265.922C284.01 266.652 283.645 267.208 283.253 267.171C282.861 267.135 282.596 266.524 282.66 265.803C282.724 265.083 283.089 264.517 283.481 264.554C283.873 264.59 284.138 265.201 284.074 265.922Z" fill="#263238"/>
<path opacity="0.2" d="M294.252 236.218L287.868 240.915C288.059 241.897 288.157 242.896 288.16 243.897C290.467 243.733 293.778 241.471 294.197 239.109C294.383 238.156 294.401 237.178 294.252 236.218Z" fill="black"/>
<path d="M284.019 213.071C278.328 212.944 277.179 226.696 280.873 229.095C284.566 231.494 294.671 213.299 284.019 213.071Z" fill="#263238"/>
<path d="M299.897 224.982C298.921 232.178 298.712 236.446 294.781 239.884C288.871 245.055 280.189 241.079 279.003 233.737C277.936 227.125 279.715 216.464 287.011 214.111C288.616 213.584 290.33 213.476 291.988 213.798C293.647 214.12 295.196 214.861 296.488 215.95C297.779 217.04 298.77 218.442 299.367 220.023C299.964 221.604 300.146 223.311 299.897 224.982Z" fill="#FFB573"/>
<path d="M298.867 232.032C295.219 233.956 291.005 214.038 300.691 215.078C312.857 216.373 306.19 228.192 298.867 232.032Z" fill="#263238"/>
<path d="M282.624 215.032C282.624 219.492 297.097 223.924 302.059 222.401C307.02 220.878 308.269 216.929 305.606 214.193C301.101 209.478 282.624 206.295 282.624 215.032Z" fill="#263238"/>
<path d="M283.208 215.616C283.542 217.091 284.263 218.451 285.296 219.556C284.001 219.483 282.715 217.65 282.305 216.583C281.894 215.515 283.208 215.616 283.208 215.616Z" fill="#263238"/>
<path d="M302.569 233.199C302.034 233.93 301.359 234.547 300.585 235.017C299.81 235.486 298.95 235.798 298.055 235.935C295.656 236.282 294.772 234.056 295.702 231.959C296.541 230.071 298.794 227.618 301.074 228.238C303.354 228.858 303.883 231.384 302.569 233.199Z" fill="#FFB573"/>
<path d="M268.105 470.064L280.499 470.255C280.499 470.255 276.359 421.29 277.48 398.508C277.818 391.577 279.213 381.883 281.037 371.495C283.354 358.399 284.466 353.182 287.421 336.638C289.555 324.837 291.452 316.747 291.452 316.747L265.779 314.832C265.779 314.832 254.927 373.82 255.182 396.192C255.437 419.384 268.105 470.064 268.105 470.064Z" fill="#263238"/>
<path opacity="0.2" d="M282.451 332.352C277.836 343.843 277.745 370.765 279.87 378.344C280.235 376.1 280.627 373.784 281.037 371.468C283.354 358.371 284.466 353.155 287.421 336.611C287.476 336.283 287.54 335.963 287.594 335.644C286.082 334.258 284.342 333.144 282.451 332.352Z" fill="black"/>
<path d="M279.669 315.835C279.669 315.835 281.931 377.569 283.655 398.946C285.533 422.366 303.08 470.228 303.08 470.228H316.487C316.487 470.228 307.54 426.452 304.795 403.652C301.667 377.751 304.849 317.687 304.849 317.687L279.669 315.835Z" fill="#263238"/>
<path d="M301.484 470.52H317.271V465.805L299.624 465.495L301.484 470.52Z" fill="#3FB6F9"/>
<path d="M266.545 470.301L281.311 470.529L281.384 465.759L264.876 465.249L266.545 470.301Z" fill="#3FB6F9"/>
<path d="M288.78 226.186C288.734 226.779 288.388 227.235 288.005 227.198C287.622 227.162 287.339 226.669 287.385 226.086C287.43 225.502 287.777 225.046 288.16 225.073C288.543 225.101 288.826 225.648 288.78 226.186Z" fill="#263238"/>
<path d="M282.104 225.693C282.104 226.286 281.712 226.733 281.329 226.706C280.946 226.678 280.672 226.177 280.709 225.593C280.745 225.009 281.101 224.544 281.493 224.572C281.885 224.599 282.168 225.101 282.104 225.693Z" fill="#263238"/>
<path d="M284.22 226.14C283.381 227.89 282.308 229.516 281.028 230.974C281.405 231.285 281.844 231.512 282.316 231.638C282.788 231.764 283.282 231.786 283.764 231.704L284.22 226.14Z" fill="#ED893E"/>
<path d="M286.172 233.464C286.834 233.437 287.483 233.275 288.079 232.986C288.676 232.697 289.206 232.289 289.637 231.786C289.653 231.769 289.666 231.75 289.675 231.729C289.684 231.708 289.688 231.685 289.688 231.662C289.688 231.64 289.684 231.617 289.675 231.596C289.666 231.575 289.653 231.555 289.637 231.539C289.603 231.509 289.56 231.491 289.514 231.491C289.468 231.491 289.424 231.509 289.391 231.539C288.902 232.088 288.29 232.514 287.606 232.782C286.921 233.05 286.183 233.152 285.451 233.081C285.407 233.078 285.363 233.093 285.329 233.122C285.295 233.15 285.273 233.191 285.269 233.236C285.266 233.258 285.268 233.281 285.275 233.303C285.281 233.325 285.292 233.346 285.306 233.364C285.321 233.382 285.338 233.396 285.359 233.407C285.379 233.418 285.401 233.425 285.424 233.427C285.672 233.456 285.922 233.469 286.172 233.464Z" fill="#263238"/>
<path d="M290.996 224.189C291.055 224.187 291.112 224.168 291.16 224.134C291.198 224.11 291.232 224.078 291.257 224.041C291.283 224.004 291.301 223.962 291.311 223.918C291.32 223.874 291.321 223.828 291.312 223.784C291.303 223.739 291.286 223.697 291.261 223.66C290.971 223.185 290.571 222.788 290.094 222.502C289.618 222.216 289.079 222.05 288.525 222.018C288.433 222.018 288.344 222.055 288.279 222.12C288.214 222.185 288.178 222.273 288.178 222.365C288.178 222.457 288.214 222.545 288.279 222.61C288.344 222.675 288.433 222.711 288.525 222.711C288.958 222.747 289.378 222.885 289.747 223.115C290.117 223.345 290.426 223.66 290.649 224.034C290.686 224.09 290.738 224.135 290.8 224.163C290.861 224.19 290.929 224.199 290.996 224.189Z" fill="#263238"/>
<path d="M279.423 223.195C279.48 223.19 279.536 223.172 279.585 223.142C279.634 223.112 279.675 223.071 279.705 223.021C279.912 222.636 280.207 222.306 280.568 222.058C280.928 221.811 281.342 221.653 281.776 221.599C281.821 221.596 281.865 221.585 281.906 221.565C281.946 221.546 281.983 221.518 282.012 221.484C282.042 221.45 282.065 221.41 282.079 221.367C282.093 221.324 282.099 221.279 282.095 221.234C282.094 221.189 282.083 221.144 282.065 221.103C282.046 221.062 282.02 221.025 281.986 220.995C281.953 220.964 281.914 220.94 281.872 220.925C281.829 220.91 281.784 220.903 281.739 220.906C281.192 220.97 280.668 221.163 280.21 221.469C279.751 221.775 279.372 222.185 279.103 222.666C279.081 222.705 279.066 222.749 279.06 222.794C279.054 222.839 279.057 222.885 279.069 222.929C279.081 222.973 279.101 223.015 279.129 223.051C279.157 223.087 279.192 223.117 279.231 223.14C279.289 223.175 279.355 223.194 279.423 223.195Z" fill="#263238"/>
<path d="M305.889 480.57C306.535 480.552 307.178 480.464 307.804 480.306C307.839 480.297 307.87 480.279 307.895 480.253C307.919 480.227 307.935 480.195 307.941 480.16C307.944 480.126 307.938 480.092 307.923 480.062C307.909 480.032 307.887 480.006 307.859 479.986C307.595 479.822 305.232 478.372 304.421 478.783C304.331 478.83 304.256 478.901 304.203 478.988C304.15 479.074 304.121 479.174 304.12 479.275C304.103 479.445 304.128 479.617 304.191 479.776C304.255 479.934 304.355 480.075 304.485 480.187C304.897 480.469 305.391 480.603 305.889 480.57ZM307.303 480.059C306.062 480.306 305.105 480.26 304.704 479.923C304.615 479.847 304.547 479.751 304.506 479.643C304.464 479.534 304.451 479.417 304.466 479.302C304.464 479.261 304.472 479.219 304.492 479.182C304.511 479.145 304.54 479.114 304.576 479.093C304.995 478.874 306.345 479.503 307.303 480.096V480.059Z" fill="#3FB6F9"/>
<path d="M307.768 480.306C307.798 480.314 307.829 480.314 307.859 480.306C307.884 480.289 307.905 480.266 307.92 480.239C307.934 480.211 307.941 480.181 307.941 480.15C307.941 480.059 307.759 477.943 306.91 477.25C306.811 477.162 306.693 477.097 306.565 477.059C306.438 477.021 306.303 477.012 306.172 477.031C306.041 477.029 305.914 477.072 305.812 477.154C305.711 477.236 305.641 477.35 305.615 477.478C305.46 478.299 306.929 479.904 307.686 480.315L307.768 480.306ZM306.29 477.36C306.436 477.359 306.577 477.415 306.682 477.515C307.198 478.172 307.5 478.97 307.549 479.804C306.801 479.229 305.862 477.98 305.953 477.542C305.953 477.497 305.953 477.387 306.208 477.36H306.29Z" fill="#3FB6F9"/>
<path d="M270.959 480.151C270.991 480.139 271.018 480.12 271.039 480.094C271.06 480.068 271.073 480.038 271.078 480.005C271.082 479.97 271.076 479.935 271.059 479.904C271.043 479.873 271.018 479.848 270.987 479.831C270.659 479.649 267.74 478.117 266.846 478.591C266.762 478.637 266.691 478.704 266.64 478.786C266.589 478.867 266.56 478.96 266.555 479.056C266.533 479.212 266.55 479.371 266.604 479.519C266.658 479.667 266.748 479.799 266.865 479.904C267.649 480.625 269.756 480.37 270.941 480.151H270.959ZM267.074 478.874C267.622 478.691 269.208 479.321 270.367 479.895C268.743 480.142 267.539 480.05 267.093 479.649C267.017 479.578 266.959 479.489 266.924 479.391C266.889 479.292 266.878 479.187 266.892 479.084C266.892 479.045 266.903 479.007 266.924 478.975C266.945 478.943 266.975 478.917 267.011 478.901L267.074 478.874Z" fill="#3FB6F9"/>
<path d="M270.959 480.151H271.005C271.031 480.135 271.052 480.112 271.065 480.084C271.078 480.056 271.082 480.026 271.078 479.996C271.078 479.913 270.905 477.934 269.983 477.159C269.86 477.049 269.716 476.965 269.559 476.911C269.402 476.858 269.237 476.837 269.071 476.849C268.588 476.849 268.451 477.123 268.415 477.323C268.269 478.144 269.993 479.758 270.868 480.169C270.9 480.17 270.931 480.163 270.959 480.151ZM268.88 477.196H269.062C269.19 477.184 269.318 477.199 269.439 477.24C269.56 477.281 269.671 477.346 269.765 477.433C270.295 478.078 270.614 478.871 270.677 479.704C269.765 479.147 268.615 477.88 268.698 477.387C268.725 477.36 268.734 477.241 268.88 477.196Z" fill="#3FB6F9"/>
<path d="M313.75 258.972C316.304 264.098 318.593 269.223 320.7 274.476C321.767 277.103 322.752 279.775 323.719 282.465C324.193 283.824 324.631 285.201 325.087 286.551L325.415 287.582L325.771 288.767C326.026 289.579 326.172 290.391 326.363 291.193C327.369 297.335 327.084 303.618 325.524 309.643C324.848 312.503 323.992 315.318 322.962 318.07C322.442 319.438 321.885 320.806 321.293 322.11C320.7 323.414 320.098 324.727 319.359 326.095L314.316 323.907C315.018 321.417 315.729 318.726 316.231 316.109C316.733 313.492 317.198 310.847 317.49 308.238C317.778 305.677 317.881 303.099 317.8 300.523C317.751 298.111 317.414 295.714 316.797 293.382C316.623 292.844 316.486 292.278 316.277 291.768C316.167 291.503 316.103 291.284 315.967 290.965L315.584 290.053C315.073 288.804 314.517 287.554 313.988 286.305C312.921 283.788 311.762 281.298 310.65 278.79L303.764 263.806L313.75 258.972Z" fill="#FFB573"/>
<path d="M311.872 254.412C318.548 256.51 325.114 279.155 325.114 279.155L309.665 285.913C309.665 285.913 304.667 274.969 301.785 266.396C298.657 257.048 303.773 251.877 311.872 254.412Z" fill="#3FB6F9"/>
<path opacity="0.2" d="M311.872 254.412C318.548 256.51 325.114 279.155 325.114 279.155L309.665 285.913C309.665 285.913 304.667 274.969 301.785 266.396C298.657 257.048 303.773 251.877 311.872 254.412Z" fill="black"/>
<path d="M314.726 322.676L311.124 329.178L319.615 331.385C319.615 331.385 322.177 325.083 319.149 323.077L314.726 322.676Z" fill="#FFB573"/>
<path d="M310.495 336.556L318.292 337.204L319.615 331.385L311.124 329.178L310.495 336.556Z" fill="#FFB573"/>
<path opacity="0.19" d="M263.636 371.814H70.6749L84.282 178.863H277.243L263.636 371.814Z" fill="#3FB6F9"/>
<path opacity="0.2" d="M114.15 371.814H86.3978L155.537 178.863H183.289L114.15 371.814Z" fill="white"/>
<path opacity="0.2" d="M181.556 371.814H120.343L189.481 178.863H250.695L181.556 371.814Z" fill="white"/>
<path d="M84.7928 211.813L79.1384 211.412L81.6373 176.026H117.032V181.699H86.9178L84.7928 211.813Z" fill="#3FB6F9"/>
<path d="M103.425 374.651H67.6289L70.1551 338.873L75.8095 339.274L73.7119 368.978H103.425V374.651Z" fill="#3FB6F9"/>
<path d="M277.754 211.813L272.108 211.412L274.197 181.699H244.484V176.026H280.28L277.754 211.813Z" fill="#3FB6F9"/>
<path d="M266.272 374.651H230.877V368.978H260.991L263.116 338.873L268.771 339.274L266.272 374.651Z" fill="#3FB6F9"/>
<g opacity="0.3">
<path d="M170.156 343.36C169.988 343.356 169.823 343.316 169.673 343.241C169.618 343.241 168.277 342.475 166.025 341.089C165.113 340.514 163.963 339.812 162.714 339.019C158.747 336.438 154.925 333.72 151.341 330.938C150.429 330.264 149.609 329.57 148.724 328.859C145.422 326.123 142.34 323.442 139.659 320.779C138.965 320.086 138.282 319.392 137.598 318.681C135.107 316.117 132.768 313.41 130.593 310.573C130.064 309.889 129.554 309.187 129.052 308.476C127.197 305.891 125.542 303.168 124.1 300.332C123.753 299.648 123.407 298.927 123.088 298.207C121.89 295.569 120.955 292.82 120.297 289.999C120.133 289.351 119.987 288.649 119.859 287.865C119.759 287.354 119.677 286.816 119.613 286.287C119.33 284.198 119.093 282.073 118.865 279.775C118.792 279.091 118.728 278.398 118.664 277.714C118.427 274.978 118.227 272.306 118.081 269.643V269.424C118.081 268.822 118.008 268.22 117.98 267.6C117.853 264.973 117.762 262.265 117.707 259.547V257.477C117.707 254.604 117.707 251.895 117.707 249.424C117.707 248.731 117.707 248.038 117.752 247.354C117.816 244.38 117.917 241.672 118.035 239.301V239.146C118.035 238.489 118.09 237.851 118.126 237.221C118.29 234.285 118.482 231.503 118.683 229.168C118.746 228.375 118.801 227.7 118.865 227.098C119.075 224.8 119.23 223.514 119.23 223.514C119.249 223.278 119.351 223.057 119.518 222.89C119.685 222.723 119.906 222.621 120.142 222.602C120.306 222.602 137.132 221.298 155.053 218.142C158.701 217.504 162.222 216.811 165.559 216.09C170.475 215.014 174.971 213.847 178.938 212.616C179.137 212.552 179.351 212.552 179.55 212.616C183.334 213.856 187.666 215.023 192.427 216.09C195.665 216.82 199.094 217.504 202.641 218.142C220.115 221.298 236.759 222.593 236.923 222.602C237.177 222.623 237.414 222.74 237.583 222.931C237.753 223.121 237.843 223.369 237.835 223.623C237.835 223.623 237.835 224.9 237.699 227.208C237.699 227.819 237.635 228.512 237.589 229.278C237.452 231.622 237.252 234.403 237.005 237.331C236.951 237.914 236.896 238.498 236.841 239.109V239.41C236.632 241.79 236.34 244.499 235.993 247.454C235.911 248.156 235.829 248.84 235.738 249.533C235.428 252.014 235.054 254.723 234.616 257.577L234.306 259.638C233.868 262.374 233.394 265.11 232.901 267.7C232.792 268.284 232.674 268.877 232.555 269.47L232.491 269.78C231.971 272.424 231.397 275.142 230.777 277.833L230.284 279.912C229.728 282.21 229.19 284.335 228.624 286.415C228.469 286.953 228.314 287.482 228.15 288.011C227.904 288.786 227.667 289.479 227.411 290.136C226.342 292.982 225.023 295.729 223.471 298.344C223.061 299.046 222.623 299.757 222.167 300.45C220.321 303.29 218.289 306.005 216.084 308.576C215.482 309.278 214.88 309.981 214.26 310.665C211.693 313.499 208.984 316.202 206.143 318.763C205.359 319.468 204.575 320.162 203.79 320.843C200.699 323.506 197.279 326.214 193.603 328.914C192.618 329.625 191.652 330.318 190.694 330.993C186.718 333.775 182.486 336.465 178.2 339.064C176.832 339.858 175.619 340.56 174.552 341.135C172.108 342.512 170.667 343.25 170.612 343.278C170.468 343.34 170.312 343.368 170.156 343.36ZM121.118 224.554C121.054 225.156 120.963 226.068 120.853 227.29C120.789 227.892 120.735 228.557 120.68 229.287C120.479 231.658 120.288 234.421 120.124 237.349C120.124 237.969 120.06 238.598 120.023 239.255V239.41C119.896 241.763 119.804 244.453 119.741 247.408C119.741 248.083 119.741 248.767 119.695 249.46C119.695 251.923 119.695 254.613 119.695 257.459V259.529C119.75 262.219 119.841 264.91 119.969 267.509C119.969 268.111 120.023 268.704 120.06 269.333V269.606C120.206 272.242 120.397 274.932 120.634 277.596C120.698 278.28 120.762 278.964 120.835 279.648C121.054 281.918 121.3 284.034 121.574 286.095C121.637 286.597 121.71 287.099 121.802 287.591C121.929 288.339 122.066 288.986 122.221 289.607C122.854 292.302 123.749 294.929 124.893 297.45C125.203 298.134 125.523 298.818 125.86 299.474C127.258 302.224 128.862 304.864 130.657 307.372C131.15 308.056 131.642 308.74 132.162 309.406C134.293 312.181 136.58 314.834 139.011 317.35C139.686 318.043 140.361 318.727 141.045 319.402C143.708 322.019 146.708 324.691 149.964 327.354C150.876 328.056 151.697 328.74 152.554 329.415C156.084 332.151 159.85 334.842 163.772 337.386C165.003 338.171 166.107 338.864 167.046 339.429C168.496 340.341 169.572 340.943 170.147 341.253C170.758 340.934 171.971 340.341 173.539 339.429C174.57 338.855 175.765 338.161 177.114 337.368C181.383 334.824 185.541 332.142 189.472 329.388C190.384 328.722 191.378 328.038 192.354 327.327C196.002 324.664 199.367 321.992 202.386 319.365C203.161 318.69 203.936 318.006 204.702 317.304C207.498 314.789 210.164 312.135 212.692 309.351C213.303 308.676 213.895 308.002 214.516 307.318C216.666 304.814 218.647 302.17 220.444 299.401C220.89 298.727 221.356 298.043 221.702 297.368C223.217 294.86 224.508 292.223 225.56 289.488C225.806 288.859 226.034 288.202 226.262 287.463C226.426 286.962 226.572 286.451 226.709 285.949C227.274 283.888 227.813 281.782 228.36 279.502C228.533 278.818 228.688 278.134 228.852 277.45C229.463 274.777 230.038 272.087 230.549 269.46L230.612 269.141C230.731 268.558 230.84 267.974 230.95 267.39C231.442 264.8 231.917 262.11 232.345 259.392L232.664 257.34C233.093 254.504 233.467 251.813 233.777 249.342C233.868 248.658 233.941 247.983 234.023 247.308C234.37 244.353 234.662 241.663 234.871 239.292V238.991C234.926 238.389 234.981 237.796 235.026 237.221C235.273 234.321 235.473 231.558 235.601 229.232C235.647 228.466 235.683 227.782 235.72 227.171C235.765 226.058 235.802 225.183 235.82 224.59C232.026 224.262 217.47 222.921 202.295 220.185C198.72 219.538 195.263 218.844 191.998 218.115C187.301 217.057 183.015 215.908 179.23 214.686C175.281 215.908 170.831 217.057 165.979 218.115C162.623 218.844 159.066 219.538 155.4 220.185C139.65 222.912 124.738 224.253 121.118 224.554Z" fill="#3FB6F9"/>
<path d="M184.244 264.707C189.168 259.953 189.568 252.377 185.135 247.785C180.703 243.194 173.118 243.326 168.193 248.08C163.268 252.834 162.869 260.41 167.301 265.001C171.733 269.593 179.319 269.461 184.244 264.707Z" fill="#3FB6F9"/>
<path d="M178.847 260.569H175.92H173.001L164.739 299.11H181.674L178.847 260.569Z" fill="#3FB6F9"/>
<g opacity="0.2">
<path d="M202.459 219.155H155.226C158.729 218.535 162.276 217.851 165.769 217.084H192.217C195.601 217.851 199.048 218.535 202.459 219.155Z" fill="#3FB6F9"/>
<path d="M236.595 229.241H119.677C119.731 228.475 119.786 227.791 119.85 227.171H236.705C236.677 227.791 236.641 228.475 236.595 229.241Z" fill="#3FB6F9"/>
<path d="M236.011 237.258C235.957 237.933 235.893 238.626 235.829 239.337H119.02C119.02 238.626 119.084 237.933 119.12 237.258H236.011Z" fill="#3FB6F9"/>
<path d="M234.981 247.354C234.899 248.038 234.817 248.731 234.726 249.424H118.692C118.692 248.731 118.692 248.038 118.737 247.354H234.981Z" fill="#3FB6F9"/>
<path d="M233.613 257.449C233.503 258.133 233.403 258.817 233.294 259.511H118.701C118.701 258.817 118.701 258.133 118.701 257.449H233.613Z" fill="#3FB6F9"/>
<path d="M231.944 267.536L231.533 269.606H119.084C119.084 268.913 119.002 268.22 118.974 267.536H231.944Z" fill="#3FB6F9"/>
<path d="M229.782 277.632L229.29 279.693H119.85C119.777 279.009 119.713 278.316 119.649 277.632H229.782Z" fill="#3FB6F9"/>
<path d="M227.174 287.719C226.955 288.412 226.718 289.105 226.454 289.789H121.273C121.099 289.105 120.963 288.412 120.844 287.719H227.174Z" fill="#3FB6F9"/>
<path d="M222.587 297.806C222.186 298.499 221.748 299.201 221.31 299.876H124.994C124.647 299.201 124.319 298.499 124.009 297.806H222.587Z" fill="#3FB6F9"/>
<path d="M215.3 307.901C214.707 308.594 214.114 309.288 213.476 309.962H131.396C130.867 309.288 130.365 308.594 129.873 307.901H215.3Z" fill="#3FB6F9"/>
<path d="M205.432 317.988C204.657 318.691 203.882 319.384 203.097 320.059H140.361C139.677 319.384 138.993 318.691 138.318 317.988H205.432Z" fill="#3FB6F9"/>
<path d="M192.974 328.075C191.989 328.786 191.032 329.479 190.074 330.145H151.961C151.104 329.479 150.238 328.786 149.353 328.075H192.974Z" fill="#3FB6F9"/>
<path d="M177.653 338.171C176.294 338.964 175.09 339.657 174.059 340.232H166.554C165.642 339.657 164.492 338.964 163.252 338.171H177.653Z" fill="#3FB6F9"/>
</g>
</g>
</g>
<defs>
<clipPath id="clip0_353_2339">
<rect x="-141" y="-203" width="724.32" height="724.32" rx="362.16" fill="white"/>
</clipPath>
</defs>
</svg>
