<svg width="430" height="569" viewBox="0 0 430 569" fill="none" xmlns="http://www.w3.org/2000/svg">
<rect x="-282" y="-437" width="1006" height="1006" rx="503" fill="#37B7FE" fill-opacity="0.05"/>
<g clip-path="url(#clip0_353_1126)">
<rect x="-141" y="-203" width="724.32" height="724.32" rx="362.16" fill="#37B7FE" fill-opacity="0.1"/>
<path d="M121.671 151.968H45.7296V277.682H121.671V151.968Z" fill="#C0DCEB"/>
<path d="M119.149 151.968H43.2072V277.682H119.149V151.968Z" fill="#A8CADD"/>
<path d="M115.923 154.517H46.4418V275.126H115.923V154.517Z" fill="#EAF7FF"/>
<path d="M102.392 170.192H59.6722V259.458H102.392V170.192Z" fill="#A8CADD"/>
<path d="M59.6722 227.867C59.5692 219.527 67.0681 211.385 75.3221 210.227C79.2603 209.669 83.4474 210.45 87.1282 208.94C93.6919 206.245 95.7854 197.52 102.392 194.937L102.692 259.459H59.6722V227.867Z" fill="#C0DCEB"/>
<path d="M401.328 156.679H328.492V232.603H401.328V156.679Z" fill="#C0DCEB"/>
<path d="M396.394 156.679H323.559V232.603H396.394V156.679Z" fill="#EAF7FF"/>
<path d="M396.411 232.62H323.533V156.653H396.411V232.62ZM323.576 232.577H396.369V156.696H323.576V232.577Z" fill="#C0DCEB"/>
<path d="M386.604 166.88H333.348V222.393H386.604V166.88Z" fill="#EAF7FF"/>
<path d="M333.349 222.762C332.974 223.322 332.533 223.835 332.036 224.289C331.178 225.19 329.985 226.4 328.647 227.721C327.308 229.043 326.073 230.218 325.172 231.05C324.711 231.541 324.193 231.973 323.627 232.337C324.005 231.779 324.445 231.267 324.94 230.81C325.798 229.952 326.982 228.699 328.329 227.378C329.676 226.057 330.903 224.873 331.813 224.04C332.272 223.555 332.788 223.126 333.349 222.762Z" fill="#C0DCEB"/>
<path d="M386.604 222.625C387.16 223.004 387.673 223.445 388.132 223.937C388.99 224.795 390.242 225.988 391.564 227.369C392.885 228.751 394.052 229.943 394.893 230.853C395.381 231.31 395.81 231.826 396.171 232.389C395.616 232.015 395.106 231.577 394.653 231.084C393.752 230.226 392.533 229.034 391.221 227.652C389.908 226.271 388.715 225.078 387.883 224.169C387.394 223.709 386.965 223.19 386.604 222.625Z" fill="#C0DCEB"/>
<path d="M386.459 167.035C386.833 166.475 387.274 165.962 387.771 165.507C388.629 164.649 389.814 163.388 391.152 162.075C392.49 160.763 393.726 159.579 394.635 158.738C395.098 158.258 395.613 157.833 396.171 157.468C395.797 158.023 395.36 158.533 394.867 158.987C394.009 159.888 392.817 161.106 391.435 162.419C390.054 163.731 388.861 164.924 387.952 165.756C387.5 166.233 386.999 166.661 386.459 167.035Z" fill="#C0DCEB"/>
<path d="M333.194 167.163C332.634 166.789 332.121 166.348 331.667 165.851C330.766 164.993 329.556 163.809 328.235 162.47C326.913 161.132 325.738 159.896 324.906 158.987C324.419 158.526 323.988 158.01 323.619 157.451C324.178 157.823 324.691 158.261 325.146 158.755C326.004 159.613 327.257 160.806 328.578 162.187C329.899 163.568 331.083 164.761 331.916 165.671C332.398 166.117 332.827 166.618 333.194 167.163Z" fill="#C0DCEB"/>
<path d="M386.459 222.393C386.452 222.304 386.452 222.215 386.459 222.127C386.459 221.938 386.459 221.681 386.459 221.346C386.459 220.651 386.459 219.63 386.459 218.352C386.459 215.726 386.459 211.9 386.407 207.043C386.407 197.314 386.347 183.465 386.304 166.88L386.51 167.086H333.409L333.64 166.846C333.64 187.224 333.64 206.314 333.64 222.359L333.434 222.161L371.89 222.264L382.683 222.316H385.549H386.544C386.465 222.323 386.384 222.323 386.304 222.316H385.532H382.709L371.958 222.367L333.348 222.47H333.143V222.264C333.143 206.194 333.143 187.129 333.143 166.752V166.649H333.391H386.493H386.699V166.906C386.647 183.551 386.613 197.442 386.587 207.232C386.587 212.071 386.587 215.881 386.536 218.498C386.536 219.785 386.536 220.771 386.536 221.458C386.536 221.775 386.536 222.024 386.536 222.204C386.536 222.384 386.459 222.402 386.459 222.393Z" fill="#C0DCEB"/>
<path d="M368.861 185.756H351.092V203.526H368.861V185.756Z" fill="#A8CADD"/>
<path d="M291.324 512.466C289.814 511.17 286.433 507.06 289.041 502.273C289.994 500.557 292.027 499.647 293.855 498.841C295.682 498.034 297.621 497.399 299.14 496.104C302.006 493.667 302.795 489.626 304.7 486.374C306.879 482.642 310.955 479.844 315.262 480.042C320.187 480.265 324.297 484.289 326.158 488.879C328.02 493.47 328.089 498.566 328.132 503.525C328.132 506.262 328.029 509.351 326.013 511.204C324.159 512.92 321.371 512.92 318.848 512.852L291.916 511.994" fill="#93B2C4"/>
<path d="M342.847 438.403H272.01L284.769 514.482C285.032 516.069 285.74 517.548 286.811 518.748C287.881 519.948 289.271 520.819 290.817 521.26L291.066 521.329C291.272 521.38 291.478 521.449 291.693 521.492C292.168 521.585 292.65 521.64 293.134 521.655V521.732L293.477 521.672H325.052C325.628 521.67 326.203 521.613 326.768 521.5C328.611 521.215 330.31 520.332 331.604 518.989C332.898 517.645 333.716 515.914 333.932 514.062L340.084 461.638L340.358 459.553L342.786 438.798L342.847 438.403ZM329.479 486.94H322.212L322.95 464.864H331.367L329.479 486.94ZM332.053 464.864H339.02L336.446 486.94H330.191L332.053 464.864ZM311.289 511.419L310.886 492.225H321.362L320.719 511.41L311.289 511.419ZM299.989 492.225H310.157L310.603 511.41H301.448L299.989 492.225ZM300.779 511.41H292.25C291.435 506.262 290.38 499.501 289.239 492.225H299.286L300.779 511.41ZM299.578 486.94L297.862 464.864H309.53L310.028 486.94H299.578ZM310.732 486.94L310.225 464.864H322.237L321.508 486.94H310.732ZM310.105 459.561L309.633 439.115H323.087L322.409 459.561H310.105ZM309.402 459.561H297.45L295.862 439.115H308.938L309.402 459.561ZM296.738 459.561H284.091C283.645 456.739 283.233 454.07 282.838 451.659C281.517 443.397 281.019 440.282 280.745 439.115H295.159L296.738 459.561ZM297.149 464.864L298.874 486.94H288.406C288.055 484.701 287.703 482.436 287.343 480.171C286.527 474.954 285.704 469.746 284.932 464.864H297.149ZM287.72 486.94H280.856L277.149 464.864H284.211C285.3 471.676 286.493 479.27 287.72 486.94ZM288.578 492.234C289.625 498.875 290.646 505.421 291.59 511.419H285.017L281.714 492.225L288.578 492.234ZM321.448 511.419L322.092 492.234H329.084L327.445 511.419H321.448ZM323.164 459.561L323.842 439.115H333.614L331.898 459.561H323.164ZM280.118 439.115C280.401 440.591 281.688 448.639 283.421 459.561H276.309L272.877 439.115H280.118ZM333.614 511.419H328.14L329.762 492.225H335.845L333.614 511.419ZM339.698 459.561H332.568L334.284 439.115H342.066L339.698 459.561Z" fill="#C0DCEB"/>
<path d="M284.726 429.523L187.334 429.454C181.71 429.449 176.317 427.212 172.342 423.233C168.366 419.254 166.133 413.86 166.133 408.236V164.083C166.135 161.293 166.688 158.531 167.759 155.955C168.83 153.378 170.398 151.039 172.375 149.069C174.351 147.1 176.697 145.54 179.277 144.478C181.857 143.416 184.621 142.874 187.411 142.882L284.803 142.942C290.427 142.947 295.82 145.184 299.795 149.163C303.771 153.141 306.004 158.536 306.004 164.16L305.953 408.304C305.954 411.092 305.405 413.852 304.339 416.427C303.272 419.003 301.709 421.343 299.737 423.313C297.766 425.284 295.425 426.847 292.85 427.912C290.274 428.978 287.513 429.525 284.726 429.523Z" fill="#152A34"/>
<path d="M284.7 151.582H265.824C265.209 151.595 264.602 151.73 264.039 151.978C263.476 152.225 262.967 152.582 262.541 153.026C262.116 153.471 261.782 153.995 261.559 154.569C261.336 155.142 261.229 155.754 261.242 156.37V159.802C261.256 160.417 261.148 161.029 260.925 161.602C260.702 162.176 260.369 162.7 259.943 163.145C259.518 163.589 259.009 163.946 258.446 164.193C257.882 164.441 257.276 164.576 256.66 164.589H219.852C218.609 164.56 217.428 164.038 216.569 163.139C215.71 162.24 215.243 161.036 215.271 159.793V156.361C215.298 155.118 214.831 153.914 213.972 153.015C213.113 152.116 211.932 151.594 210.689 151.565H187.523C185.571 151.562 183.638 151.945 181.834 152.69C180.03 153.436 178.391 154.529 177.01 155.909C175.629 157.288 174.533 158.926 173.786 160.729C173.038 162.532 172.654 164.465 172.654 166.417L172.611 404.726C172.611 408.664 174.174 412.442 176.957 415.228C179.74 418.014 183.516 419.582 187.454 419.587L284.648 419.638C286.6 419.64 288.533 419.258 290.337 418.513C292.141 417.767 293.78 416.674 295.161 415.294C296.542 413.915 297.638 412.277 298.385 410.474C299.133 408.671 299.518 406.738 299.518 404.786V166.477C299.527 162.537 297.971 158.755 295.192 155.962C292.414 153.169 288.64 151.593 284.7 151.582Z" fill="#EAF7FF"/>
<path d="M267.814 159.312H266.733V160.823H267.814V159.312Z" fill="#263238"/>
<path d="M269.573 158.643H268.492V160.831H269.573V158.643Z" fill="#263238"/>
<path d="M271.324 158.137H270.242V160.831H271.324V158.137Z" fill="#263238"/>
<path d="M273.083 157.159H272.001V160.831H273.083V157.159Z" fill="#263238"/>
<path d="M289.016 160.9H283.602C283.498 160.9 283.399 160.859 283.325 160.787C283.252 160.715 283.209 160.617 283.207 160.514V157.82C283.207 157.717 283.248 157.619 283.32 157.547C283.392 157.474 283.491 157.433 283.593 157.433H289.016C289.038 157.425 289.062 157.425 289.084 157.433C289.092 157.459 289.092 157.485 289.084 157.511V158.369H289.668C289.695 158.369 289.721 158.38 289.74 158.399C289.76 158.418 289.771 158.444 289.771 158.472V159.767C289.768 159.793 289.757 159.817 289.738 159.835C289.718 159.852 289.693 159.862 289.668 159.862H289.084V160.72C289.108 160.729 289.127 160.747 289.138 160.77C289.148 160.794 289.149 160.82 289.14 160.844C289.131 160.868 289.113 160.887 289.089 160.898C289.066 160.908 289.039 160.909 289.016 160.9ZM288.913 157.631H283.593C283.568 157.631 283.544 157.636 283.521 157.645C283.498 157.655 283.477 157.669 283.459 157.686C283.442 157.704 283.428 157.724 283.419 157.747C283.409 157.77 283.404 157.795 283.404 157.82V160.514C283.404 160.539 283.409 160.564 283.419 160.588C283.429 160.611 283.444 160.633 283.462 160.65C283.481 160.668 283.503 160.682 283.527 160.691C283.551 160.7 283.576 160.704 283.602 160.702H288.913V159.844C288.913 159.817 288.923 159.791 288.943 159.772C288.962 159.752 288.988 159.741 289.016 159.741H289.59V158.618H289.016C289.002 158.619 288.989 158.617 288.977 158.613C288.964 158.609 288.953 158.602 288.943 158.593C288.933 158.584 288.926 158.573 288.92 158.561C288.915 158.549 288.913 158.536 288.913 158.523V157.631Z" fill="#263238"/>
<path d="M283.85 160.265V158.077H288.475V159.064V159.278V160.265H283.85Z" fill="#263238"/>
<path d="M278.282 160.694C278.28 160.59 278.237 160.491 278.164 160.417C278.09 160.344 277.991 160.302 277.887 160.299C277.783 160.299 277.682 160.341 277.608 160.415C277.534 160.489 277.493 160.589 277.493 160.694C277.491 160.746 277.501 160.798 277.52 160.846C277.54 160.895 277.569 160.939 277.606 160.976C277.642 161.013 277.686 161.042 277.735 161.061C277.783 161.08 277.835 161.09 277.887 161.089C277.992 161.089 278.092 161.047 278.166 160.973C278.24 160.899 278.282 160.799 278.282 160.694Z" fill="#263238"/>
<path d="M276.497 159.741L277.004 160.248C277.115 160.132 277.248 160.041 277.396 159.978C277.543 159.916 277.701 159.883 277.862 159.883C278.022 159.883 278.18 159.916 278.328 159.978C278.475 160.041 278.608 160.132 278.72 160.248L279.226 159.741C279.046 159.562 278.832 159.419 278.596 159.324C278.36 159.228 278.107 159.18 277.853 159.184C277.345 159.184 276.858 159.385 276.497 159.741Z" fill="#263238"/>
<path d="M277.853 158.051C277.053 158.042 276.281 158.35 275.708 158.909L276.206 159.415C276.643 158.982 277.233 158.739 277.849 158.739C278.464 158.739 279.055 158.982 279.492 159.415L279.998 158.909C279.424 158.352 278.653 158.044 277.853 158.051Z" fill="#263238"/>
<path d="M274.85 158.12L275.356 158.626C276.009 157.973 276.895 157.606 277.819 157.606C278.742 157.606 279.628 157.973 280.281 158.626L280.787 158.12C279.999 157.334 278.932 156.893 277.819 156.893C276.706 156.893 275.638 157.334 274.85 158.12Z" fill="#263238"/>
<path d="M242.572 181.234H236.034C235.584 181.234 235.219 181.599 235.219 182.049V186.485C235.219 186.936 235.584 187.3 236.034 187.3H242.572C243.022 187.3 243.387 186.936 243.387 186.485V182.049C243.387 181.599 243.022 181.234 242.572 181.234Z" fill="#263238"/>
<path d="M237.021 181.629H236.163V180.634C236.14 180.208 236.205 179.783 236.353 179.383C236.5 178.983 236.727 178.617 237.021 178.308C237.314 177.999 237.668 177.753 238.059 177.585C238.451 177.416 238.872 177.33 239.299 177.33C239.725 177.33 240.147 177.416 240.538 177.585C240.93 177.753 241.283 177.999 241.576 178.308C241.87 178.617 242.097 178.983 242.245 179.383C242.392 179.783 242.457 180.208 242.435 180.634V181.286H241.577V180.634C241.596 180.323 241.551 180.012 241.445 179.719C241.339 179.426 241.175 179.157 240.961 178.931C240.748 178.704 240.49 178.523 240.204 178.399C239.918 178.276 239.61 178.212 239.299 178.212C238.987 178.212 238.679 178.276 238.393 178.399C238.107 178.523 237.85 178.704 237.636 178.931C237.423 179.157 237.258 179.426 237.152 179.719C237.046 180.012 237.002 180.323 237.021 180.634V181.629Z" fill="#263238"/>
<path d="M173.606 331.548C173.69 323.833 175.812 316.278 179.756 309.649C183.701 303.019 189.329 297.55 196.068 293.796C205.506 288.648 216.506 287.309 226.999 284.898C237.493 282.487 248.372 278.506 254.859 269.917C263.627 258.309 261.954 241.809 268.286 228.733C271.23 222.83 275.697 217.819 281.225 214.218C286.753 210.618 293.142 208.559 299.732 208.253V407.747C299.732 410.962 298.455 414.046 296.181 416.319C293.907 418.593 290.824 419.87 287.608 419.87H185.747C184.153 419.871 182.576 419.558 181.103 418.95C179.631 418.341 178.293 417.448 177.165 416.323C176.038 415.197 175.143 413.86 174.533 412.389C173.922 410.917 173.607 409.34 173.606 407.747V331.548Z" fill="#A8CADD"/>
<path d="M195.056 227.644C195.056 220.248 198.934 215.838 204.314 215.838C209.693 215.838 213.597 220.248 213.597 227.644C213.597 235.04 209.685 239.458 204.314 239.458C198.943 239.458 195.056 235.04 195.056 227.644ZM211.143 227.644C211.143 221.44 208.355 218.026 204.279 218.026C200.204 218.026 197.415 221.458 197.415 227.644C197.415 233.83 200.204 237.27 204.279 237.27C208.355 237.27 211.161 233.83 211.161 227.644H211.143Z" fill="#263238"/>
<path d="M233.786 227.446C233.786 235.34 229.496 239.458 223.173 239.458C221.257 239.54 219.354 239.104 217.664 238.197L218.625 236.275C219.993 237.065 221.56 237.444 223.138 237.365C228.149 237.365 231.367 234.147 231.367 227.841C231.367 227.318 231.367 226.648 231.264 225.953C230.105 228.527 227.385 229.934 224.168 229.934C219.552 229.934 216.334 227.215 216.334 222.967C216.334 218.72 219.766 215.838 224.262 215.838C230.431 215.812 233.786 220.102 233.786 227.446ZM230.5 222.839C230.5 220.265 228.381 217.862 224.365 217.862C221.011 217.862 218.694 219.819 218.694 222.899C218.694 225.979 220.95 227.91 224.528 227.91C228.106 227.91 230.5 225.722 230.5 222.839Z" fill="#263238"/>
<path d="M237.27 223.465C237.259 223.23 237.297 222.995 237.381 222.775C237.465 222.554 237.594 222.354 237.759 222.186C237.924 222.018 238.122 221.885 238.34 221.797C238.559 221.708 238.793 221.666 239.028 221.672C239.264 221.671 239.497 221.716 239.715 221.806C239.932 221.896 240.13 222.028 240.296 222.195C240.462 222.362 240.593 222.56 240.682 222.778C240.771 222.996 240.815 223.23 240.813 223.465C240.818 223.944 240.633 224.405 240.298 224.747C239.964 225.09 239.507 225.286 239.028 225.293C238.793 225.289 238.56 225.239 238.343 225.145C238.127 225.052 237.931 224.916 237.768 224.746C237.604 224.576 237.476 224.375 237.391 224.155C237.305 223.936 237.264 223.701 237.27 223.465ZM237.27 237.596C237.259 237.361 237.297 237.126 237.381 236.906C237.465 236.686 237.594 236.485 237.759 236.317C237.924 236.149 238.122 236.016 238.34 235.928C238.559 235.84 238.793 235.797 239.028 235.803C239.264 235.802 239.497 235.848 239.715 235.938C239.932 236.027 240.13 236.16 240.296 236.326C240.462 236.493 240.593 236.691 240.682 236.91C240.771 237.128 240.815 237.361 240.813 237.596C240.818 238.075 240.633 238.536 240.298 238.879C239.964 239.221 239.507 239.417 239.028 239.424C238.793 239.421 238.56 239.371 238.343 239.277C238.127 239.183 237.931 239.047 237.768 238.877C237.604 238.707 237.476 238.506 237.391 238.287C237.305 238.067 237.264 237.832 237.27 237.596Z" fill="#263238"/>
<path d="M260.127 237.133V239.261H243.825V237.545L253.477 228.107C256.103 225.533 256.6 223.963 256.6 222.367C256.6 219.681 254.704 218.025 251.161 218.025C249.978 217.951 248.794 218.144 247.697 218.59C246.599 219.035 245.616 219.722 244.82 220.599L243.104 219.132C244.897 217.013 247.78 215.82 251.332 215.82C256.043 215.82 259.054 218.206 259.054 222.084C259.054 224.315 258.359 226.305 255.236 229.351L247.342 237.073L260.127 237.133Z" fill="#263238"/>
<path d="M262.975 227.644C262.975 220.248 266.853 215.838 272.233 215.838C277.613 215.838 281.517 220.248 281.517 227.644C281.517 235.04 277.604 239.458 272.233 239.458C266.862 239.458 262.975 235.04 262.975 227.644ZM279.063 227.644C279.063 221.44 276.274 218.026 272.199 218.026C268.123 218.026 265.335 221.458 265.335 227.644C265.335 233.83 268.183 237.262 272.276 237.262C276.369 237.262 279.063 233.83 279.063 227.644Z" fill="#263238"/>
<path d="M212.827 198.155C214.773 189.103 209.012 180.187 199.959 178.241C190.907 176.295 181.991 182.057 180.045 191.109C178.099 200.162 183.861 209.078 192.913 211.023C201.966 212.969 210.881 207.208 212.827 198.155Z" fill="#C0DCEB"/>
<path d="M105.524 328.004C104.314 327.146 102.821 326.786 101.474 326.151C100.127 325.516 98.8226 324.435 98.6939 322.925C98.5137 320.728 100.933 319.072 101.079 316.919C101.277 313.821 97.0895 312.131 96.4803 309.094C95.9741 306.571 98.1105 304.195 98.0247 301.621C97.9389 299.047 95.7081 297.133 94.6956 294.757C92.3276 289.283 96.6862 282.221 93.3829 277.254C92.3811 276.004 91.2604 274.855 90.0367 273.822C88.9041 272.689 87.9174 271.248 88.0547 269.609L81.86 266.794C79.7836 263.62 75.0732 263.5 71.564 264.855C68.0547 266.211 64.9145 268.639 61.268 269.549C59.4833 269.986 59.7407 267.344 57.9389 267.713C55.5623 268.193 52.6536 270.964 51.9329 273.264C51.2122 275.726 50.706 278.455 49.8308 280.874C48.8613 283.543 46.0041 285.405 45.7296 288.236C45.4207 291.531 48.827 294.242 48.8355 297.537C48.8355 301.097 44.9059 304.289 46.1586 307.627C46.8793 309.531 49.0758 310.552 49.848 312.44C50.9033 315.014 48.8012 317.914 48.99 320.72C49.1787 323.525 51.5125 325.585 53.7176 327.266C62.1139 333.82 71.5086 338.982 81.5425 342.556C85.8926 344.049 90.4743 345.19 95.056 344.778C99.6377 344.366 104.245 342.204 106.648 338.24C108.612 335.023 108.595 330.209 105.524 328.004Z" fill="#263238"/>
<path d="M87.806 268.056C87.2428 265.803 86.0898 263.741 84.4656 262.081C82.8414 260.422 80.8046 259.225 78.5645 258.613C76.3244 258.002 73.9619 257.998 71.7198 258.602C69.4776 259.206 67.4367 260.396 65.8069 262.05C64.4856 263.388 63.4388 265.027 61.8773 266.074C60.1098 267.266 59.8524 266.932 57.879 267.695C55.9056 268.459 52.2763 273.976 52.3363 276.104L51.3496 285.422C51.4268 287.601 54.2325 288.854 56.2917 288.116C58.3509 287.378 59.7237 285.473 60.8219 283.585C61.9202 281.698 62.924 279.656 64.7258 278.446C67.6859 276.361 71.7014 277.082 75.2449 277.803C78.7884 278.523 82.8983 279.047 85.6696 276.713C88.0548 274.662 88.5696 271.084 87.806 268.056Z" fill="#263238"/>
<path d="M89.7622 281.355C89.359 275.289 85.3264 267.858 79.286 268.485L60.41 273.298C59.5259 273.394 58.7102 273.819 58.124 274.488C57.5377 275.157 57.2237 276.021 57.244 276.91L59.3633 322.384H59.226C59.226 322.384 66.948 338.643 79.3718 334.722C81.8429 333.941 79.5949 327.807 80.0926 325.027H80.2127C80.2127 324.701 80.2127 324.392 80.2127 324.074C80.4569 322.001 80.4828 319.907 80.2899 317.828C80.2899 314.156 80.2899 312.68 80.2899 312.68C80.2899 312.68 88.0119 311.376 89.6164 301.269C90.4658 296.335 90.1998 288.09 89.7622 281.355Z" fill="#FFBE9D"/>
<path d="M88.2006 289.145C88.2053 289.484 88.0767 289.812 87.8425 290.057C87.6082 290.303 87.2871 290.447 86.9479 290.458C86.7831 290.471 86.6174 290.451 86.4604 290.399C86.3035 290.347 86.1585 290.264 86.0339 290.155C85.9092 290.047 85.8075 289.914 85.7347 289.766C85.6618 289.618 85.6192 289.456 85.6095 289.291C85.607 288.952 85.7363 288.626 85.9701 288.381C86.2039 288.136 86.5238 287.992 86.8622 287.978C87.0272 287.964 87.1934 287.984 87.3509 288.035C87.5083 288.087 87.6538 288.169 87.7787 288.278C87.9036 288.387 88.0053 288.52 88.0777 288.669C88.1502 288.818 88.192 288.98 88.2006 289.145Z" fill="#263238"/>
<path d="M87.9776 285.645C87.8232 285.816 86.8365 285.096 85.4036 285.096C83.9708 285.096 82.9926 285.808 82.8296 285.636C82.6666 285.465 82.9154 285.25 83.3616 284.933C83.9654 284.511 84.6845 284.287 85.4208 284.289C86.1448 284.288 86.8506 284.517 87.4371 284.941C87.909 285.31 88.0634 285.568 87.9776 285.645Z" fill="#263238"/>
<path d="M75.0132 289.6C75.0179 289.937 74.8902 290.262 74.6576 290.506C74.425 290.75 74.106 290.893 73.7691 290.904C73.6041 290.918 73.4379 290.899 73.2804 290.847C73.123 290.796 72.9775 290.713 72.8526 290.604C72.7277 290.496 72.626 290.363 72.5535 290.214C72.4811 290.065 72.4393 289.903 72.4307 289.737C72.426 289.4 72.5537 289.075 72.7863 288.831C73.0189 288.587 73.3379 288.444 73.6748 288.433C73.8398 288.419 74.006 288.438 74.1635 288.49C74.3209 288.541 74.4664 288.624 74.5913 288.733C74.7162 288.842 74.8179 288.975 74.8904 289.124C74.9628 289.273 75.0046 289.435 75.0132 289.6Z" fill="#263238"/>
<path d="M74.2668 285.936C74.1124 286.108 73.1257 285.379 71.6928 285.387C70.2599 285.396 69.2818 286.099 69.1188 285.928C68.9558 285.756 69.2046 285.542 69.6508 285.216C70.2568 284.8 70.975 284.578 71.71 284.581C72.4331 284.577 73.1387 284.803 73.7263 285.224C74.1982 285.559 74.344 285.859 74.2668 285.936Z" fill="#263238"/>
<path d="M79.3547 296.275C80.0884 296.038 80.8498 295.897 81.6198 295.855C81.9716 295.855 82.3148 295.752 82.3748 295.503C82.3995 295.135 82.316 294.768 82.1346 294.448C81.7914 293.59 81.4396 292.689 81.0707 291.736C79.6035 287.884 78.4967 284.709 78.694 284.649C78.8914 284.589 80.1698 287.669 81.637 291.513C81.9887 292.466 82.3319 293.375 82.6494 294.242C82.8751 294.671 82.9419 295.166 82.8382 295.64C82.7866 295.766 82.7074 295.878 82.6063 295.969C82.5053 296.059 82.3851 296.126 82.2547 296.164C82.0581 296.213 81.8568 296.242 81.6541 296.249C80.8916 296.352 80.1193 296.361 79.3547 296.275Z" fill="#263238"/>
<path d="M80.3585 312.766C75.5986 312.849 70.9089 311.611 66.8107 309.188C66.8107 309.188 70.1054 316.121 80.2212 315.194L80.3585 312.766Z" fill="#EB996E"/>
<path d="M78.7712 299.639C78.5061 299.303 78.1596 299.041 77.7646 298.877C77.3697 298.714 76.9393 298.654 76.5147 298.703C76.2072 298.732 75.9087 298.823 75.6373 298.971C75.366 299.118 75.1274 299.319 74.936 299.561C74.7482 299.794 74.6368 300.078 74.6168 300.376C74.5969 300.674 74.6694 300.971 74.8244 301.226C75.0522 301.473 75.3477 301.648 75.6742 301.729C76.0006 301.81 76.3436 301.793 76.6605 301.681C77.3174 301.448 77.9212 301.086 78.4366 300.617C78.5937 300.503 78.7276 300.36 78.8313 300.196C78.8833 300.121 78.9111 300.031 78.9111 299.939C78.9111 299.847 78.8833 299.757 78.8313 299.682" fill="#EB996E"/>
<path d="M75.2534 297.245C75.4765 297.245 75.4851 298.746 76.7807 299.819C78.0762 300.891 79.6893 300.72 79.7064 300.934C79.7236 301.149 79.3461 301.226 78.6683 301.243C77.7778 301.252 76.9124 300.949 76.223 300.385C75.5653 299.847 75.1411 299.075 75.0389 298.231C74.9789 297.614 75.1505 297.236 75.2534 297.245Z" fill="#263238"/>
<path d="M74.9359 283.491C74.7986 283.877 73.4 283.697 71.7698 283.894C70.1396 284.092 68.8098 284.546 68.5867 284.212C68.4923 284.049 68.7239 283.688 69.2559 283.354C69.9594 282.883 70.7657 282.589 71.6068 282.496C72.4448 282.397 73.2942 282.497 74.0865 282.788C74.6442 283.019 74.9359 283.311 74.9359 283.491Z" fill="#263238"/>
<path d="M87.4542 281.612C87.214 281.929 86.253 281.612 85.0947 281.612C83.9364 281.612 82.9669 281.835 82.7352 281.5C82.6408 281.337 82.7953 281.02 83.2157 280.72C83.7906 280.36 84.4593 280.178 85.1374 280.198C85.8154 280.218 86.4723 280.438 87.0252 280.831C87.4285 281.131 87.5658 281.458 87.4542 281.612Z" fill="#263238"/>
<path d="M78.9514 265.928L78.0934 264.83C72.2546 265.501 66.5339 266.961 61.0878 269.171C58.9085 270.029 56.712 271.11 55.2191 272.929C53.1771 275.426 52.851 278.875 52.6451 282.093C51.7871 294.362 51.0235 306.975 54.8845 318.669C55.8111 317.176 57.6301 316.507 59.3547 316.172C61.0793 315.838 62.8896 315.726 64.5027 314.928C65.3503 314.468 66.0931 313.837 66.6839 313.075C67.2747 312.313 67.7006 311.436 67.9347 310.501C68.3925 308.609 68.1708 306.617 67.3083 304.872C66.3731 302.925 64.7343 301.046 65.1119 298.927C65.4894 296.807 68.0805 295.443 68.6811 293.264C69.7193 289.497 64.3911 286.117 65.498 282.359C65.7409 281.682 66.1196 281.061 66.611 280.536C67.1023 280.011 67.6958 279.592 68.3551 279.304C69.6421 278.661 71.0578 278.3 72.362 277.691C74.5282 276.635 76.3201 274.943 77.4978 272.841C78.6755 270.738 79.1827 268.326 78.9514 265.928Z" fill="#263238"/>
<path d="M129.985 342.993L118.162 361.389C118.619 362.06 119.241 362.602 119.969 362.962C120.696 363.323 121.504 363.49 122.315 363.448C125.163 363.328 129.076 356.224 129.539 354.791C130.002 353.358 129.376 351.968 129.797 351.007C130.217 350.046 130.054 347.421 130.054 347.421C129.994 347.575 132.611 344.074 129.985 342.993Z" fill="#FFBE9D"/>
<path d="M114.893 361.38L121.054 337.022C121.148 336.663 121.312 336.326 121.537 336.032C121.763 335.737 122.045 335.49 122.366 335.306L131.315 330.2C131.579 330.052 131.889 330.006 132.184 330.071C132.48 330.136 132.742 330.307 132.92 330.552C133.025 330.698 133.097 330.865 133.131 331.041C133.165 331.217 133.16 331.399 133.117 331.573L126.596 357.21L114.893 361.38Z" fill="#263238"/>
<path d="M111.787 380.256L126.09 353.838L120.702 346.863L100.573 362.135L105.85 376.653L111.787 380.256Z" fill="#37B7FE"/>
<path d="M126.261 359.57C126.386 359.216 126.478 358.851 126.536 358.48C126.631 357.452 126.529 356.416 126.236 355.426V355.366V355.306C126.361 355.106 126.442 354.881 126.473 354.647C126.504 354.413 126.485 354.176 126.416 353.95C126.219 353.441 125.868 353.006 125.412 352.706L125.258 352.603L125.361 352.44L126.982 350.02C127.132 349.827 127.259 349.617 127.36 349.394C127.425 349.184 127.406 348.956 127.308 348.759C127.077 348.304 126.735 347.914 126.313 347.626L126.107 347.481L126.27 347.292C126.708 346.794 127.197 346.297 127.686 345.79C128.523 344.929 129.311 344.021 130.045 343.07C130.377 342.634 130.665 342.166 130.903 341.672C131.015 341.452 131.088 341.214 131.118 340.968C131.118 340.745 131.032 340.625 130.903 340.599H130.852C130.576 340.571 130.298 340.616 130.045 340.728C129.753 340.836 129.467 340.959 129.187 341.097C128.664 341.38 128.175 341.672 127.729 341.955C126.871 342.539 126.056 343.088 125.429 343.542L123.962 344.606C123.799 344.75 123.617 344.871 123.422 344.967C123.555 344.795 123.711 344.642 123.885 344.512C124.202 344.229 124.674 343.834 125.283 343.345C125.893 342.856 126.648 342.29 127.54 341.681C127.995 341.372 128.475 341.063 129.016 340.762C129.293 340.609 129.579 340.475 129.874 340.359C130.206 340.196 130.582 340.145 130.946 340.213H130.895C131.079 340.239 131.245 340.336 131.358 340.484C131.47 340.632 131.52 340.818 131.495 341.003C131.467 341.301 131.386 341.591 131.255 341.861C131.005 342.386 130.7 342.884 130.346 343.345C129.609 344.317 128.812 345.243 127.96 346.116C127.471 346.623 126.982 347.12 126.545 347.609V347.275C127.038 347.613 127.434 348.074 127.694 348.613C127.827 348.908 127.845 349.241 127.746 349.548C127.634 349.803 127.49 350.042 127.317 350.261C126.733 351.119 126.176 351.925 125.652 352.68V352.406C126.169 352.762 126.559 353.272 126.768 353.864C126.847 354.135 126.867 354.42 126.827 354.7C126.787 354.98 126.688 355.248 126.536 355.486V355.366C126.81 356.395 126.866 357.471 126.699 358.523C126.649 358.806 126.559 359.08 126.433 359.338C126.33 359.493 126.279 359.578 126.261 359.57Z" fill="#EB996E"/>
<path d="M132.92 330.544C132.696 330.745 132.448 330.918 132.182 331.059C131.693 331.367 130.981 331.805 130.088 332.337L126.956 334.216L125.103 335.288C124.429 335.614 123.8 336.027 123.233 336.515C122.74 337.056 122.413 337.725 122.289 338.446C122.1 339.167 121.92 339.853 121.748 340.522L120.813 344.031C120.539 345.027 120.307 345.833 120.135 346.382C120.073 346.68 119.972 346.969 119.835 347.24C119.841 346.949 119.887 346.661 119.972 346.382C120.084 345.816 120.273 345.001 120.504 343.997C120.736 342.993 121.036 341.766 121.362 340.462C121.522 339.793 121.694 339.098 121.877 338.377C122.016 337.578 122.379 336.834 122.924 336.232C123.526 335.724 124.189 335.291 124.897 334.945L126.768 333.898L129.942 332.182C130.852 331.685 131.59 331.324 132.104 331.033C132.352 330.832 132.626 330.667 132.92 330.544Z" fill="#152A34"/>
<path d="M126.991 338.866C126.768 339.398 126.742 339.896 126.931 339.973C127.119 340.05 127.454 339.69 127.677 339.158C127.9 338.626 127.926 338.137 127.737 338.051C127.548 337.965 127.214 338.343 126.991 338.866Z" fill="#EAF7FF"/>
<path d="M82.4434 324.1C85.5193 325.208 88.3466 326.911 90.764 329.112C93.1814 331.313 95.1413 333.968 96.5318 336.927L115.734 377.785L132.276 384.495L117.69 388.69L104.734 379.175L82.4434 324.1Z" fill="#37B7FE"/>
<path d="M117.707 388.69L110.74 394.061L75.9741 358.3L56.1028 322.401L58.4023 315.726L73.7691 322.127L79.2688 330.261L80.4958 319.965L81.4825 321.346L83.0869 325.696C83.0869 325.696 98.1706 338.249 101.431 348.193C104.108 356.524 103.293 373.684 104.966 378.317L117.707 388.69Z" fill="#EAF7FF"/>
<path d="M52.3792 321.938C52.1476 322.633 37.5187 328.51 36.8237 333.633C36.1287 338.755 47.3342 378.36 47.3342 378.36L65.1034 394.062H110.74L96.2659 366.957C93.146 361.113 89.1985 355.749 84.5457 351.033C80.2557 346.691 75.1077 341.32 72.4135 338.12C69.5221 334.645 57.2613 318.386 57.2613 318.386L52.3792 321.938Z" fill="#37B7FE"/>
<path d="M61.5341 323.56C62.4209 323.878 63.2815 324.265 64.1081 324.718C65.6782 325.49 67.8318 326.571 70.1999 327.798L72.894 329.205L72.5851 329.411C72.4821 327.81 72.5772 326.202 72.8682 324.624C72.9495 323.999 73.12 323.389 73.3745 322.813C73.3254 323.435 73.2452 324.053 73.1342 324.667C72.9333 326.228 72.8902 327.806 73.0055 329.377V329.754L72.6709 329.583L70.0111 328.21C67.643 326.983 65.5152 325.851 64.0051 325.01C63.1456 324.59 62.3195 324.105 61.5341 323.56Z" fill="#263238"/>
<path d="M96.7121 359.681C96.4387 359.315 96.1949 358.928 95.9828 358.523L94.1209 355.288C92.5594 352.551 90.38 348.785 87.9262 344.658C85.4723 340.531 83.1814 336.833 81.5255 334.156L79.5607 330.981C79.3051 330.603 79.0812 330.204 78.8914 329.789C79.2119 330.126 79.4993 330.494 79.7494 330.887C80.2556 331.608 80.9678 332.663 81.8344 333.984C83.5504 336.618 85.8841 340.299 88.3552 344.435C90.8262 348.57 92.9455 352.363 94.4384 355.134C95.1934 356.524 95.7854 357.648 96.1544 358.437C96.3739 358.836 96.5604 359.252 96.7121 359.681Z" fill="#263238"/>
<g opacity="0.3">
<path d="M89.685 387.292C92.3362 387.738 95.0561 388.15 97.6987 387.687C100.341 387.223 102.924 385.516 103.756 382.959C103.887 382.125 104.227 381.337 104.743 380.668C105.764 379.724 107.394 380.308 108.776 380.179C109.544 380.062 110.276 379.768 110.913 379.322C111.55 378.875 112.075 378.288 112.448 377.605C113.185 376.239 113.703 374.765 113.984 373.238C114.206 372.502 114.299 371.732 114.258 370.964C114.231 370.582 114.109 370.213 113.902 369.89C113.695 369.568 113.41 369.303 113.074 369.12C112.027 368.648 110.843 369.334 109.917 369.978C102.392 375.4 95.528 381.698 88.664 387.961" fill="black"/>
</g>
<path d="M106.733 357.056C106.733 357.056 109.35 351.05 110.74 350.192C112.13 349.334 119.071 345.31 119.071 345.31L118.213 348.613L125 343.903C125.858 343.345 130.672 338.944 131.53 340.66C132.156 341.895 128.201 345.155 127.669 345.885C126.347 347.695 126.811 347.532 126.811 347.532C126.811 347.532 128.243 348.39 127.523 349.677C126.934 350.665 126.286 351.616 125.584 352.526C125.584 352.526 127.471 353.195 126.373 355.649C126.69 356.668 126.755 357.748 126.562 358.798C126.253 360.634 122.941 364.109 122.941 364.109L106.382 371.968L99.7236 360.677L106.733 357.056Z" fill="#FFBE9D"/>
<path d="M68.2865 345.765L78.8742 368.364L102.392 358.171C102.392 358.171 112.13 363.851 110.783 370.063L89.5907 387.412C87.6099 389.039 85.3193 390.247 82.8577 390.962C80.3962 391.678 77.8149 391.886 75.2706 391.573C72.5408 391.239 69.9164 390.315 67.5798 388.864C65.2432 387.414 63.2504 385.472 61.74 383.173L46.4332 359.905L37.8532 345.911C36.4788 343.731 35.7796 341.194 35.8437 338.619C35.9078 336.043 36.7324 333.544 38.2136 331.436C39.0225 330.299 40.049 329.334 41.2338 328.596C45.069 326.271 56.4289 325.258 68.2865 345.765Z" fill="#37B7FE"/>
<path d="M120.35 347.086C119.293 347.997 118.142 348.794 116.918 349.463C115.765 350.256 114.534 350.932 113.246 351.479C114.311 350.579 115.46 349.783 116.678 349.102C117.834 348.313 119.063 347.638 120.35 347.086Z" fill="#EB996E"/>
<path d="M126.965 346.863C126.048 348.069 125.016 349.184 123.885 350.192C122.853 351.3 121.725 352.313 120.513 353.221C121.435 352.019 122.466 350.904 123.593 349.892C124.624 348.783 125.753 347.769 126.965 346.863Z" fill="#EB996E"/>
<path d="M126.081 351.959C125.718 352.708 125.23 353.389 124.64 353.976C123.782 355.014 122.924 355.803 122.872 355.692C123.24 354.941 123.73 354.256 124.322 353.667C124.81 353.004 125.404 352.427 126.081 351.959Z" fill="#EB996E"/>
<path d="M126.416 355.391C126.51 355.469 126.141 356.018 125.678 356.687C125.215 357.356 124.82 357.888 124.708 357.828C124.597 357.768 124.854 357.133 125.335 356.447C125.815 355.76 126.304 355.314 126.416 355.391Z" fill="#EB996E"/>
<path d="M85.987 389.677C85.987 389.677 85.987 389.634 86.0899 389.574L86.4245 389.291L87.7544 388.219L92.8338 384.203L110.972 370.012L110.895 370.158C110.904 368.981 110.679 367.815 110.234 366.726C109.725 365.585 109.071 364.515 108.286 363.542C106.572 361.517 104.544 359.779 102.28 358.394H102.478L90.3199 363.68L78.9599 368.536L78.7712 368.613L78.6768 368.433C75.5623 362.298 72.6708 356.533 69.7708 351.522C68.3207 349.008 66.8879 346.683 65.5322 344.512C64.1766 342.341 62.9582 340.334 61.6798 338.6C59.7984 335.808 57.2964 333.488 54.3697 331.822C53.8634 331.522 53.3915 331.29 52.9797 331.093C52.5679 330.896 52.2332 330.733 51.9415 330.612L51.3066 330.329C51.2316 330.303 51.1596 330.268 51.0921 330.226C53.6377 331.099 55.9914 332.453 58.0247 334.216C59.4828 335.49 60.7872 336.93 61.9115 338.506C63.1985 340.222 64.4855 342.247 65.8154 344.409C67.1453 346.571 68.6382 348.888 70.1054 351.402C73.0569 356.412 75.9484 362.178 79.0801 368.304L78.7969 368.201L90.1139 363.276L102.272 358L102.375 357.957L102.469 358.017C104.775 359.434 106.837 361.213 108.578 363.285C109.38 364.292 110.052 365.396 110.577 366.571C111.036 367.729 111.267 368.964 111.255 370.209V370.295L111.178 370.355L92.9539 384.383L87.8059 388.313L86.4417 389.343L86.0813 389.6L85.987 389.677Z" fill="#263238"/>
<path d="M77.4499 375.469C77.3212 375.417 77.9733 373.804 78.3079 371.719C78.6425 369.634 78.6511 367.893 78.7884 367.884C79.0798 369.172 79.0798 370.509 78.7884 371.797C78.6253 373.106 78.1677 374.361 77.4499 375.469Z" fill="#263238"/>
<path d="M206.605 441.852L218.9 457.253C218.9 457.253 238.685 449.934 241.208 452.56L212.216 477.502L192.079 454.336L206.605 441.852Z" fill="#37B7FE"/>
<g opacity="0.6">
<path d="M208.853 463.705C208.646 464.029 208.567 464.418 208.63 464.797C208.694 465.175 208.895 465.517 209.196 465.756C209.512 465.975 209.9 466.063 210.28 466.004C210.66 465.945 211.003 465.743 211.238 465.438C211.455 465.093 211.536 464.679 211.466 464.277C211.397 463.874 211.181 463.512 210.86 463.259C210.506 463.067 210.091 463.02 209.702 463.127C209.314 463.234 208.982 463.488 208.775 463.834" fill="#EAF7FF"/>
</g>
<g opacity="0.6">
<path d="M212.216 477.502L210.277 475.082L238.814 452.071C238.814 452.071 240.59 451.522 241.225 452.56L212.216 477.502Z" fill="#EAF7FF"/>
</g>
<path d="M219.243 456.704C219.363 456.85 218.711 457.562 218.385 458.574C218.059 459.587 218.222 460.548 218.042 460.599C217.862 460.651 217.373 459.656 217.767 458.386C218.162 457.116 219.166 456.55 219.243 456.704Z" fill="#263238"/>
<path d="M223.37 455.348C223.516 455.46 223.113 456.206 223.147 457.245C223.181 458.283 223.584 459.003 223.439 459.124C223.293 459.244 222.512 458.514 222.495 457.253C222.478 455.992 223.25 455.194 223.37 455.348Z" fill="#263238"/>
<path d="M228.226 457.511C228.123 457.648 227.317 457.107 227.008 456.026C226.699 454.945 227.111 454.061 227.265 454.122C227.42 454.182 227.377 454.98 227.634 455.838C227.892 456.696 228.355 457.373 228.226 457.511Z" fill="#263238"/>
<path d="M216.051 453.478C216.103 453.658 215.288 454.027 214.532 454.765C213.777 455.503 213.374 456.292 213.194 456.241C213.014 456.189 213.194 455.16 214.052 454.302C214.91 453.444 216.025 453.332 216.051 453.478Z" fill="#263238"/>
<g opacity="0.3">
<path d="M209.041 444.906L211.229 447.652L196.866 459.767L194.79 457.382L209.041 444.906Z" fill="black"/>
</g>
<path d="M213.512 450.449C213.572 450.501 213.083 451.067 212.053 451.685C211.453 452.048 210.81 452.337 210.14 452.543C209.74 452.659 209.333 452.751 208.921 452.817C208.68 452.854 208.434 452.854 208.192 452.817C208.015 452.789 207.85 452.706 207.723 452.58C207.595 452.454 207.51 452.291 207.48 452.114C207.465 451.954 207.488 451.792 207.548 451.643C207.607 451.494 207.702 451.361 207.823 451.256C208.002 451.091 208.208 450.957 208.432 450.861C209.441 450.348 210.561 450.095 211.693 450.123C212.347 450.075 213 450.231 213.563 450.569C213.563 450.672 212.825 450.509 211.701 450.569C211.047 450.62 210.402 450.749 209.779 450.955C209.415 451.081 209.062 451.236 208.724 451.419C208.346 451.599 208.08 451.822 208.123 452.028C208.123 452.105 208.123 452.122 208.295 452.157C208.474 452.181 208.656 452.181 208.835 452.157C209.219 452.105 209.6 452.033 209.977 451.942C210.616 451.775 211.239 451.551 211.838 451.273C212.375 450.957 212.934 450.681 213.512 450.449Z" fill="#263238"/>
<path d="M213.503 450.81C213.503 450.87 212.756 450.604 211.916 449.729C211.135 448.904 210.598 447.879 210.363 446.768C210.277 446.51 210.259 446.233 210.312 445.965C210.364 445.698 210.485 445.448 210.663 445.241C210.793 445.13 210.952 445.06 211.122 445.04C211.292 445.02 211.464 445.051 211.615 445.13C211.837 445.234 212.042 445.37 212.225 445.533C212.662 445.91 213.02 446.371 213.278 446.888C213.535 447.405 213.688 447.968 213.726 448.545C213.812 449.78 213.366 450.458 213.306 450.424C213.346 449.815 213.346 449.205 213.306 448.596C213.202 447.964 212.959 447.363 212.593 446.837C212.387 446.53 212.135 446.255 211.847 446.022C211.538 445.756 211.212 445.602 211.118 445.73C211.037 445.868 210.987 446.021 210.97 446.179C210.954 446.337 210.972 446.498 211.023 446.648C211.09 447.022 211.197 447.387 211.341 447.738C211.577 448.353 211.901 448.931 212.302 449.454C212.954 450.321 213.563 450.715 213.503 450.81Z" fill="#263238"/>
<path d="M193.246 489.334L192.482 509.48C192.482 509.48 212.705 517.022 212.928 520.762L173.803 520.685L173.709 489.24L193.246 489.334Z" fill="#37B7FE"/>
<g opacity="0.6">
<path d="M180.384 507.764C180.008 507.877 179.687 508.126 179.483 508.462C179.279 508.797 179.206 509.196 179.277 509.583C179.381 509.962 179.624 510.288 179.958 510.495C180.293 510.702 180.693 510.775 181.079 510.698C181.474 510.57 181.809 510.303 182.022 509.946C182.235 509.589 182.312 509.168 182.237 508.759C182.092 508.374 181.804 508.061 181.433 507.883C181.062 507.706 180.637 507.678 180.247 507.807" fill="#EAF7FF"/>
</g>
<g opacity="0.6">
<path d="M173.803 520.685L173.923 517.51L211.358 518.772C211.358 518.772 213.074 519.535 212.902 520.762L173.803 520.685Z" fill="#EAF7FF"/>
</g>
<path d="M193.117 509.248C193.117 509.437 192.156 509.522 191.212 510.106C190.268 510.689 189.771 511.513 189.591 511.436C189.41 511.359 189.702 510.26 190.86 509.54C192.019 508.819 193.16 509.111 193.117 509.248Z" fill="#263238"/>
<path d="M197.218 510.964C197.218 511.144 196.429 511.47 195.777 512.277C195.125 513.083 194.919 513.941 194.747 513.933C194.575 513.924 194.438 512.843 195.27 511.856C196.103 510.87 197.21 510.809 197.218 510.964Z" fill="#263238"/>
<path d="M199.535 515.906C199.363 515.906 199.097 514.988 199.595 513.941C200.092 512.894 200.976 512.483 201.062 512.646C201.148 512.809 200.582 513.358 200.204 514.224C199.826 515.091 199.724 515.889 199.535 515.906Z" fill="#263238"/>
<path d="M192.782 504.675C192.696 504.846 191.821 504.58 190.74 504.675C189.659 504.769 188.818 505.087 188.724 504.924C188.63 504.761 189.436 504.066 190.706 504.014C191.976 503.963 192.877 504.52 192.782 504.675Z" fill="#263238"/>
<g opacity="0.3">
<path d="M193.091 493.323L192.962 496.91L173.735 496.704L173.718 493.461L193.091 493.323Z" fill="black"/>
</g>
<path d="M192.859 500.599C192.22 500.781 191.543 500.781 190.903 500.599C189.776 500.394 188.698 499.974 187.729 499.364C187.507 499.244 187.306 499.087 187.137 498.9C187.016 498.763 186.943 498.59 186.928 498.408C186.912 498.226 186.955 498.044 187.051 497.888C187.15 497.753 187.279 497.644 187.428 497.568C187.577 497.492 187.742 497.451 187.909 497.45C188.156 497.45 188.401 497.484 188.638 497.553C189.767 497.829 190.808 498.383 191.667 499.166C192.568 500.024 192.877 500.719 192.808 500.754C192.739 500.788 192.285 500.222 191.367 499.527C190.837 499.129 190.261 498.798 189.651 498.54C189.287 498.39 188.911 498.272 188.527 498.188C188.115 498.077 187.763 498.077 187.669 498.257C187.574 498.437 187.626 498.36 187.711 498.48C187.841 498.612 187.988 498.725 188.149 498.815C188.478 499.036 188.822 499.234 189.179 499.407C189.786 499.71 190.421 499.954 191.075 500.136C191.679 500.253 192.275 500.407 192.859 500.599Z" fill="#263238"/>
<path d="M192.611 500.874C192.238 500.318 192.057 499.655 192.096 498.986C192.049 497.825 192.315 496.672 192.868 495.649C192.975 495.391 193.146 495.165 193.366 494.992C193.585 494.819 193.845 494.705 194.121 494.662C194.302 494.659 194.48 494.709 194.633 494.807C194.786 494.904 194.906 495.045 194.979 495.211C195.078 495.441 195.148 495.684 195.185 495.932C195.27 496.517 195.238 497.114 195.09 497.687C194.943 498.26 194.683 498.798 194.327 499.269C193.555 500.282 192.757 500.514 192.739 500.445C192.722 500.376 193.349 499.982 193.932 499.012C194.273 498.45 194.487 497.821 194.558 497.167C194.609 496.792 194.609 496.411 194.558 496.035C194.498 495.623 194.344 495.288 194.189 495.331C194.035 495.374 193.657 495.64 193.494 495.966C193.303 496.306 193.142 496.662 193.014 497.03C192.791 497.66 192.661 498.319 192.628 498.986C192.482 500.136 192.714 500.848 192.611 500.874Z" fill="#263238"/>
<path d="M173.409 394.062L212.122 445.507L194.009 461.063L175.374 436.687L173.409 394.062Z" fill="#263238"/>
<path d="M91.4353 396.524C91.4353 396.524 153.726 377.545 159.432 377.785C165.137 378.025 175.965 398.626 175.965 398.626L158.479 397.991C153.992 408.999 145.704 420.299 136.369 431.745L100.616 430.08L91.4353 396.524Z" fill="#263238"/>
<path d="M142.349 381.526C142.349 381.646 135.983 383.654 128.055 386.013C120.127 388.373 113.666 390.183 113.632 390.063C113.597 389.943 119.99 387.935 127.926 385.584C135.863 383.234 142.315 381.406 142.349 381.526Z" fill="#263238"/>
<path d="M156.823 397.656H174.31C178.565 397.66 182.716 398.981 186.189 401.44C189.663 403.898 192.29 407.372 193.709 411.384C195.072 415.254 195.672 419.35 195.476 423.448L194.112 494.662H170.577L170.148 471.925L167.171 428.708L146.793 429.566L135.245 428.845L156.823 397.656Z" fill="#263238"/>
<path d="M157.347 397.305C157.269 397.812 157.157 398.314 157.012 398.806C156.676 400.167 156.263 401.507 155.777 402.822C155.065 404.772 154.205 406.666 153.203 408.484C151.954 410.715 150.519 412.836 148.913 414.825C145.948 418.362 142.773 421.717 139.406 424.872L136.386 427.781C136.031 428.152 135.647 428.493 135.236 428.802C135.551 428.396 135.892 428.012 136.257 427.652C136.935 426.931 137.973 425.936 139.183 424.649C142.477 421.44 145.607 418.067 148.561 414.542C151.443 410.965 153.774 406.977 155.476 402.71C156.094 401.063 156.566 399.707 156.841 398.763C156.97 398.264 157.139 397.776 157.347 397.305Z" fill="#152A34"/>
<path d="M178.754 398.137C177.691 398.14 176.629 398.088 175.571 397.983C173.615 397.871 170.903 397.794 167.917 397.854C164.932 397.914 162.22 398.094 160.256 398.223C159.202 398.344 158.142 398.399 157.081 398.386C157.358 398.289 157.646 398.229 157.939 398.206C158.479 398.12 159.269 398.017 160.247 397.905C162.203 397.699 164.914 397.468 167.969 397.408C170.546 397.347 173.124 397.436 175.691 397.674C176.669 397.76 177.458 397.871 178.008 397.957C178.262 397.99 178.512 398.05 178.754 398.137Z" fill="#152A34"/>
<path d="M170.474 481.62C170.434 481.425 170.411 481.227 170.406 481.028C170.406 480.591 170.354 480.033 170.311 479.312C170.243 477.776 170.148 475.649 170.037 473.049C169.805 467.764 169.488 460.462 168.981 452.405C168.475 444.349 167.875 437.056 167.437 431.813C167.222 429.239 167.051 427.094 166.931 425.567C166.879 424.864 166.845 424.297 166.811 423.851C166.786 423.652 166.786 423.45 166.811 423.25C166.855 423.446 166.887 423.643 166.905 423.843L167.111 425.559C167.274 427.077 167.488 429.196 167.763 431.788C168.278 437.056 168.921 444.349 169.436 452.38C169.951 460.41 170.208 467.755 170.363 473.049C170.414 475.623 170.466 477.776 170.5 479.312C170.5 480.016 170.5 480.582 170.5 481.028C170.514 481.226 170.505 481.424 170.474 481.62Z" fill="#263238"/>
<path d="M195.511 420.737C195.639 420.737 195.554 437.039 195.331 457.142C195.107 477.245 194.816 493.547 194.696 493.547C194.576 493.547 194.653 477.245 194.884 457.133C195.116 437.022 195.391 420.737 195.511 420.737Z" fill="#152A34"/>
<path d="M176.309 418.077C174.581 418.752 172.901 419.543 171.281 420.445C169.744 421.49 168.279 422.636 166.896 423.877C167.161 423.388 167.509 422.949 167.926 422.581C169.804 420.665 172.127 419.241 174.687 418.437C175.203 418.225 175.751 418.103 176.309 418.077Z" fill="#263238"/>
<g opacity="0.3">
<path d="M135.245 428.81C139.998 429.668 145.206 428.236 149.273 425.696C153.334 423.157 156.279 419.17 157.51 414.542C158.033 412.491 158.188 410.363 158.711 408.313C159.124 406.208 160.248 404.308 161.894 402.933C163.885 401.449 168.758 400.505 170.251 398.514C170.251 398.223 164.434 398.892 162.486 399.003C160.358 399.115 156.798 399.656 156.875 399.407C156.312 401.469 155.624 403.494 154.816 405.473C150.577 412.757 141.268 423.491 135.245 428.845" fill="black"/>
</g>
<path d="M38.1793 479.167L44.803 522.47H51.3667L48.1321 479.338L38.1793 479.167Z" fill="#263238"/>
<path d="M154.687 479.338V522.47H161.62L164.202 479.167L154.687 479.338Z" fill="#263238"/>
<path d="M37.0037 345.37C37.0037 345.37 27.7287 345.739 24.8888 349.66C19.8866 356.524 22.7009 362.461 22.4177 364.486C22.1346 366.511 38.1792 479.167 38.1792 479.167H44.7858L164.168 480.273L169.934 466.348L167.171 428.673L135.245 428.811C135.245 428.811 122.169 391.282 110.74 388.776C103.018 387.06 84.8201 387.678 73.8463 388.244C71.1653 388.384 68.495 387.814 66.1044 386.592C63.7139 385.37 61.6876 383.54 60.2298 381.286L37.0037 345.37Z" fill="#152A34"/>
<path d="M142.847 474.739C142.847 474.739 142.186 474.825 140.916 474.885C139.646 474.945 137.776 474.988 135.356 475.005C130.509 475.074 123.482 475.091 114.764 475.083C97.2525 475.083 72.8424 474.937 45.2663 474.696H45.0861V474.525C44.5885 472.165 44.0823 469.737 43.5675 467.275C43.0527 464.812 42.5636 462.29 42.0574 459.759C36.0514 429.197 32.5508 401.192 30.6632 380.883C29.7108 370.733 29.1445 362.496 28.7841 356.799C28.6297 353.967 28.501 351.762 28.4238 350.244C28.4238 349.506 28.3637 348.939 28.338 348.528C28.3122 348.116 28.338 347.944 28.338 347.944C28.338 347.944 28.338 348.141 28.398 348.528C28.4581 348.914 28.4667 349.497 28.5182 350.244C28.6211 351.754 28.7756 353.959 28.9643 356.79C29.3762 362.479 29.9939 370.707 30.9806 380.857C32.894 401.14 36.4203 429.119 42.4092 459.664C42.9125 462.198 43.4159 464.701 43.9193 467.172C44.4226 469.643 44.9288 472.06 45.4379 474.422L45.2234 474.25L114.721 474.791L135.313 474.842H140.873C141.508 474.842 141.98 474.791 142.306 474.791L142.847 474.739Z" fill="#263238"/>
<path d="M141.585 480.076C141.579 479.894 141.597 479.713 141.637 479.535C141.697 479.141 141.766 478.634 141.86 478.017C141.954 477.399 142.1 476.55 142.203 475.606C142.306 474.662 142.478 473.598 142.555 472.405C142.632 471.213 142.787 469.926 142.838 468.519C142.889 467.112 142.932 465.627 142.958 464.048C142.941 460.631 142.741 457.217 142.358 453.821C141.944 450.429 141.354 447.061 140.59 443.731C139.869 440.659 139.097 437.931 138.351 435.657C138.016 434.516 137.63 433.512 137.321 432.611C137.012 431.71 136.729 430.947 136.463 430.329L135.931 428.888C135.857 428.724 135.805 428.55 135.777 428.373C135.873 428.525 135.953 428.685 136.017 428.853L136.626 430.26C136.892 430.878 137.21 431.633 137.484 432.526C137.759 433.418 138.222 434.422 138.582 435.563C139.363 437.819 140.178 440.556 140.925 443.637C141.713 446.979 142.317 450.361 142.735 453.77C143.117 457.188 143.306 460.626 143.301 464.066C143.301 465.653 143.25 467.154 143.138 468.562C143.027 469.969 142.932 471.273 142.804 472.457C142.675 473.641 142.512 474.722 142.375 475.657C142.237 476.592 142.1 477.373 141.963 478.06C141.826 478.746 141.731 479.175 141.654 479.57C141.648 479.74 141.625 479.91 141.585 480.076Z" fill="#263238"/>
<path d="M54.078 399.312C54.2246 399.163 54.3855 399.028 54.5585 398.909C54.9274 398.626 55.4165 398.266 55.9999 397.802L57.0553 397.022C57.4499 396.756 57.9133 396.498 58.3852 396.206C59.451 395.518 60.5601 394.899 61.7056 394.353L63.6962 393.418C64.3826 393.075 65.1462 392.826 65.9098 392.508C66.6734 392.191 67.4714 391.865 68.3122 391.599L70.8862 390.741C74.7739 389.597 78.748 388.77 82.7695 388.27C86.777 387.741 90.8167 387.494 94.8587 387.532C96.7206 387.532 98.4881 387.652 100.144 387.712C101.8 387.772 103.327 387.97 104.726 388.167C106.931 388.451 109.119 388.855 111.281 389.377L112.997 389.857C113.202 389.907 113.403 389.973 113.597 390.055C113.386 390.038 113.176 390.001 112.971 389.943L111.204 389.54C109.676 389.222 107.437 388.802 104.649 388.484C103.259 388.304 101.723 388.218 100.084 388.081C98.4452 387.944 96.652 387.901 94.8158 387.944C90.7994 387.934 86.7867 388.189 82.8038 388.708C78.8146 389.207 74.8702 390.016 71.0063 391.127L68.4323 391.925C67.5743 392.182 66.8107 392.526 66.0385 392.783C65.2663 393.04 64.5113 393.332 63.8249 393.641C63.1385 393.95 62.4692 394.276 61.8343 394.576C60.6909 395.106 59.5793 395.702 58.5053 396.361C58.0248 396.635 57.5701 396.884 57.1582 397.133L56.0943 397.888L54.61 398.918C54.4449 399.065 54.2669 399.197 54.078 399.312Z" fill="#263238"/>
<path d="M125.052 405.43C125.052 405.43 125.052 405.524 124.966 405.713C124.88 405.902 124.82 406.168 124.674 406.528C124.23 407.545 123.637 408.491 122.915 409.334C121.749 410.658 120.35 411.757 118.788 412.577C117.811 413.078 116.795 413.5 115.751 413.838C114.568 414.19 113.357 414.437 112.13 414.576C109.319 414.816 106.488 414.655 103.722 414.096C100.727 413.564 97.6129 412.697 94.2838 411.908C90.8616 411.004 87.3386 410.537 83.7991 410.518C81.9375 410.545 80.0889 410.834 78.3079 411.376C76.4761 411.941 74.753 412.811 73.2113 413.95C70.2105 416.278 67.6826 419.158 65.7639 422.435C63.7991 425.55 62.2461 428.768 60.6159 431.745C59.1072 434.592 57.3072 437.274 55.2448 439.75C53.4415 441.936 51.1919 443.712 48.6468 444.958C46.5337 445.977 44.2304 446.541 41.8858 446.614C40.1215 446.657 38.3678 446.329 36.7378 445.653C36.1377 445.402 35.5631 445.095 35.0218 444.735C34.5756 444.4 34.1638 444.109 33.9235 443.877L33.3315 443.251C33.1942 443.105 33.1342 443.028 33.1342 443.028C33.1342 443.028 33.22 443.088 33.3572 443.216L33.9836 443.808C34.2667 444.049 34.6528 444.323 35.0904 444.666C35.6353 445.003 36.2097 445.291 36.8064 445.524C38.4195 446.157 40.1458 446.449 41.8772 446.382C44.1763 446.299 46.4337 445.744 48.5095 444.752C51.0022 443.511 53.204 441.757 54.9703 439.604C57.0019 437.127 58.773 434.447 60.2555 431.608C61.8943 428.639 63.4473 425.413 65.4035 422.264C67.352 418.947 69.9179 416.035 72.9625 413.684C74.5429 412.52 76.3058 411.627 78.1792 411.041C80.0036 410.496 81.895 410.207 83.7991 410.183C87.3773 410.206 90.9381 410.685 94.3954 411.608C97.6987 412.414 100.805 413.324 103.765 413.838C106.501 414.397 109.302 414.573 112.087 414.362C113.292 414.236 114.484 414.003 115.648 413.667C116.683 413.345 117.69 412.94 118.66 412.457C120.205 411.666 121.597 410.605 122.769 409.325C123.756 408.173 124.529 406.854 125.052 405.43Z" fill="#EAF7FF"/>
<path d="M168.69 460.342L168.312 460.436L167.205 460.659C166.622 460.803 166.049 460.984 165.489 461.2C165.122 461.332 164.764 461.486 164.417 461.663C164.009 461.841 163.614 462.044 163.233 462.273C161.249 463.415 159.404 464.783 157.733 466.348C155.742 468.15 153.615 470.355 151.006 472.526C149.65 473.682 148.171 474.686 146.596 475.52C145.754 475.965 144.88 476.343 143.979 476.653L142.564 477.039C142.079 477.148 141.59 477.231 141.096 477.288C139.032 477.538 136.939 477.434 134.91 476.979C132.769 476.477 130.699 475.707 128.75 474.688C124.613 472.459 120.785 469.699 117.364 466.477C113.76 463.208 110.08 459.75 105.79 456.919C103.688 455.507 101.413 454.374 99.02 453.547C96.6972 452.757 94.2456 452.417 91.7957 452.543C89.4319 452.706 87.112 453.263 84.9317 454.19C82.8337 455.082 80.8109 456.14 78.8828 457.356C75.0904 459.699 71.6412 462.204 68.132 464.117C60.096 468.44 50.9177 470.167 41.8601 469.059C39.9089 468.836 37.9802 468.449 36.0943 467.901C36.2241 467.913 36.3531 467.933 36.4804 467.961L37.5872 468.201C38.5568 468.407 40.0068 468.673 41.8772 468.888C47.1823 469.474 52.5495 469.105 57.7245 467.798C61.2892 466.892 64.7254 465.54 67.9518 463.774C71.3838 461.861 74.8673 459.355 78.6683 456.987C80.6121 455.755 82.6522 454.682 84.7686 453.778C86.9907 452.821 89.357 452.241 91.7699 452.062C94.2749 451.929 96.7824 452.275 99.1573 453.083C101.587 453.919 103.895 455.073 106.021 456.515C110.363 459.372 114.052 462.847 117.647 466.116C121.037 469.318 124.83 472.064 128.93 474.285C130.843 475.327 132.881 476.12 134.996 476.644C136.978 477.1 139.025 477.21 141.045 476.97C141.529 476.916 142.011 476.836 142.486 476.73L143.876 476.369C144.76 476.064 145.621 475.694 146.45 475.263C148.011 474.451 149.476 473.467 150.817 472.328C153.391 470.192 155.571 468.038 157.579 466.219C159.262 464.639 161.125 463.263 163.13 462.118C163.519 461.893 163.923 461.695 164.34 461.526C164.69 461.346 165.055 461.194 165.429 461.071C166.011 460.87 166.604 460.701 167.205 460.565L168.321 460.385L168.69 460.342Z" fill="#EAF7FF"/>
<path d="M49.2818 366.58C49.2533 366.949 49.1754 367.313 49.0501 367.661C48.7641 368.633 48.3789 369.573 47.9004 370.467C46.3414 373.459 43.9025 375.901 40.9124 377.465C37.9223 379.028 34.5249 379.637 31.178 379.21C30.1738 379.093 29.1846 378.871 28.2264 378.549C27.8662 378.451 27.5202 378.307 27.1968 378.12C28.5151 378.475 29.857 378.736 31.2123 378.901C34.4903 379.237 37.7948 378.603 40.7157 377.077C43.6366 375.552 46.0453 373.203 47.643 370.321C48.2735 369.112 48.821 367.863 49.2818 366.58Z" fill="#EAF7FF"/>
<path d="M317.793 253.839H155.579C152.291 253.839 149.625 256.505 149.625 259.793V303.706C149.625 306.994 152.291 309.66 155.579 309.66H317.793C321.081 309.66 323.747 306.994 323.747 303.706V259.793C323.747 256.505 321.081 253.839 317.793 253.839Z" fill="#EAF7FF"/>
<path d="M317.75 309.66C318.135 309.634 318.519 309.589 318.9 309.523C320.015 309.296 321.04 308.751 321.851 307.953C322.454 307.378 322.923 306.678 323.224 305.902C323.574 304.96 323.717 303.953 323.644 302.95C323.644 300.763 323.644 298.231 323.644 295.391C323.644 289.694 323.644 282.736 323.644 274.662C323.644 270.621 323.644 266.297 323.644 261.715C323.719 260.567 323.65 259.414 323.439 258.283C323.134 257.132 322.483 256.102 321.572 255.334C320.662 254.566 319.537 254.098 318.351 253.993C317.141 253.941 315.862 253.993 314.593 253.993L155.588 254.062C154.652 254.062 153.73 254.292 152.902 254.731C152.078 255.168 151.372 255.798 150.843 256.567C150.324 257.337 149.995 258.219 149.882 259.141C149.805 260.05 149.882 261.046 149.882 261.99V273.409C149.882 280.971 149.882 288.407 149.882 295.717V301.183C149.882 302.092 149.882 303.002 149.882 303.894C149.918 304.763 150.146 305.613 150.552 306.382C150.958 307.142 151.528 307.801 152.221 308.311C152.914 308.822 153.713 309.171 154.558 309.334C155.413 309.429 156.273 309.46 157.132 309.428H180.47L251.933 309.48L300.11 309.548L313.211 309.591H316.643H317.801C317.801 309.591 317.415 309.591 316.643 309.591H313.211H300.11L251.933 309.66L180.47 309.711H157.167C156.27 309.749 155.372 309.715 154.481 309.609C153.097 309.36 151.839 308.645 150.918 307.582C149.996 306.518 149.468 305.171 149.419 303.766C149.419 302.847 149.419 301.955 149.419 301.046V261.835C149.419 260.866 149.419 259.947 149.462 258.935C149.574 257.936 149.928 256.98 150.495 256.149C151.062 255.319 151.824 254.641 152.714 254.173C153.604 253.7 154.597 253.453 155.605 253.452L314.567 253.521C315.845 253.521 317.089 253.521 318.351 253.521C319.595 253.635 320.775 254.128 321.731 254.933C322.687 255.739 323.373 256.818 323.696 258.026C323.849 258.605 323.919 259.203 323.902 259.802V261.518C323.902 266.099 323.902 270.424 323.902 274.465C323.902 282.539 323.902 289.497 323.902 295.194C323.902 298.034 323.902 300.565 323.902 302.753C323.974 303.772 323.821 304.794 323.456 305.748C323.078 306.67 322.476 307.485 321.704 308.117C320.933 308.749 320.016 309.179 319.037 309.368C318.754 309.42 318.467 309.451 318.179 309.463L317.75 309.66Z" fill="#263238"/>
<path d="M311.203 265.293C311.146 265.293 311.091 265.272 311.049 265.233C311.009 265.191 310.987 265.136 310.987 265.078C310.987 265.021 311.009 264.965 311.049 264.924L315.339 260.814C315.381 260.774 315.436 260.752 315.493 260.752C315.551 260.752 315.606 260.774 315.648 260.814C315.687 260.854 315.709 260.908 315.709 260.964C315.709 261.02 315.687 261.074 315.648 261.114L311.358 265.224C311.338 265.246 311.315 265.263 311.288 265.275C311.261 265.287 311.233 265.293 311.203 265.293Z" fill="#263238"/>
<path d="M315.476 265.31C315.449 265.311 315.422 265.306 315.397 265.296C315.372 265.286 315.349 265.27 315.33 265.25L311.083 261.106C311.063 261.086 311.046 261.063 311.035 261.037C311.024 261.012 311.018 260.984 311.018 260.956C311.018 260.927 311.024 260.9 311.035 260.874C311.046 260.848 311.063 260.825 311.083 260.805C311.123 260.766 311.177 260.744 311.234 260.744C311.29 260.744 311.344 260.766 311.384 260.805L315.674 264.958C315.713 264.998 315.735 265.052 315.735 265.108C315.735 265.164 315.713 265.218 315.674 265.258C315.648 265.283 315.616 265.301 315.582 265.31C315.547 265.319 315.511 265.319 315.476 265.31Z" fill="#263238"/>
<path d="M187.145 292.594L185.429 290.115C184.374 288.622 183.808 286.838 183.808 285.01V279.433C183.808 277.259 183.029 275.158 181.612 273.51C180.195 271.862 178.234 270.776 176.086 270.449V267.79C176.086 267.464 175.956 267.152 175.726 266.922C175.496 266.692 175.184 266.563 174.859 266.563C174.698 266.563 174.539 266.595 174.391 266.656C174.242 266.718 174.107 266.809 173.994 266.923C173.881 267.037 173.791 267.172 173.731 267.321C173.67 267.47 173.639 267.629 173.64 267.79V270.364C171.428 270.626 169.389 271.691 167.909 273.356C166.429 275.021 165.611 277.171 165.61 279.398V285.173C165.608 287.158 164.94 289.086 163.713 290.647L162.212 292.56L187.145 292.594Z" fill="#37B7FE"/>
<path d="M173.357 296.644C174.036 296.919 174.778 296.999 175.499 296.874C176.221 296.75 176.894 296.427 177.441 295.94C177.911 295.508 178.265 294.966 178.471 294.362L171.204 294.31C171.381 294.827 171.664 295.302 172.035 295.704C172.405 296.106 172.856 296.426 173.357 296.644Z" fill="#37B7FE"/>
<path d="M285.146 272.697C285.146 272.818 265.644 272.921 241.585 272.921C217.527 272.921 198.025 272.818 198.025 272.697C198.025 272.577 217.527 272.474 241.585 272.474C265.644 272.474 285.146 272.577 285.146 272.697Z" fill="#263238"/>
<path d="M305.635 283.242C305.635 283.362 281.534 283.465 251.813 283.465C222.092 283.465 197.982 283.362 197.982 283.242C197.982 283.122 222.074 283.019 251.813 283.019C281.551 283.019 305.635 283.113 305.635 283.242Z" fill="#C0DCEB"/>
<path d="M305.635 289.6C305.635 289.72 281.534 289.823 251.813 289.823C222.092 289.823 197.982 289.72 197.982 289.6C197.982 289.48 222.074 289.377 251.813 289.377C281.551 289.377 305.635 289.428 305.635 289.6Z" fill="#C0DCEB"/>
<path d="M289.934 318.377H182.212C178.923 318.377 176.257 321.043 176.257 324.332V350.776C176.257 354.064 178.923 356.73 182.212 356.73H289.934C293.222 356.73 295.888 354.064 295.888 350.776V324.332C295.888 321.043 293.222 318.377 289.934 318.377Z" fill="#EAF7FF"/>
<path d="M289.934 356.73C289.934 356.73 290.2 356.73 290.714 356.644C291.478 356.544 292.214 356.29 292.877 355.898C293.759 355.382 294.493 354.646 295.006 353.762C295.519 352.877 295.793 351.875 295.802 350.853V348.116C295.802 344.238 295.802 339.536 295.759 334.019C295.759 331.273 295.759 328.33 295.759 325.216C295.8 324.439 295.737 323.659 295.571 322.899C295.377 322.128 295.023 321.406 294.532 320.78C294.03 320.127 293.393 319.59 292.664 319.205C291.936 318.821 291.133 318.597 290.311 318.549L182.203 318.601C180.932 318.599 179.697 319.02 178.691 319.796C177.684 320.572 176.964 321.661 176.643 322.891C176.493 323.505 176.432 324.138 176.463 324.77V326.717C176.463 328.013 176.463 329.291 176.463 330.587V349.463C176.463 350.081 176.463 350.707 176.463 351.29C176.527 351.88 176.674 352.458 176.901 353.006C177.368 354.085 178.153 354.997 179.15 355.619C180.148 356.241 181.312 356.545 182.486 356.49H196.532L245.12 356.533L277.887 356.61L286.793 356.653H289.11H289.899C289.899 356.653 289.625 356.653 289.11 356.653H286.793H277.887L245.12 356.721L196.532 356.773H182.521C181.258 356.831 180.008 356.505 178.936 355.837C177.863 355.168 177.019 354.191 176.515 353.032C176.276 352.444 176.12 351.826 176.051 351.196C176 350.544 176.051 349.943 176.051 349.325V324.778C176.019 324.109 176.086 323.438 176.249 322.788C176.59 321.456 177.367 320.276 178.455 319.435C179.542 318.595 180.88 318.141 182.255 318.146L290.363 318.223C291.652 318.306 292.882 318.796 293.875 319.622C294.868 320.449 295.573 321.569 295.888 322.822C296.06 323.605 296.124 324.407 296.077 325.207C296.077 328.322 296.077 331.265 296.077 334.01C296.077 339.501 296.077 344.229 296.077 348.107C296.077 349.068 296.077 349.986 296.077 350.844C296.067 351.658 295.888 352.462 295.554 353.204C295.027 354.366 294.147 355.333 293.04 355.966C292.364 356.354 291.617 356.599 290.843 356.687C290.542 356.727 290.237 356.741 289.934 356.73Z" fill="#263238"/>
<path d="M287.274 326.314C287.245 326.313 287.216 326.307 287.19 326.295C287.163 326.284 287.139 326.266 287.119 326.245C287.099 326.226 287.083 326.203 287.071 326.177C287.06 326.151 287.054 326.123 287.054 326.095C287.054 326.067 287.06 326.039 287.071 326.013C287.083 325.987 287.099 325.964 287.119 325.945L290.062 323.122C290.082 323.101 290.106 323.085 290.133 323.073C290.159 323.062 290.188 323.056 290.217 323.056C290.246 323.056 290.274 323.062 290.301 323.073C290.327 323.085 290.351 323.101 290.371 323.122C290.411 323.162 290.433 323.216 290.433 323.272C290.433 323.328 290.411 323.382 290.371 323.422L287.42 326.245C287.402 326.266 287.379 326.283 287.354 326.295C287.329 326.307 287.302 326.313 287.274 326.314Z" fill="#263238"/>
<path d="M290.208 326.322C290.151 326.323 290.096 326.301 290.054 326.262L287.137 323.414C287.106 323.372 287.091 323.321 287.094 323.27C287.098 323.218 287.12 323.17 287.156 323.133C287.193 323.097 287.241 323.075 287.293 323.071C287.344 323.067 287.396 323.082 287.437 323.113L290.354 325.962C290.393 326.002 290.415 326.056 290.415 326.112C290.415 326.168 290.393 326.222 290.354 326.262C290.314 326.299 290.262 326.321 290.208 326.322Z" fill="#263238"/>
<path d="M202.032 345.001L200.83 343.285C200.108 342.257 199.719 341.032 199.715 339.776V335.932C199.714 334.441 199.18 333 198.209 331.868C197.238 330.737 195.895 329.99 194.421 329.763V327.935C194.421 327.708 194.331 327.49 194.17 327.329C194.009 327.168 193.791 327.077 193.563 327.077C193.336 327.077 193.117 327.168 192.956 327.329C192.796 327.49 192.705 327.708 192.705 327.935V329.737C191.185 329.916 189.784 330.646 188.767 331.79C187.75 332.933 187.188 334.41 187.188 335.941V339.905C187.189 341.267 186.733 342.59 185.893 343.663L184.854 344.984L202.032 345.001Z" fill="#152A34"/>
<path d="M192.559 347.79C193.026 347.977 193.535 348.031 194.03 347.946C194.525 347.861 194.987 347.641 195.365 347.309C195.689 347.012 195.931 346.637 196.068 346.219H191.075C191.203 346.568 191.4 346.887 191.656 347.157C191.911 347.427 192.218 347.642 192.559 347.79Z" fill="#152A34"/>
<path d="M269.342 331.333C269.342 331.453 255.94 331.556 239.406 331.556C222.872 331.556 209.479 331.453 209.479 331.333C209.479 331.213 222.881 331.11 239.406 331.11C255.931 331.11 269.342 331.204 269.342 331.333Z" fill="#263238"/>
<path d="M283.43 338.575C283.43 338.703 266.871 338.798 246.45 338.798C226.03 338.798 209.462 338.703 209.462 338.575C209.462 338.446 226.013 338.352 246.45 338.352C266.888 338.352 283.43 338.455 283.43 338.575Z" fill="#C0DCEB"/>
<path d="M283.43 342.916C283.43 343.036 266.871 343.139 246.45 343.139C226.03 343.139 209.462 343.036 209.462 342.916C209.462 342.796 226.013 342.693 246.45 342.693C266.888 342.693 283.43 342.796 283.43 342.916Z" fill="#C0DCEB"/>
<path d="M289.479 362.693H182.658C179.369 362.693 176.703 365.359 176.703 368.647V394.799C176.703 398.088 179.369 400.754 182.658 400.754H289.479C292.768 400.754 295.434 398.088 295.434 394.799V368.647C295.434 365.359 292.768 362.693 289.479 362.693Z" fill="#EAF7FF"/>
<path d="M289.479 400.762C289.479 400.762 289.745 400.762 290.251 400.685C291.009 400.582 291.738 400.328 292.396 399.939C293.476 399.318 294.331 398.372 294.841 397.236C295.158 396.516 295.33 395.74 295.348 394.954V392.242C295.348 388.399 295.348 383.705 295.348 378.257C295.348 375.528 295.348 372.611 295.348 369.522C295.393 368.751 295.329 367.977 295.159 367.223C294.969 366.459 294.621 365.743 294.138 365.121C293.641 364.47 293.012 363.933 292.291 363.546C291.571 363.158 290.776 362.929 289.959 362.873L182.709 362.916C181.443 362.924 180.214 363.349 179.213 364.124C178.211 364.899 177.492 365.982 177.167 367.206C177.01 367.814 176.944 368.441 176.969 369.068V374.834C176.969 379.941 176.969 384.964 176.969 389.9V393.581C176.969 394.19 176.969 394.816 176.969 395.391C177.028 395.981 177.173 396.559 177.398 397.107C177.859 398.179 178.633 399.087 179.619 399.71C180.606 400.334 181.758 400.644 182.924 400.599H196.858L245.069 400.642L277.578 400.719L286.416 400.762H288.715H289.496C289.496 400.762 289.23 400.762 288.715 400.762H286.416L277.578 400.805L245.069 400.874L196.858 400.925H182.907C181.656 400.967 180.423 400.632 179.365 399.963C178.308 399.294 177.476 398.323 176.978 397.176C176.739 396.591 176.583 395.976 176.515 395.348C176.515 394.713 176.515 394.113 176.515 393.495C176.515 392.277 176.515 391.05 176.515 389.814V369.033C176.488 368.369 176.561 367.704 176.729 367.06C177.086 365.741 177.868 364.576 178.954 363.746C180.039 362.916 181.369 362.468 182.735 362.47L289.985 362.564C290.844 362.625 291.681 362.868 292.438 363.278C293.196 363.688 293.857 364.255 294.378 364.941C294.879 365.6 295.244 366.353 295.451 367.154C295.615 367.932 295.678 368.728 295.639 369.522C295.639 372.611 295.639 375.528 295.639 378.257C295.639 383.705 295.639 388.399 295.596 392.242C295.596 393.195 295.596 394.104 295.596 394.954C295.567 395.989 295.27 397 294.735 397.887C294.2 398.774 293.444 399.507 292.542 400.016C291.869 400.401 291.124 400.643 290.354 400.728C290.064 400.763 289.771 400.775 289.479 400.762Z" fill="#263238"/>
<path d="M286.862 370.578C286.833 370.578 286.804 370.571 286.778 370.56C286.751 370.548 286.727 370.531 286.708 370.509C286.687 370.49 286.671 370.467 286.66 370.441C286.648 370.415 286.643 370.387 286.643 370.359C286.643 370.331 286.648 370.303 286.66 370.277C286.671 370.252 286.687 370.228 286.708 370.209L289.633 367.403C289.675 367.364 289.73 367.341 289.788 367.341C289.845 367.341 289.901 367.364 289.942 367.403C289.982 367.444 290.004 367.497 290.004 367.554C290.004 367.61 289.982 367.664 289.942 367.704L287.016 370.509C286.997 370.532 286.974 370.549 286.947 370.561C286.92 370.573 286.891 370.579 286.862 370.578Z" fill="#263238"/>
<path d="M289.796 370.587C289.739 370.587 289.684 370.566 289.642 370.527L286.75 367.678C286.709 367.638 286.686 367.584 286.685 367.527C286.684 367.469 286.706 367.414 286.746 367.373C286.786 367.332 286.84 367.309 286.898 367.308C286.955 367.307 287.01 367.329 287.051 367.369L289.942 370.2C289.981 370.241 290.004 370.294 290.004 370.351C290.004 370.407 289.981 370.461 289.942 370.501C289.907 370.547 289.854 370.578 289.796 370.587Z" fill="#263238"/>
<path d="M202.289 389.128L201.062 387.412C200.34 386.394 199.953 385.176 199.955 383.928V380.136C199.954 378.654 199.424 377.222 198.459 376.097C197.495 374.972 196.16 374.229 194.696 374.001V372.191C194.696 371.963 194.605 371.745 194.444 371.584C194.284 371.423 194.065 371.333 193.838 371.333C193.61 371.333 193.392 371.423 193.231 371.584C193.07 371.745 192.98 371.963 192.98 372.191V373.976C191.473 374.156 190.084 374.883 189.077 376.018C188.07 377.153 187.514 378.618 187.514 380.136V384.074C187.514 385.427 187.061 386.741 186.227 387.807L185.275 389.128H202.289Z" fill="#C0DCEB"/>
<path d="M192.885 391.891C193.349 392.075 193.855 392.128 194.347 392.043C194.839 391.958 195.298 391.74 195.674 391.41C195.993 391.115 196.232 390.743 196.369 390.329H191.418C191.543 390.676 191.737 390.994 191.99 391.262C192.242 391.531 192.547 391.745 192.885 391.891Z" fill="#C0DCEB"/>
<path d="M269.084 375.554C269.084 375.683 255.785 375.777 239.38 375.777C222.975 375.777 209.676 375.683 209.676 375.554C209.676 375.426 222.975 375.331 239.38 375.331C255.785 375.331 269.084 375.4 269.084 375.554Z" fill="#263238"/>
<path d="M283.087 382.745C283.087 382.873 266.647 382.968 246.382 382.968C226.116 382.968 209.676 382.873 209.676 382.745C209.676 382.616 226.107 382.521 246.382 382.521C266.656 382.521 283.087 382.624 283.087 382.745Z" fill="#C0DCEB"/>
<path d="M283.087 387.052C283.087 387.172 266.647 387.275 246.382 387.275C226.116 387.275 209.676 387.172 209.676 387.052C209.676 386.932 226.107 386.829 246.382 386.829C266.656 386.829 283.087 386.932 283.087 387.052Z" fill="#C0DCEB"/>
<path d="M377.347 352.002C368.466 356.61 361.654 364.529 356.755 373.247C351.855 381.964 348.698 391.548 345.601 401.046L342.838 450.046C353.177 432.457 361.474 411.788 363.713 391.522L356.849 390.904C361.465 390.201 365.335 386.863 367.797 382.899C370.26 378.935 371.529 374.37 372.765 369.875L364.356 371.11C370.981 366.647 375.633 359.804 377.347 352.002Z" fill="#152A34"/>
<path d="M377.347 352.002C368.466 356.61 361.654 364.529 356.755 373.247C351.855 381.964 348.698 391.548 345.601 401.046L342.838 450.046C353.177 432.457 361.474 411.788 363.713 391.522L356.849 390.904C361.465 390.201 365.335 386.863 367.797 382.899C370.26 378.935 371.529 374.37 372.765 369.875L364.356 371.11C370.981 366.647 375.633 359.804 377.347 352.002Z" fill="url(#paint0_linear_353_1126)"/>
<g opacity="0.3">
<path d="M377.347 352.002C368.466 356.61 361.654 364.529 356.755 373.247C351.855 381.964 348.698 391.548 345.601 401.046L342.838 450.046C353.177 432.457 361.474 411.788 363.713 391.522L356.849 390.904C361.465 390.201 365.335 386.863 367.797 382.899C370.26 378.935 371.529 374.37 372.765 369.875L364.356 371.11C370.981 366.647 375.633 359.804 377.347 352.002Z" fill="black"/>
</g>
<path d="M341.311 461.535C341.311 461.535 318.874 434.688 319.131 409.051H328.2C328.2 409.051 318.351 402.582 319.131 398.952C319.912 395.323 320.17 381.603 320.17 381.603L328.458 383.68C328.458 383.68 322.246 380.574 321.465 375.649C320.684 370.724 323.276 347.944 323.276 347.944C323.276 347.944 333.374 358.566 336.48 369.437C339.586 380.308 347.746 392.998 345.352 426.142C342.958 459.287 341.311 461.535 341.311 461.535Z" fill="url(#paint1_linear_353_1126)"/>
<path d="M352.679 464.066C352.679 464.066 376.986 447.875 382.383 427.215L375.099 425.233C375.099 425.233 384.434 422.178 384.597 419.098C384.76 416.018 387.557 404.924 387.557 404.924L380.444 404.778C380.444 404.778 386.115 403.637 387.823 399.853C389.53 396.069 392.396 377.185 392.396 377.185C392.396 377.185 381.954 383.508 377.081 391.573C372.207 399.638 362.872 408.047 357.544 435.22C352.216 462.393 352.679 464.066 352.679 464.066Z" fill="url(#paint2_linear_353_1126)"/>
<path d="M329.401 371.359C329.443 371.446 329.472 371.538 329.487 371.633C329.539 371.848 329.607 372.122 329.685 372.491C329.856 373.246 330.096 374.319 330.405 375.675C330.714 377.03 331.083 378.755 331.478 380.728C331.873 382.702 332.336 384.95 332.799 387.438C333.76 392.414 334.781 398.369 335.819 404.992C336.858 411.616 337.844 418.918 338.745 426.605C339.646 434.293 340.307 441.638 340.83 448.321C341.353 455.005 341.688 461.037 341.894 466.099C342.014 468.63 342.074 470.921 342.134 472.963C342.194 475.005 342.237 476.713 342.246 478.111C342.254 479.51 342.246 480.599 342.246 481.372V482.23C342.253 482.327 342.253 482.424 342.246 482.521C342.231 482.425 342.231 482.326 342.246 482.23C342.246 482.015 342.246 481.741 342.246 481.372C342.246 480.591 342.177 479.501 342.126 478.103C342.074 476.704 342.023 474.954 341.937 472.955C341.851 470.956 341.765 468.665 341.619 466.091C341.379 461.028 340.976 455.005 340.461 448.33C339.946 441.655 339.217 434.319 338.333 426.631C337.45 418.944 336.446 411.659 335.45 405.035C334.455 398.412 333.451 392.457 332.533 387.472C332.096 384.984 331.675 382.727 331.281 380.754C330.886 378.781 330.577 377.073 330.294 375.683C330.011 374.293 329.813 373.246 329.659 372.483C329.599 372.14 329.547 371.865 329.513 371.625C329.467 371.54 329.43 371.451 329.401 371.359Z" fill="#263238"/>
<path d="M338.196 477.974C338.196 477.974 317.664 454.688 311.298 440.608L316.103 438.557C312.619 439.132 309.041 437.631 306.339 435.357C303.636 433.083 301.645 430.089 299.698 427.137L306.038 426.065C300.215 424.399 295.256 420.555 292.19 415.331C299.672 416.567 306.441 420.677 312.018 425.807C316.444 430.065 320.465 434.724 324.03 439.724C325.821 442.129 327.381 444.697 328.689 447.395C332.139 454.525 338.205 469.42 338.196 477.974Z" fill="url(#paint3_linear_353_1126)"/>
<path d="M382.709 390.741C382.687 390.824 382.656 390.905 382.615 390.981L382.306 391.659C382.006 392.277 381.585 393.143 381.062 394.233C379.964 396.472 378.402 399.724 376.523 403.765C372.748 411.839 367.78 423.105 362.872 435.786C357.964 448.467 354.069 460.153 351.426 468.665C350.105 472.955 349.067 476.387 348.372 478.772C348.029 479.939 347.754 480.857 347.557 481.517L347.325 482.229C347.306 482.313 347.277 482.393 347.239 482.47C347.244 482.385 347.258 482.302 347.282 482.221C347.325 482.032 347.385 481.792 347.462 481.492C347.634 480.822 347.883 479.896 348.192 478.72C348.835 476.309 349.822 472.834 351.1 468.57C353.674 459.99 357.518 448.313 362.417 435.614C367.317 422.916 372.362 411.659 376.214 403.62C378.136 399.596 379.74 396.361 380.89 394.182C381.456 393.1 381.894 392.242 382.22 391.608L382.572 390.947C382.658 390.844 382.701 390.732 382.709 390.741Z" fill="#263238"/>
<path d="M339.938 487.961C339.883 487.824 339.848 487.679 339.835 487.532C339.775 487.189 339.706 486.786 339.629 486.297C339.466 485.224 339.2 483.671 338.822 481.766C338.445 479.862 337.922 477.614 337.244 475.134C336.566 472.654 335.699 469.986 334.67 467.206C333.64 464.426 332.473 461.852 331.366 459.544C330.26 457.236 329.144 455.203 328.166 453.538C327.188 451.874 326.373 450.518 325.781 449.6L325.12 448.536C325.032 448.419 324.962 448.288 324.914 448.15C324.914 448.15 325.026 448.253 325.197 448.485L325.935 449.497C326.579 450.355 327.445 451.702 328.458 453.358C329.47 455.014 330.603 457.056 331.761 459.364C332.919 461.672 334.061 464.272 335.116 467.086C336.171 469.9 337.003 472.586 337.69 475.074C338.376 477.562 338.84 479.836 339.174 481.758C339.509 483.68 339.732 485.241 339.826 486.322C339.878 486.82 339.912 487.232 339.946 487.575C339.962 487.703 339.959 487.833 339.938 487.961Z" fill="#263238"/>
<path d="M367.033 482.479H322.1V491.642H367.033V482.479Z" fill="#152A34"/>
<path d="M326.381 491.642L331.238 522.47H358.385L362.915 491.642H326.381Z" fill="#152A34"/>
<path d="M364.271 491.642C364.271 491.779 355.768 491.882 345.292 491.882C334.816 491.882 326.304 491.779 326.304 491.642C326.304 491.505 334.807 491.402 345.292 491.402C355.776 491.402 364.271 491.513 364.271 491.642Z" fill="#263238"/>
<path d="M100.35 263.937L101.285 252.852C95.8942 249.269 92.0385 243.799 90.476 237.517C88.9135 231.235 89.7572 224.596 92.8413 218.905C95.9255 213.213 101.027 208.881 107.143 206.761C113.259 204.64 119.947 204.883 125.892 207.443C131.838 210.003 136.611 214.695 139.273 220.595C141.935 226.496 142.294 233.179 140.278 239.33C138.263 245.482 134.02 250.657 128.382 253.839C122.745 257.02 116.122 257.978 109.814 256.524L100.35 263.937Z" fill="#EAF7FF"/>
<path d="M100.35 263.937L109.882 256.593L109.977 256.516L109.865 256.464L109.805 256.61C111.83 257.079 113.904 257.31 115.983 257.296C118.458 257.266 120.916 256.885 123.284 256.164C124.597 255.768 125.871 255.257 127.094 254.637C127.711 254.302 128.364 253.984 128.99 253.633L130.843 252.414C136.207 248.513 139.887 242.72 141.139 236.207C141.883 232.587 141.836 228.85 141.002 225.25C140.063 221.482 138.305 217.966 135.854 214.954C133.317 211.783 130.061 209.262 126.356 207.601L124.906 206.992C124.425 206.777 123.911 206.657 123.421 206.494C122.932 206.331 122.435 206.151 121.929 206.057L120.41 205.731C119.908 205.614 119.397 205.537 118.883 205.499L117.355 205.319H115.828C115.322 205.289 114.815 205.289 114.31 205.319C110.354 205.543 106.498 206.651 103.027 208.562C99.7372 210.358 96.8839 212.857 94.6699 215.881C90.7071 221.324 88.9786 228.079 89.8394 234.757C90.2568 237.574 91.1016 240.311 92.3447 242.873C93.443 245.087 94.8562 247.131 96.5404 248.939C97.9416 250.445 99.5171 251.779 101.234 252.912V252.843C100.685 259.93 100.376 263.397 100.376 263.937C100.427 263.397 100.745 259.939 101.388 252.86V252.818C99.6924 251.677 98.1347 250.344 96.7463 248.845C95.0864 247.036 93.6937 244.999 92.6107 242.796C91.3912 240.253 90.5638 237.539 90.1568 234.748C89.32 228.136 91.0419 221.454 94.9702 216.069C97.1672 213.087 99.9903 210.621 103.241 208.845C106.674 206.962 110.486 205.871 114.395 205.653C114.895 205.623 115.397 205.623 115.897 205.653H117.407L118.917 205.833C119.423 205.873 119.925 205.95 120.418 206.065L121.92 206.383C122.426 206.477 122.898 206.674 123.396 206.812C123.893 206.949 124.391 207.095 124.863 207.309L126.287 207.91C129.948 209.55 133.165 212.038 135.674 215.169C138.085 218.157 139.808 221.64 140.719 225.37C141.565 228.907 141.644 232.585 140.95 236.155C139.694 242.609 136.032 248.345 130.706 252.2L128.878 253.41C128.252 253.77 127.609 254.079 126.999 254.413C125.787 255.03 124.524 255.541 123.224 255.941C120.88 256.667 118.445 257.054 115.991 257.09C113.925 257.117 111.864 256.901 109.848 256.447L109.796 256.593V256.455C103.782 261.226 100.796 263.585 100.35 263.937Z" fill="#263238"/>
<path d="M111.967 218.112L112.765 233.178C112.799 233.772 113.049 234.334 113.468 234.757C113.886 235.181 114.445 235.437 115.039 235.478C115.66 235.517 116.272 235.318 116.75 234.921C117.229 234.524 117.538 233.958 117.613 233.341L119.44 218.223C119.472 217.953 119.446 217.68 119.364 217.421C119.282 217.162 119.147 216.923 118.966 216.721C118.785 216.518 118.563 216.356 118.315 216.245C118.067 216.134 117.799 216.078 117.527 216.078H113.855C113.595 216.08 113.338 216.135 113.1 216.24C112.862 216.344 112.648 216.496 112.472 216.687C112.295 216.877 112.159 217.102 112.072 217.347C111.985 217.592 111.95 217.852 111.967 218.112Z" fill="#37B7FE"/>
<path d="M118.977 243.054C118.748 243.743 118.32 244.349 117.746 244.795C117.173 245.241 116.48 245.507 115.756 245.559C115.031 245.611 114.307 245.447 113.676 245.088C113.045 244.729 112.534 244.19 112.209 243.541C111.883 242.891 111.758 242.16 111.848 241.439C111.939 240.718 112.241 240.041 112.716 239.492C113.192 238.943 113.82 238.547 114.52 238.355C115.221 238.163 115.963 238.182 116.652 238.412C117.576 238.719 118.339 239.381 118.775 240.251C119.211 241.122 119.284 242.13 118.977 243.054Z" fill="#37B7FE"/>
<path d="M264.666 69.9654C263.271 70.9274 261.241 70.9274 259.48 70.658C257.412 70.3887 255.074 70.1097 253.458 71.4276C252.722 72.1941 252.056 73.0247 251.467 73.9096C249.601 76.1414 245.993 74.583 244.454 77.6229C244.223 78.0558 244.242 79.4603 243.675 79.6143C243.107 79.7682 241.895 78.8543 241.289 78.7677C239.327 78.5927 237.351 78.7029 235.421 79.0948C234.533 79.2334 233.682 79.5461 232.916 80.015C232.15 80.4839 231.484 81.0996 230.957 81.8269C230.447 82.5676 229.995 83.4815 229.11 83.6835C228.597 83.7636 228.072 83.7038 227.59 83.5104C225.911 82.8608 224.143 82.4715 222.347 82.356C220.548 82.356 218.615 83.164 217.903 84.7706C217.807 84.9918 217.691 85.2612 217.451 85.3189C217.21 85.3766 216.979 85.1939 216.787 85.0303C216.131 84.4754 215.354 84.084 214.517 83.8884C213.681 83.6927 212.81 83.6983 211.977 83.9048C211.427 84.0182 210.928 84.3048 210.553 84.7225C210.062 85.3382 210.062 86.2232 209.591 86.8485C208.735 87.9259 207.023 87.6277 205.666 87.291C203.867 86.8389 201.76 86.5599 200.298 87.6662C199.904 87.974 199.577 88.3588 199.163 88.6282C198.047 89.3786 196.546 89.1765 195.19 89.0803C194.295 89.013 183.838 89.5613 184.002 90.4464C184.165 91.3314 186.792 91.0909 187.379 91.1294C188.264 91.1871 189.11 91.3603 189.995 91.3699C190.882 91.2533 191.782 91.3022 192.65 91.5142C193.199 91.7355 193.555 92.1972 194.161 92.3704C195.561 92.6824 197.025 92.5479 198.345 91.9856C199.885 91.4276 201.549 90.5137 203.242 90.5426C204.045 90.6832 204.821 90.9494 205.541 91.3314C207.084 91.8152 208.736 91.8252 210.284 91.3603C211.169 91.1198 212.554 90.4464 213.526 90.6773C214.074 90.8119 214.67 91.341 215.238 91.5334C215.985 91.7887 216.755 91.9692 217.537 92.0722C220.337 92.4089 223.059 90.8216 225.676 90.1482C229.024 89.2535 230.919 89.9558 233.449 91.8798C234.538 92.6619 235.804 93.1611 237.134 93.3323C238.464 93.5036 239.816 93.3416 241.068 92.861C241.8 92.5159 242.551 92.214 243.319 91.9567C245.257 91.3888 247.331 91.5008 249.197 92.2742C250.246 92.9542 251.382 93.4913 252.573 93.8711C256.566 94.7177 260.269 90.0231 264.204 91.0909C264.989 91.3621 265.74 91.7202 266.445 92.1587C268.621 93.2353 270.904 94.0801 273.256 94.6792C273.677 94.8265 274.119 94.9044 274.565 94.9101C275.181 94.8404 275.772 94.6226 276.287 94.2751C277.272 93.6228 278.323 93.0747 279.423 92.6397C279.974 92.4248 280.563 92.3259 281.154 92.349C281.745 92.3722 282.325 92.517 282.857 92.7744C283.368 93.1558 283.919 93.4785 284.502 93.7364C286.08 94.1789 287.388 92.3704 289.043 92.1395C290.697 91.9086 292.063 93.1881 293.68 93.0438C295.296 92.8995 296.979 92.0048 298.749 91.8798C302.713 91.62 306.734 92.5916 310.659 91.6008C312.121 91.1068 313.635 90.784 315.171 90.6388C317.999 90.6388 320.76 92.3608 323.521 91.7258C323.631 91.7123 323.737 91.6727 323.829 91.6104C324.127 91.3795 323.973 90.86 323.655 90.6484C323.306 90.5022 322.923 90.4555 322.549 90.5137C321.384 90.5629 320.22 90.3966 319.115 90.0231C318.001 89.531 316.861 89.1007 315.7 88.734C312.044 87.9163 308.004 90.5522 304.617 89.0226C303.745 88.4984 302.842 88.0262 301.914 87.6085C299.99 86.9928 297.816 88.128 295.806 87.7047C294.23 87.2118 292.872 86.193 291.958 84.8187C291.061 83.4389 289.908 82.2437 288.562 81.2978C287.138 80.4704 285.07 80.4704 284.088 81.798C283.794 80.4804 283.301 79.2153 282.626 78.0462C282.27 77.4718 281.788 76.9861 281.216 76.626C280.645 76.266 279.998 76.041 279.326 75.9683C278.74 76.0331 278.147 75.9332 277.614 75.6797C277.184 75.2172 276.947 74.6083 276.95 73.9769C276.771 72.9115 276.365 71.8968 275.761 71.0009C275.157 70.1049 274.369 69.3485 273.449 68.7821C272.201 68.015 270.841 67.4471 269.418 67.0986C268.931 66.9759 268.422 66.9676 267.931 67.0744C267.441 67.1812 266.981 67.4003 266.59 67.7143C266.132 68.2588 265.708 68.8307 265.32 69.4267C265.127 69.6349 264.907 69.8161 264.666 69.9654Z" fill="#73CDFE" fill-opacity="0.23"/>
<path d="M344.906 101.634C344.801 101.7 344.692 101.757 344.579 101.808C342.818 102.644 340.731 101.981 338.807 102.019C336.924 102.063 335.119 102.78 333.718 104.039C332.708 104.953 331.967 106.242 330.697 106.82C329.427 107.397 328.215 107.185 327.013 107.426C324.637 107.897 322.79 108.33 321.472 110.456C320.789 111.553 320.51 112.38 319.182 112.034C317.345 111.601 315.488 110.562 313.506 111.072C312.371 111.389 311.967 112.111 310.736 111.793C309.504 111.476 308.321 110.773 306.936 110.687C305.926 110.619 305.243 111.1 304.3 111.187C303.483 111.137 302.67 111.034 301.866 110.879C300.233 110.679 298.576 110.905 297.056 111.533C295.284 112.393 293.404 113.008 291.467 113.361C289.783 113.592 287.956 113.255 286.33 113.784C286.541 114.746 288.254 114.294 288.966 114.419C290.284 114.621 291.554 115.122 292.9 114.91C294.055 114.737 294.824 113.948 296.075 113.948C297.095 113.948 297.826 114.516 298.797 114.66C299.451 114.742 300.115 114.649 300.721 114.39C301.097 114.237 302.136 113.352 302.511 113.361C302.886 113.371 302.953 113.65 303.328 113.9C303.921 114.35 304.621 114.638 305.358 114.737C306.59 114.871 307.792 114.006 308.85 114.102C309.427 114.102 309.899 114.977 310.505 115.314C312.372 116.178 314.34 116.805 316.363 117.18C318.792 117.845 321.361 117.795 323.761 117.036C325.387 116.44 326.849 115.391 328.523 114.939C331.351 114.179 334.343 115.208 336.941 116.555C338.538 117.382 340.231 118.373 342.01 118.123C344.521 117.777 346.06 115.179 348.35 114.112C351.38 112.697 355.132 113.833 358.018 114.987C359.658 115.695 361.353 116.264 363.088 116.69C364.83 117.132 366.656 117.132 368.398 116.69C369.65 116.17 370.935 115.736 372.246 115.391C373.833 115.15 375.459 115.641 377.056 115.391C377.616 115.298 378.166 115.156 378.701 114.968C380.019 114.497 381.41 114.266 382.809 114.285C382.932 114.307 383.059 114.283 383.165 114.217C383.202 114.172 383.227 114.119 383.239 114.062C383.251 114.005 383.248 113.946 383.232 113.89C383.191 113.726 383.107 113.575 382.989 113.453C382.87 113.332 382.722 113.243 382.559 113.198C382.246 113.108 381.921 113.075 381.597 113.101C379.509 113.159 377.422 113.284 375.353 113.486C373.486 113.587 371.616 113.352 369.831 112.794C368.514 112.438 367.282 111.899 365.983 111.658C364.787 111.281 363.764 110.49 363.097 109.427C362.001 108.041 360.818 106.262 358.865 106.146C358.487 106.177 358.106 106.128 357.749 106.002C357.248 105.742 357.095 105.107 356.931 104.559C356.063 102.176 354.352 100.194 352.121 98.9889C351.375 98.5542 350.507 98.3762 349.651 98.4822C348.794 98.5882 347.996 98.9724 347.378 99.5757C346.625 100.343 345.797 101.033 344.906 101.634Z" fill="#73CDFE" fill-opacity="0.23"/>
<path d="M101.576 101.182C101.471 101.247 101.362 101.305 101.249 101.355C99.4887 102.192 97.4011 101.528 95.4771 101.567C93.594 101.611 91.7889 102.328 90.3881 103.587C89.378 104.501 88.6373 105.79 87.3675 106.367C86.0976 106.944 84.8855 106.733 83.683 106.973C81.3069 107.445 79.4598 107.878 78.1419 110.004C77.4588 111.1 77.1799 111.928 75.8523 111.581C74.0149 111.148 72.1582 110.109 70.1765 110.619C69.0413 110.937 68.6373 111.658 67.406 111.341C66.1746 111.023 64.9913 110.321 63.6061 110.234C62.596 110.167 61.9129 110.648 60.9702 110.735C60.1531 110.684 59.3402 110.581 58.5363 110.427C56.9034 110.227 55.2466 110.452 53.7263 111.081C51.9546 111.94 50.0743 112.555 48.1371 112.909C46.4536 113.14 44.6258 112.803 43 113.332C43.2116 114.294 44.924 113.842 45.6359 113.967C46.9538 114.169 48.2237 114.669 49.5705 114.458C50.7249 114.284 51.4945 113.496 52.7451 113.496C53.7648 113.496 54.4959 114.063 55.4675 114.207C56.1214 114.29 56.7854 114.197 57.3915 113.938C57.7667 113.784 58.8057 112.899 59.1808 112.909C59.556 112.918 59.6234 113.197 59.9986 113.447C60.5913 113.897 61.2907 114.186 62.0284 114.284C63.2597 114.419 64.4622 113.553 65.5204 113.65C66.0976 113.65 66.569 114.525 67.1751 114.862C69.0423 115.726 71.0105 116.353 73.0336 116.728C75.4621 117.393 78.0308 117.343 80.4314 116.584C82.0572 115.987 83.5195 114.939 85.1933 114.486C88.0216 113.726 91.0134 114.756 93.6108 116.103C95.2078 116.93 96.9009 117.921 98.6806 117.671C101.191 117.324 102.731 114.727 105.02 113.659C108.05 112.245 111.802 113.38 114.688 114.535C116.328 115.242 118.024 115.812 119.758 116.237C121.5 116.68 123.326 116.68 125.068 116.237C126.32 115.718 127.606 115.284 128.916 114.939C130.504 114.698 132.129 115.189 133.726 114.939C134.286 114.845 134.836 114.704 135.371 114.515C136.689 114.045 138.08 113.813 139.479 113.832C139.602 113.855 139.729 113.831 139.835 113.765C139.872 113.72 139.898 113.667 139.909 113.61C139.921 113.553 139.919 113.494 139.902 113.438C139.861 113.273 139.777 113.123 139.659 113.001C139.541 112.879 139.392 112.791 139.229 112.745C138.917 112.655 138.591 112.623 138.267 112.649C136.179 112.707 134.092 112.832 132.023 113.034C130.156 113.134 128.286 112.9 126.502 112.341C125.184 111.985 123.952 111.447 122.654 111.206C121.457 110.829 120.434 110.037 119.768 108.974C118.671 107.589 117.488 105.809 115.535 105.694C115.157 105.724 114.777 105.675 114.419 105.549C113.919 105.29 113.765 104.655 113.601 104.106C112.734 101.724 111.022 99.742 108.791 98.5365C108.045 98.1018 107.178 97.9239 106.321 98.0299C105.464 98.1359 104.666 98.52 104.049 99.1233C103.295 99.8905 102.467 100.58 101.576 101.182Z" fill="#73CDFE" fill-opacity="0.23"/>
</g>
<defs>
<linearGradient id="paint0_linear_353_1126" x1="342.838" y1="401.024" x2="377.347" y2="401.024" gradientUnits="userSpaceOnUse">
<stop stop-color="#034175"/>
<stop offset="1" stop-color="#37B7FE"/>
</linearGradient>
<linearGradient id="paint1_linear_353_1126" x1="319.087" y1="404.739" x2="345.785" y2="404.739" gradientUnits="userSpaceOnUse">
<stop stop-color="#034175"/>
<stop offset="1" stop-color="#37B7FE"/>
</linearGradient>
<linearGradient id="paint2_linear_353_1126" x1="352.669" y1="420.625" x2="392.396" y2="420.625" gradientUnits="userSpaceOnUse">
<stop stop-color="#034175"/>
<stop offset="1" stop-color="#37B7FE"/>
</linearGradient>
<linearGradient id="paint3_linear_353_1126" x1="292.19" y1="446.653" x2="338.196" y2="446.653" gradientUnits="userSpaceOnUse">
<stop stop-color="#034175"/>
<stop offset="1" stop-color="#37B7FE"/>
</linearGradient>
<clipPath id="clip0_353_1126">
<rect x="-141" y="-203" width="724.32" height="724.32" rx="362.16" fill="white"/>
</clipPath>
</defs>
</svg>
