<svg width="430" height="569" viewBox="0 0 430 569" fill="none" xmlns="http://www.w3.org/2000/svg">
<rect x="-282" y="-437" width="1006" height="1006" rx="503" fill="#37B7FE" fill-opacity="0.05"/>
<g clip-path="url(#clip0_353_2779)">
<rect x="-141" y="-203" width="724.32" height="724.32" rx="362.16" fill="#37B7FE" fill-opacity="0.1"/>
<path d="M444 427.336H-1V427.558H444V427.336Z" fill="#CCE7F6"/>
<path d="M68.8293 435.809H45.6893V436.031H68.8293V435.809Z" fill="#CCE7F6"/>
<path d="M177.383 433.397H129.234V433.619H177.383V433.397Z" fill="#CCE7F6"/>
<path d="M93.144 444.077H69.7192V444.299H93.144V444.077Z" fill="#CCE7F6"/>
<path d="M399.411 442.582H382.296V442.804H399.411V442.582Z" fill="#CCE7F6"/>
<path d="M374.366 442.582H347.408V442.804H374.366V442.582Z" fill="#CCE7F6"/>
<path d="M277.383 438.826H228.825V439.048H277.383V438.826Z" fill="#CCE7F6"/>
<path d="M209.93 387.642H38.0797C36.7335 387.64 35.4431 387.103 34.492 386.15C33.5409 385.198 33.0067 383.906 33.0067 382.56V140.987C33.0184 139.649 33.5578 138.369 34.5076 137.426C35.4575 136.483 36.7411 135.952 38.0797 135.95H209.93C211.278 135.95 212.57 136.485 213.523 137.438C214.476 138.391 215.012 139.684 215.012 141.032V382.56C215.012 383.908 214.476 385.2 213.523 386.154C212.57 387.107 211.278 387.642 209.93 387.642ZM38.0797 136.128C36.7925 136.13 35.5587 136.643 34.6494 137.554C33.74 138.465 33.2292 139.7 33.2292 140.987V382.56C33.2292 383.847 33.74 385.082 34.6494 385.993C35.5587 386.904 36.7925 387.417 38.0797 387.419H209.93C211.218 387.417 212.453 386.904 213.363 385.994C214.274 385.083 214.787 383.848 214.789 382.56V140.987C214.787 139.699 214.274 138.465 213.363 137.554C212.453 136.643 211.218 136.13 209.93 136.128H38.0797Z" fill="#CCE7F6"/>
<path d="M402.446 387.642H230.587C229.24 387.64 227.949 387.103 226.996 386.151C226.044 385.198 225.507 383.907 225.505 382.56V140.987C225.519 139.648 226.06 138.368 227.012 137.425C227.963 136.482 229.247 135.952 230.587 135.95H402.446C403.783 135.955 405.064 136.486 406.012 137.429C406.96 138.372 407.498 139.65 407.51 140.987V382.56C407.51 383.905 406.977 385.195 406.028 386.147C405.079 387.1 403.791 387.637 402.446 387.642ZM230.587 136.128C229.299 136.13 228.064 136.643 227.153 137.554C226.243 138.465 225.73 139.699 225.728 140.987V382.56C225.73 383.848 226.243 385.083 227.153 385.994C228.064 386.904 229.299 387.417 230.587 387.419H402.446C403.734 387.417 404.969 386.904 405.879 385.994C406.79 385.083 407.303 383.848 407.305 382.56V140.987C407.303 139.699 406.79 138.465 405.879 137.554C404.969 136.643 403.734 136.13 402.446 136.128H230.587Z" fill="#CCE7F6"/>
<path d="M167.068 337.028C166.631 337.028 166.178 337.028 165.759 337.081C156.521 337.82 149.045 346.622 148.458 357.453C148.326 359.843 148.53 362.24 149.063 364.573C151.103 373.927 152.082 383.48 151.982 393.053V421.008C151.982 423.037 153.388 424.684 155.115 424.684H276.262V337.028H167.068Z" fill="#E1F4FF"/>
<path d="M294.907 358.886C294.907 346.302 285.838 336.209 274.953 337.081C265.715 337.82 258.239 346.622 257.652 357.453C257.518 359.843 257.718 362.239 258.248 364.573C260.291 373.926 261.273 383.48 261.176 393.053V421.008C261.176 423.037 262.573 424.684 264.309 424.684H288.25C289.976 424.684 291.383 423.037 291.383 421.008V391.38C291.31 382.399 292.278 373.439 294.266 364.68C294.704 362.78 294.919 360.836 294.907 358.886Z" fill="#ACD7EF"/>
<path d="M250.567 375.111H126.003V424.675H250.567V375.111Z" fill="#9FDDFF"/>
<path d="M85.1165 315.73H216.16C218.167 315.73 220.154 316.125 222.008 316.893C223.862 317.661 225.547 318.787 226.966 320.206C228.385 321.625 229.51 323.309 230.278 325.163C231.046 327.017 231.441 329.005 231.441 331.011V383.521H69.8352V331.011C69.8352 329.005 70.2305 327.017 70.9984 325.163C71.7664 323.309 72.892 321.625 74.311 320.206C75.73 318.787 77.4146 317.661 79.2686 316.893C81.1226 316.125 83.1097 315.73 85.1165 315.73Z" fill="#A1D7F6"/>
<path d="M96.2328 315.73H220.103C224.099 315.73 227.932 317.317 230.757 320.143C233.583 322.969 235.171 326.801 235.171 330.798V383.503H81.2007V330.789C81.203 326.8 82.7867 322.975 85.6045 320.153C88.4222 317.33 92.2443 315.739 96.2328 315.73Z" fill="#9FDDFF"/>
<path d="M130.204 373.331H250.514C251.383 373.331 252.216 373.676 252.83 374.29C253.444 374.904 253.789 375.737 253.789 376.606V381.884C253.787 382.751 253.441 383.582 252.827 384.194C252.213 384.806 251.381 385.15 250.514 385.15H130.204C129.944 385.15 129.695 385.047 129.511 384.863C129.328 384.68 129.225 384.431 129.225 384.171V374.31C129.225 374.05 129.328 373.801 129.511 373.618C129.695 373.434 129.944 373.331 130.204 373.331Z" fill="#CCE7F6"/>
<path d="M62.1902 424.675H277.196V424.88C277.196 425.531 276.938 426.156 276.477 426.616C276.016 427.077 275.391 427.336 274.74 427.336H64.6555C64.3322 427.337 64.0118 427.274 63.7127 427.151C63.4137 427.029 63.1418 426.848 62.9128 426.62C62.6838 426.391 62.502 426.12 62.378 425.822C62.254 425.523 62.1902 425.203 62.1902 424.88V424.675Z" fill="#A1D7F6"/>
<path d="M63.1335 337.028C62.6944 337.028 62.2583 337.045 61.8252 337.081C52.587 337.82 45.111 346.622 44.5236 357.453C44.3924 359.843 44.5961 362.24 45.1288 364.573C47.1686 373.927 48.1479 383.48 48.048 393.053V421.008C48.048 423.037 49.4542 424.684 51.1808 424.684H126.893V337.028H63.1335Z" fill="#E1F4FF"/>
<path d="M145.538 358.886C145.538 346.302 136.478 336.209 125.585 337.081C116.346 337.82 108.87 346.622 108.283 357.453C108.149 359.843 108.349 362.239 108.879 364.573C110.926 373.926 111.909 383.48 111.807 393.053V421.008C111.807 423.037 113.205 424.684 114.94 424.684H138.846C140.572 424.684 141.978 423.037 141.978 421.008V391.38C141.906 382.399 142.873 373.439 144.862 364.68C145.312 362.782 145.539 360.837 145.538 358.886Z" fill="#ACD7EF"/>
<path d="M54.0732 258.094L390.858 258.094V156.287L54.0732 156.287V258.094Z" fill="#CCE7F6"/>
<path d="M62.9732 250.279L381.949 250.279V164.109L62.9732 164.109V250.279Z" fill="#ACD7EF"/>
<path d="M245.566 250.279H271.002L247.043 164.11H221.607L245.566 250.279Z" fill="#E6F6FF"/>
<path d="M275.977 250.279H301.422L277.463 164.11H252.018L275.977 250.279Z" fill="#E6F6FF"/>
<path d="M193.527 250.279H206.254L182.295 164.11H169.577L193.527 250.279Z" fill="#E6F6FF"/>
<path d="M216.472 250.279H228.46V164.109H216.472V250.279Z" fill="#CCE7F6"/>
<path d="M216.463 164.11H213.793V250.279H216.463V164.11Z" fill="#CCDEE9"/>
<path d="M54.0732 156.296H52.1508V258.103H54.0732V156.296Z" fill="#CCDEE9"/>
<path d="M387.467 422.379C389.634 422.372 391.711 421.508 393.243 419.975C394.775 418.443 395.639 416.367 395.646 414.2V334.162C395.639 331.995 394.775 329.919 393.243 328.386C391.711 326.854 389.634 325.99 387.467 325.983C385.301 325.99 383.226 326.854 381.695 328.387C380.164 329.919 379.302 331.996 379.297 334.162V414.2C379.302 416.366 380.164 418.442 381.695 419.975C383.226 421.507 385.301 422.372 387.467 422.379Z" fill="#9FDDFF"/>
<path d="M382.786 419.157C384.251 419.155 385.655 418.571 386.691 417.535C387.727 416.5 388.31 415.095 388.313 413.63V334.731C388.31 333.266 387.727 331.862 386.691 330.826C385.655 329.79 384.251 329.207 382.786 329.205C381.322 329.209 379.92 329.793 378.886 330.829C377.852 331.865 377.27 333.268 377.268 334.731V413.63C377.27 415.094 377.852 416.497 378.886 417.532C379.92 418.568 381.322 419.152 382.786 419.157Z" fill="#CCE7F6"/>
<path d="M375.595 422.379C377.761 422.372 379.836 421.507 381.367 419.975C382.898 418.442 383.76 416.366 383.765 414.2V334.162C383.76 331.996 382.898 329.919 381.367 328.387C379.836 326.854 377.761 325.99 375.595 325.983C373.428 325.99 371.351 326.854 369.819 328.386C368.287 329.919 367.423 331.995 367.416 334.162V414.2C367.423 416.367 368.287 418.443 369.819 419.975C371.351 421.508 373.428 422.372 375.595 422.379Z" fill="#9FDDFF"/>
<path d="M370.913 419.157C372.378 419.152 373.781 418.568 374.816 417.533C375.852 416.497 376.435 415.094 376.44 413.63V334.731C376.435 333.267 375.852 331.864 374.816 330.829C373.781 329.793 372.378 329.209 370.913 329.205C369.449 329.209 368.046 329.793 367.01 330.829C365.975 331.864 365.391 333.267 365.386 334.731V413.63C365.391 415.094 365.975 416.497 367.01 417.533C368.046 418.568 369.449 419.152 370.913 419.157Z" fill="#CCE7F6"/>
<path d="M363.722 422.379C365.888 422.372 367.963 421.507 369.494 419.975C371.025 418.442 371.887 416.366 371.892 414.2V334.162C371.887 331.996 371.025 329.919 369.494 328.387C367.963 326.854 365.888 325.99 363.722 325.983C361.555 325.99 359.478 326.854 357.946 328.386C356.414 329.919 355.55 331.995 355.543 334.162V414.2C355.55 416.367 356.414 418.443 357.946 419.975C359.478 421.508 361.555 422.372 363.722 422.379Z" fill="#9FDDFF"/>
<path d="M359.041 419.157C360.504 419.152 361.907 418.568 362.941 417.532C363.975 416.497 364.556 415.094 364.559 413.63V334.731C364.556 333.268 363.975 331.865 362.941 330.829C361.907 329.793 360.504 329.209 359.041 329.205C357.576 329.207 356.171 329.79 355.135 330.826C354.099 331.862 353.516 333.266 353.514 334.731V413.63C353.516 415.095 354.099 416.5 355.135 417.535C356.171 418.571 357.576 419.155 359.041 419.157Z" fill="#CCE7F6"/>
<path d="M343.67 414.2C343.67 418.717 347.33 422.379 351.845 422.379C356.36 422.379 360.02 418.717 360.02 414.2V334.171C360.02 329.654 356.36 325.992 351.845 325.992C347.33 325.992 343.67 329.654 343.67 334.171V414.2Z" fill="#9FDDFF"/>
<path d="M347.159 419.157C348.624 419.155 350.029 418.571 351.065 417.535C352.101 416.5 352.684 415.095 352.686 413.63V334.731C352.684 333.266 352.101 331.862 351.065 330.826C350.029 329.79 348.624 329.207 347.159 329.205C345.696 329.209 344.293 329.793 343.259 330.829C342.225 331.865 341.643 333.268 341.641 334.731V413.63C341.643 415.094 342.225 416.497 343.259 417.532C344.293 418.568 345.696 419.152 347.159 419.157Z" fill="#CCE7F6"/>
<path d="M339.968 422.379C342.135 422.372 344.211 421.508 345.744 419.975C347.276 418.443 348.14 416.367 348.147 414.2V334.162C348.14 331.995 347.276 329.919 345.744 328.386C344.211 326.854 342.135 325.99 339.968 325.983C337.801 325.99 335.725 326.854 334.192 328.386C332.66 329.919 331.796 331.995 331.789 334.162V414.2C331.796 416.367 332.66 418.443 334.192 419.975C335.725 421.508 337.801 422.372 339.968 422.379Z" fill="#9FDDFF"/>
<path d="M335.287 419.157C336.752 419.155 338.156 418.571 339.192 417.535C340.228 416.5 340.811 415.095 340.814 413.63V334.731C340.811 333.266 340.228 331.862 339.192 330.826C338.156 329.79 336.752 329.207 335.287 329.205C333.822 329.209 332.419 329.793 331.384 330.829C330.348 331.864 329.765 333.267 329.76 334.731V413.63C329.765 415.094 330.348 416.497 331.384 417.533C332.419 418.568 333.822 419.152 335.287 419.157Z" fill="#CCE7F6"/>
<path d="M328.095 422.379C330.262 422.372 332.337 421.507 333.868 419.975C335.399 418.442 336.261 416.366 336.266 414.2V334.162C336.261 331.996 335.399 329.919 333.868 328.387C332.337 326.854 330.262 325.99 328.095 325.983C325.928 325.99 323.852 326.854 322.32 328.386C320.787 329.919 319.923 331.995 319.916 334.162V414.2C319.923 416.367 320.787 418.443 322.32 419.975C323.852 421.508 325.928 422.372 328.095 422.379Z" fill="#9FDDFF"/>
<path d="M323.414 419.157C324.878 419.152 326.281 418.568 327.317 417.533C328.352 416.497 328.936 415.094 328.941 413.63V334.731C328.936 333.267 328.352 331.864 327.317 330.829C326.281 329.793 324.878 329.209 323.414 329.205C321.949 329.207 320.544 329.79 319.508 330.826C318.472 331.862 317.889 333.266 317.887 334.731V413.63C317.889 415.095 318.472 416.5 319.508 417.535C320.544 418.571 321.949 419.155 323.414 419.157Z" fill="#CCE7F6"/>
<path d="M316.214 422.379C318.381 422.372 320.457 421.508 321.99 419.975C323.522 418.443 324.386 416.367 324.393 414.2V334.162C324.386 331.995 323.522 329.919 321.99 328.386C320.457 326.854 318.381 325.99 316.214 325.983C314.048 325.99 311.972 326.854 310.441 328.387C308.91 329.919 308.048 331.996 308.044 334.162V414.2C308.048 416.366 308.91 418.442 310.441 419.975C311.972 421.507 314.048 422.372 316.214 422.379Z" fill="#9FDDFF"/>
<path d="M306.192 411.663H330.169C330.641 411.663 331.094 411.475 331.428 411.142C331.761 410.808 331.949 410.355 331.949 409.883C331.949 409.411 331.761 408.958 331.428 408.624C331.094 408.291 330.641 408.103 330.169 408.103H306.192C305.72 408.103 305.268 408.291 304.934 408.624C304.6 408.958 304.412 409.411 304.412 409.883C304.412 410.355 304.6 410.808 304.934 411.142C305.268 411.475 305.72 411.663 306.192 411.663Z" fill="#9FDDFF"/>
<path d="M306.192 342.688H330.169C330.641 342.688 331.094 342.501 331.428 342.167C331.761 341.833 331.949 341.38 331.949 340.908C331.949 340.436 331.761 339.983 331.428 339.65C331.094 339.316 330.641 339.128 330.169 339.128H306.192C305.72 339.128 305.268 339.316 304.934 339.65C304.6 339.983 304.412 340.436 304.412 340.908C304.412 341.38 304.6 341.833 304.934 342.167C305.268 342.501 305.72 342.688 306.192 342.688Z" fill="#9FDDFF"/>
<path d="M358.24 407.097H256.317C255.037 407.103 253.769 406.849 252.59 406.351C251.411 405.852 250.345 405.119 249.458 404.196C248.571 403.273 247.88 402.179 247.428 400.981C246.977 399.783 246.773 398.506 246.83 397.227L254.314 203.741C254.441 201.1 255.573 198.607 257.477 196.772C259.381 194.938 261.914 193.9 264.558 193.871H366.481C367.761 193.865 369.03 194.119 370.209 194.618C371.388 195.117 372.453 195.85 373.34 196.773C374.227 197.696 374.918 198.789 375.37 199.987C375.822 201.185 376.025 202.462 375.969 203.741L368.484 397.227C368.357 399.868 367.225 402.361 365.321 404.196C363.417 406.031 360.884 407.069 358.24 407.097Z" fill="#3FB6F9"/>
<path d="M375.901 269.018L375.278 285.008L376.257 285.046L376.879 269.056L375.901 269.018Z" fill="#3FB6F9"/>
<path d="M376.41 256.57L376.151 263.177L377.129 263.216L377.388 256.608L376.41 256.57Z" fill="#3FB6F9"/>
<path opacity="0.8" d="M358.24 407.097H256.317C255.037 407.103 253.769 406.849 252.59 406.351C251.411 405.852 250.345 405.119 249.458 404.196C248.571 403.273 247.88 402.179 247.428 400.981C246.977 399.783 246.773 398.506 246.83 397.227L254.314 203.741C254.441 201.1 255.573 198.607 257.477 196.772C259.381 194.938 261.914 193.9 264.558 193.871H366.481C367.761 193.865 369.03 194.119 370.209 194.618C371.388 195.117 372.453 195.85 373.34 196.773C374.227 197.696 374.918 198.789 375.37 199.987C375.822 201.185 376.025 202.462 375.969 203.741L368.484 397.227C368.357 399.868 367.225 402.361 365.321 404.196C363.417 406.031 360.884 407.069 358.24 407.097Z" fill="#E6F6FF"/>
<path d="M348.485 403.172H258.595C257.473 403.177 256.362 402.954 255.328 402.517C254.295 402.079 253.361 401.437 252.583 400.628C251.805 399.819 251.199 398.861 250.802 397.812C250.405 396.762 250.225 395.643 250.274 394.522L257.278 213.318C257.391 211.002 258.385 208.816 260.056 207.208C261.726 205.6 263.948 204.691 266.267 204.667H356.157C357.279 204.661 358.391 204.883 359.425 205.32C360.459 205.757 361.394 206.399 362.172 207.208C362.95 208.017 363.556 208.976 363.952 210.026C364.349 211.076 364.528 212.196 364.478 213.318L357.474 394.522C357.359 396.837 356.364 399.021 354.694 400.629C353.024 402.236 350.803 403.146 348.485 403.172Z" fill="url(#paint0_linear_353_2779)"/>
<path opacity="0.8" d="M308.15 392.912C310.529 390.578 310.639 386.831 308.394 384.544C306.15 382.256 302.402 382.293 300.023 384.627C297.644 386.961 297.535 390.707 299.779 392.995C302.023 395.283 305.771 395.245 308.15 392.912Z" fill="#E6F6FF"/>
<path d="M305.685 347.548C300.938 347.579 296.234 346.644 291.861 344.798C287.487 342.953 283.535 340.236 280.246 336.814C276.957 333.391 274.399 329.334 272.728 324.891C271.058 320.447 270.31 315.71 270.53 310.969L271.731 279.774H271.669C271.317 279.772 270.966 279.743 270.619 279.685L269.409 310.969C269.184 315.855 269.956 320.736 271.679 325.314C273.401 329.892 276.037 334.072 279.427 337.598C282.817 341.124 286.889 343.924 291.396 345.826C295.903 347.727 300.749 348.692 305.64 348.66C316.007 348.614 325.931 344.452 333.23 337.09C332.965 336.821 332.732 336.523 332.536 336.2C329.03 339.769 324.853 342.609 320.244 344.556C315.636 346.504 310.688 347.52 305.685 347.548Z" fill="#E6F6FF"/>
<path d="M309.993 236.022C290.92 236.022 274.571 250.262 271.384 268.676C271.622 268.662 271.859 268.662 272.096 268.676C272.239 268.676 272.372 268.676 272.515 268.676C275.665 250.876 291.498 237.152 309.948 237.152C314.696 237.119 319.4 238.053 323.775 239.898C328.15 241.743 332.103 244.46 335.393 247.883C338.683 251.305 341.242 255.362 342.913 259.806C344.584 264.25 345.332 268.988 345.112 273.731L343.67 310.986C343.437 316.804 341.849 322.488 339.033 327.585C339.387 327.687 339.725 327.837 340.039 328.03C342.922 322.794 344.546 316.959 344.783 310.986L346.225 273.731C346.453 268.843 345.684 263.959 343.963 259.379C342.242 254.798 339.606 250.615 336.216 247.087C332.825 243.558 328.752 240.757 324.243 238.855C319.735 236.952 314.886 235.988 309.993 236.022Z" fill="#E6F6FF"/>
<path d="M309.699 243.64C315.696 243.625 321.569 245.347 326.609 248.597C326.769 248.252 326.962 247.925 327.188 247.618C321.974 244.272 315.903 242.504 309.708 242.528C302.697 242.55 295.863 244.725 290.128 248.758C290.325 249.072 290.489 249.406 290.617 249.754C296.193 245.793 302.859 243.657 309.699 243.64Z" fill="#E6F6FF"/>
<path d="M275.256 314.546C274.98 312.64 274.878 310.713 274.953 308.788L276.226 275.858C276.504 269.07 278.859 262.53 282.972 257.124C282.654 256.963 282.355 256.766 282.082 256.536C277.846 262.115 275.423 268.859 275.14 275.858L273.868 308.788C273.79 310.802 273.897 312.819 274.188 314.813C274.534 314.69 274.892 314.6 275.256 314.546Z" fill="#E6F6FF"/>
<path d="M335.215 255.005C334.946 255.28 334.648 255.525 334.325 255.735C338.737 261.503 340.98 268.639 340.662 275.894L339.39 308.824C338.983 317.455 335.288 325.603 329.064 331.596C322.839 337.588 314.557 340.971 305.917 341.051C299.057 341.082 292.381 338.838 286.933 334.669C286.614 334.917 286.268 335.126 285.901 335.292C291.59 339.774 298.63 342.196 305.872 342.163C314.811 342.082 323.38 338.582 329.82 332.383C336.259 326.183 340.082 317.753 340.502 308.824L341.775 275.894C342.109 268.377 339.787 260.982 335.215 255.005Z" fill="#E6F6FF"/>
<path d="M280.071 288.95L280.489 278.074C280.841 270.609 284.037 263.562 289.421 258.378C294.805 253.195 301.968 250.268 309.441 250.199C315.732 250.153 321.836 252.338 326.669 256.366C331.502 260.393 334.75 266.004 335.838 272.2C336.203 272.136 336.572 272.103 336.942 272.102C335.836 265.629 332.464 259.761 327.43 255.544C322.395 251.328 316.025 249.04 309.459 249.087C301.686 249.156 294.235 252.198 288.636 257.589C283.036 262.98 279.714 270.31 279.35 278.074L278.95 289.03C279.207 288.998 279.465 288.981 279.724 288.977L280.071 288.95Z" fill="#E6F6FF"/>
<path d="M317.789 331.982C314.152 333.621 310.209 334.474 306.219 334.483C302.595 334.517 299.003 333.811 295.661 332.409C292.319 331.008 289.298 328.939 286.783 326.33C284.268 323.721 282.312 320.626 281.034 317.235C279.756 313.844 279.183 310.228 279.35 306.608L279.608 300.057H279.261C279.005 300.058 278.749 300.04 278.496 300.004L278.238 306.59C278.063 310.348 278.657 314.103 279.981 317.624C281.305 321.146 283.333 324.361 285.94 327.073C288.548 329.785 291.68 331.938 295.147 333.4C298.613 334.862 302.341 335.603 306.103 335.577C310.327 335.572 314.5 334.662 318.341 332.907C318.122 332.621 317.937 332.31 317.789 331.982Z" fill="#E6F6FF"/>
<path d="M336.515 283.245C336.354 283.245 336.194 283.245 336.043 283.245L335.153 306.634C334.849 313.743 331.933 320.489 326.965 325.582C327.188 325.887 327.376 326.215 327.526 326.561C332.827 321.245 335.945 314.135 336.265 306.634L337.155 283.236C336.951 283.227 336.737 283.245 336.515 283.245Z" fill="#E6F6FF"/>
<path d="M319.169 257.747C316.047 256.338 312.661 255.613 309.236 255.619C302.63 255.678 296.297 258.263 291.537 262.845C286.777 267.426 283.951 273.655 283.64 280.255L282.705 304.418C282.655 305.843 282.726 307.269 282.919 308.681C283.243 308.386 283.598 308.126 283.978 307.907C283.835 306.75 283.781 305.583 283.818 304.418L284.752 280.255C285.05 273.954 287.748 268.006 292.293 263.632C296.837 259.257 302.884 256.789 309.192 256.732C312.431 256.736 315.632 257.431 318.581 258.77C318.744 258.411 318.94 258.068 319.169 257.747Z" fill="#E6F6FF"/>
<path d="M327.73 264.395C327.514 264.715 327.267 265.013 326.992 265.285C330.338 269.537 332.047 274.849 331.806 280.255L330.872 304.418C330.58 310.537 328.023 316.329 323.699 320.668C319.375 325.007 313.592 327.583 307.474 327.897C307.358 328.295 307.2 328.68 307.002 329.045C313.503 328.843 319.688 326.194 324.32 321.628C328.952 317.062 331.689 310.916 331.985 304.418L332.919 280.255C333.174 274.513 331.33 268.875 327.73 264.395Z" fill="#E6F6FF"/>
<path d="M304.528 263.781C304.546 263.391 304.599 263.004 304.688 262.624C301.846 263.24 299.161 264.437 296.803 266.139C297.146 266.314 297.464 266.536 297.746 266.798C299.797 265.374 302.098 264.351 304.528 263.781Z" fill="#E6F6FF"/>
<path d="M325.737 307.213C324.485 311.301 321.964 314.884 318.54 317.444C315.116 320.004 310.966 321.408 306.691 321.453C304.198 321.47 301.728 320.979 299.432 320.01C297.136 319.04 295.061 317.613 293.335 315.814C291.609 314.016 290.268 311.884 289.394 309.55C288.519 307.216 288.13 304.727 288.25 302.238L289.016 282.435C289.111 280.095 289.629 277.791 290.546 275.636C290.229 275.378 289.947 275.079 289.71 274.746C288.633 277.163 288.028 279.764 287.93 282.409L287.164 302.211C287.044 304.842 287.46 307.47 288.387 309.935C289.315 312.399 290.734 314.65 292.559 316.548C294.385 318.447 296.577 319.954 299.004 320.977C301.43 322.001 304.04 322.52 306.673 322.503C311.201 322.452 315.595 320.963 319.222 318.251C322.849 315.54 325.52 311.746 326.849 307.418C326.473 307.383 326.101 307.315 325.737 307.213Z" fill="#E6F6FF"/>
<path d="M327.41 282.435L327.25 286.547C327.544 286.495 327.841 286.465 328.14 286.458H328.38L328.531 282.409C328.707 278.205 327.508 274.058 325.117 270.596C322.726 267.134 319.273 264.545 315.279 263.22C315.315 263.617 315.315 264.016 315.279 264.413C318.962 265.726 322.127 268.184 324.31 271.428C326.494 274.671 327.58 278.529 327.41 282.435Z" fill="#E6F6FF"/>
<path d="M308.72 268.676C304.446 268.717 300.349 270.392 297.271 273.358C294.193 276.323 292.366 280.355 292.166 284.625L291.997 289.021C292.369 289.046 292.738 289.102 293.101 289.19L293.279 284.625C293.465 280.646 295.171 276.891 298.044 274.133C300.916 271.374 304.738 269.822 308.72 269.797C310.643 269.787 312.548 270.168 314.319 270.917C316.091 271.666 317.691 272.767 319.023 274.154C320.355 275.541 321.391 277.185 322.068 278.985C322.745 280.785 323.048 282.704 322.96 284.625L322.364 300.057C322.196 303.532 320.872 306.85 318.601 309.486C316.331 312.121 313.244 313.921 309.833 314.6C309.873 314.973 309.873 315.349 309.833 315.721C313.539 315.027 316.902 313.103 319.38 310.261C321.857 307.418 323.303 303.823 323.485 300.057L324.082 284.625C324.177 282.554 323.85 280.486 323.119 278.547C322.389 276.608 321.27 274.837 319.833 273.345C318.395 271.852 316.668 270.668 314.757 269.865C312.847 269.063 310.793 268.658 308.72 268.676Z" fill="#E6F6FF"/>
<path d="M298.325 281.759C298.556 281.745 298.788 281.745 299.019 281.759C299.978 280.108 301.35 278.735 303.002 277.777C304.653 276.818 306.526 276.307 308.435 276.294C309.6 276.294 310.755 276.493 311.853 276.882C311.977 276.526 312.135 276.184 312.325 275.858C311.093 275.407 309.792 275.175 308.48 275.173C306.27 275.196 304.108 275.82 302.227 276.979C300.345 278.138 298.815 279.787 297.8 281.75C297.975 281.744 298.15 281.747 298.325 281.759Z" fill="#E6F6FF"/>
<path d="M318.083 297.876C318.024 299.15 317.741 300.404 317.246 301.579C317.593 301.707 317.919 301.884 318.216 302.104C318.799 300.767 319.131 299.334 319.195 297.876L319.622 286.805C319.656 285.772 319.551 284.739 319.311 283.734C318.975 283.912 318.62 284.049 318.252 284.144C318.456 285.018 318.543 285.916 318.51 286.814L318.083 297.876Z" fill="#E6F6FF"/>
<path d="M309.61 308.058C308.812 308.251 307.993 308.35 307.172 308.352C305.816 308.355 304.474 308.082 303.227 307.551C301.98 307.019 300.854 306.24 299.917 305.261C298.98 304.282 298.252 303.122 297.776 301.853C297.3 300.583 297.088 299.231 297.15 297.877L297.346 292.866C296.972 292.834 296.603 292.765 296.242 292.661L296.038 297.877C295.971 299.378 296.211 300.877 296.742 302.282C297.273 303.688 298.084 304.971 299.126 306.053C300.169 307.135 301.42 307.994 302.805 308.577C304.189 309.161 305.678 309.457 307.18 309.447C308.113 309.443 309.042 309.33 309.948 309.109C309.805 308.769 309.692 308.418 309.61 308.058Z" fill="#E6F6FF"/>
<path d="M308.222 281.741C306.275 281.764 304.411 282.533 303.014 283.889C301.616 285.245 300.792 287.085 300.71 289.03L300.452 295.741C300.428 296.367 300.491 296.993 300.639 297.601C300.922 297.26 301.252 296.96 301.618 296.711C301.574 296.393 301.556 296.071 301.565 295.75L301.823 289.039C301.902 287.398 302.607 285.849 303.791 284.711C304.976 283.572 306.552 282.93 308.195 282.916C308.987 282.914 309.771 283.073 310.5 283.382C311.229 283.692 311.888 284.147 312.436 284.718C312.984 285.29 313.411 285.967 313.69 286.708C313.969 287.449 314.095 288.239 314.06 289.03L313.802 295.741C313.744 296.931 313.358 298.082 312.685 299.065C312.013 300.049 311.081 300.827 309.993 301.312C309.974 301.732 309.914 302.15 309.815 302.558C311.249 302.062 312.501 301.147 313.41 299.932C314.319 298.716 314.843 297.257 314.915 295.741L315.182 289.03C315.231 288.088 315.088 287.145 314.76 286.26C314.432 285.375 313.927 284.566 313.275 283.883C312.623 283.201 311.839 282.659 310.97 282.29C310.101 281.922 309.166 281.735 308.222 281.741Z" fill="#E6F6FF"/>
<path d="M326.938 201.721H295.699C295.468 201.721 295.239 201.675 295.026 201.585C294.813 201.494 294.62 201.363 294.459 201.196C294.298 201.03 294.172 200.834 294.089 200.618C294.005 200.402 293.966 200.172 293.973 199.941C294 199.462 294.208 199.012 294.555 198.681C294.902 198.351 295.362 198.165 295.842 198.161H327.072C327.304 198.16 327.534 198.205 327.748 198.295C327.962 198.384 328.156 198.516 328.318 198.682C328.48 198.848 328.607 199.045 328.691 199.262C328.775 199.478 328.815 199.709 328.807 199.941C328.778 200.419 328.569 200.868 328.223 201.198C327.876 201.528 327.417 201.715 326.938 201.721Z" fill="#3FB6F9"/>
<path opacity="0.2" d="M278.077 232.96C276.23 233.105 274.376 233.147 272.524 233.085C271.869 232.945 271.197 232.903 270.53 232.96H270.325C265.1 232.578 259.93 231.644 254.902 230.175C254.385 230.023 253.851 229.845 253.308 229.658L248.983 341.683L277.89 322.396C279.197 321.538 280.281 320.383 281.055 319.025C281.828 317.666 282.269 316.144 282.34 314.582L285.242 239.689C285.283 238.756 285.122 237.826 284.771 236.961C284.419 236.097 283.885 235.318 283.204 234.68C282.524 234.041 281.714 233.556 280.829 233.259C279.944 232.963 279.005 232.861 278.077 232.96Z" fill="black"/>
<path d="M271.109 224.603C269.264 224.751 267.413 224.795 265.564 224.737C264.909 224.598 264.238 224.553 263.57 224.603H263.357C258.134 224.224 252.967 223.29 247.942 221.817C241.641 219.858 235.835 216.568 230.916 212.17C229.722 211.019 228.125 210.38 226.466 210.39H218.919C217.227 210.402 215.599 211.036 214.344 212.17C209.124 216.555 203.069 219.837 196.544 221.817C191.445 223.283 186.208 224.217 180.916 224.603H180.702C180.032 224.553 179.358 224.598 178.7 224.737C176.854 224.796 175.005 224.751 173.164 224.603C172.216 224.531 171.263 224.649 170.361 224.951C169.459 225.253 168.627 225.732 167.913 226.361C167.2 226.99 166.62 227.755 166.207 228.612C165.794 229.469 165.557 230.399 165.51 231.349L162.609 306.252C162.543 307.768 162.857 309.277 163.524 310.64C164.191 312.004 165.189 313.178 166.427 314.057L208.39 343.569C209.936 344.654 211.78 345.232 213.668 345.225H221.206C223.134 345.218 225.016 344.642 226.618 343.569L270.859 314.057C272.162 313.197 273.244 312.042 274.017 310.686C274.791 309.33 275.233 307.811 275.309 306.252L278.202 231.349C278.24 230.423 278.08 229.5 277.732 228.64C277.384 227.781 276.857 227.006 276.185 226.368C275.513 225.729 274.713 225.241 273.838 224.937C272.962 224.632 272.032 224.519 271.109 224.603Z" fill="url(#paint1_linear_353_2779)"/>
<path opacity="0.8" d="M271.109 224.603C269.264 224.751 267.413 224.795 265.564 224.737C264.909 224.598 264.238 224.553 263.57 224.603H263.357C258.134 224.224 252.967 223.29 247.942 221.817C241.641 219.858 235.835 216.568 230.916 212.17C229.722 211.019 228.125 210.38 226.466 210.39H218.919C217.227 210.402 215.599 211.036 214.344 212.17C209.124 216.555 203.069 219.837 196.544 221.817C191.445 223.283 186.208 224.217 180.916 224.603H180.702C180.032 224.553 179.358 224.598 178.7 224.737C176.854 224.796 175.005 224.751 173.164 224.603C172.216 224.531 171.263 224.649 170.361 224.951C169.459 225.253 168.627 225.732 167.913 226.361C167.2 226.99 166.62 227.755 166.207 228.612C165.794 229.469 165.557 230.399 165.51 231.349L162.609 306.252C162.543 307.768 162.857 309.277 163.524 310.64C164.191 312.004 165.189 313.178 166.427 314.057L208.39 343.569C209.936 344.654 211.78 345.232 213.668 345.225H221.206C223.134 345.218 225.016 344.642 226.618 343.569L270.859 314.057C272.162 313.197 273.244 312.042 274.017 310.686C274.791 309.33 275.233 307.811 275.309 306.252L278.202 231.349C278.24 230.423 278.08 229.5 277.732 228.64C277.384 227.781 276.857 227.006 276.185 226.368C275.513 225.729 274.713 225.241 273.838 224.937C272.962 224.632 272.032 224.519 271.109 224.603Z" fill="#E6F6FF"/>
<path d="M167.513 306.109L170.281 234.491C170.342 233.178 170.904 231.938 171.85 231.026C172.797 230.114 174.057 229.599 175.371 229.587H177C184.043 229.5 191.04 228.452 197.799 226.472C204.229 224.524 210.257 221.44 215.599 217.367C216.479 216.65 217.579 216.259 218.714 216.259C219.849 216.259 220.95 216.65 221.829 217.367C226.9 221.466 232.705 224.559 238.935 226.481C245.613 228.47 252.536 229.519 259.503 229.596H261.007C261.655 229.59 262.298 229.717 262.896 229.969C263.493 230.22 264.033 230.591 264.482 231.058C264.931 231.526 265.28 232.08 265.507 232.687C265.735 233.294 265.836 233.941 265.804 234.589L263.036 306.118C262.999 306.924 262.773 307.71 262.376 308.412C261.978 309.114 261.421 309.712 260.749 310.159L216.783 339.529C215.967 340.085 215.003 340.383 214.015 340.383C213.028 340.383 212.063 340.085 211.247 339.529L169.542 310.159C168.89 309.709 168.362 309.103 168.007 308.395C167.652 307.687 167.482 306.901 167.513 306.109Z" fill="url(#paint2_linear_353_2779)"/>
<path opacity="0.2" d="M179.732 302.327L182.082 241.442C188.374 240.944 194.6 239.814 200.665 238.069C206.853 236.208 212.751 233.494 218.189 230.005C223.399 233.51 229.097 236.227 235.099 238.069C241.075 239.822 247.216 240.952 253.424 241.442L251.066 302.327L214.451 326.748L179.732 302.327Z" fill="#E6F6FF"/>
<path opacity="0.2" d="M192.041 295.963L193.741 251.988C196.998 251.374 200.282 250.6 203.531 249.666C208.399 248.231 213.117 246.33 217.619 243.987C221.972 246.338 226.553 248.24 231.29 249.666C234.506 250.597 237.719 251.371 240.929 251.988L239.229 295.963L215.021 312.17L192.041 295.963Z" fill="#E6F6FF"/>
<path d="M111.265 227.299C109.601 230.753 107.919 234.295 106.299 237.784C105.492 239.564 104.715 241.308 103.967 243.017C103.269 244.651 102.657 246.321 102.134 248.019C101.767 249.642 101.6 251.303 101.635 252.967C101.635 254.836 101.635 256.776 101.635 258.708L101.929 270.438L97.8171 271.043C96.7876 267.168 95.9529 263.244 95.3162 259.286C95.0136 257.292 94.711 255.29 94.5508 253.216C94.4618 252.184 94.3906 251.134 94.3728 250.03C94.3728 249.469 94.3728 248.909 94.3728 248.25C94.3728 247.947 94.4173 247.627 94.4707 247.271C94.5241 246.915 94.5775 246.666 94.6309 246.381C95.0721 244.264 95.667 242.182 96.4109 240.151C97.0962 238.211 97.8438 236.315 98.6181 234.455C100.176 230.726 101.849 227.13 103.718 223.526L111.265 227.299Z" fill="#FFBE9D"/>
<path d="M104.91 272.058L101.493 268.124L97.63 268.32C95.85 272.547 99.7215 275.244 99.7215 275.244L100.407 277.558C100.478 277.788 100.598 278.001 100.76 278.18C100.922 278.359 101.121 278.5 101.343 278.593C101.566 278.687 101.806 278.73 102.047 278.72C102.288 278.71 102.524 278.648 102.739 278.537L104.91 277.46C105.212 277.312 105.467 277.081 105.643 276.794C105.819 276.508 105.911 276.177 105.907 275.84V274.514C105.87 273.604 105.518 272.736 104.91 272.058Z" fill="#FFBE9D"/>
<path d="M94.0346 447.868C93.3787 447.575 92.7602 447.204 92.1923 446.764C92.1623 446.743 92.1395 446.712 92.1269 446.677C92.1142 446.643 92.1122 446.605 92.1211 446.569C92.1306 446.531 92.1507 446.496 92.1791 446.47C92.2075 446.443 92.2429 446.425 92.2813 446.417C92.6106 446.355 95.5209 445.821 96.2151 446.586C96.2913 446.674 96.343 446.78 96.3649 446.895C96.3867 447.009 96.3781 447.127 96.3397 447.236C96.3019 447.425 96.2167 447.6 96.0921 447.747C95.9676 447.893 95.8077 448.005 95.6277 448.073C95.0894 448.201 94.5229 448.128 94.0346 447.868ZM92.8064 446.72C93.9812 447.53 94.978 447.904 95.4764 447.708C95.5943 447.659 95.6979 447.582 95.7774 447.482C95.8568 447.382 95.9095 447.264 95.9303 447.138C95.9594 447.096 95.975 447.047 95.975 446.996C95.975 446.945 95.9594 446.895 95.9303 446.853C95.5565 446.444 93.9723 446.56 92.8064 446.72Z" fill="#3FB6F9"/>
<path d="M92.2276 446.791L92.1475 446.729C92.1319 446.699 92.1238 446.665 92.1238 446.631C92.1238 446.597 92.1319 446.563 92.1475 446.533C92.1475 446.444 93.1621 444.255 94.2924 443.863C94.4362 443.803 94.5923 443.779 94.7473 443.793C94.9023 443.807 95.0517 443.859 95.1824 443.943C95.3216 444.005 95.435 444.114 95.5031 444.25C95.5713 444.386 95.5901 444.542 95.5562 444.691C95.3426 445.625 93.2689 446.693 92.3789 446.8C92.3545 446.809 92.3284 446.813 92.3023 446.812C92.2763 446.81 92.2508 446.803 92.2276 446.791ZM94.8976 444.237C94.7488 444.179 94.5837 444.179 94.4348 444.237C93.7584 444.468 93.0553 445.625 92.6548 446.337C93.616 446.061 95.0044 445.18 95.129 444.62C95.129 444.522 95.129 444.406 94.9332 444.281L94.8976 444.237Z" fill="#3FB6F9"/>
<path d="M124.757 195.242C125.496 200.119 127.16 210.754 123.609 213.932C123.609 213.932 124.713 218.889 133.746 219.067C143.687 219.263 138.721 214.225 138.721 214.225C133.381 212.828 133.675 208.814 134.796 205.058L124.757 195.242Z" fill="#FFBE9D"/>
<path d="M145.102 187.16L144.942 187.08C144.872 187.007 144.833 186.91 144.833 186.809C144.833 186.708 144.872 186.61 144.942 186.537C145.327 186.049 145.822 185.658 146.386 185.396C146.951 185.135 147.569 185.011 148.191 185.033C148.241 185.039 148.29 185.054 148.334 185.079C148.379 185.103 148.418 185.137 148.449 185.176C148.481 185.216 148.504 185.262 148.518 185.31C148.531 185.359 148.535 185.41 148.529 185.461C148.516 185.564 148.463 185.658 148.381 185.722C148.3 185.787 148.196 185.818 148.093 185.808C147.602 185.799 147.115 185.905 146.672 186.116C146.229 186.328 145.841 186.64 145.539 187.027C145.487 187.089 145.418 187.135 145.34 187.158C145.263 187.182 145.18 187.183 145.102 187.16Z" fill="#263238"/>
<path d="M146.954 191.958C147.336 193.517 147.935 195.015 148.734 196.408C148.376 196.616 147.977 196.743 147.565 196.78C147.153 196.817 146.738 196.763 146.349 196.621L146.954 191.958Z" fill="#FF5652"/>
<path d="M146.5 190.765C146.42 191.424 146.704 191.993 147.132 192.038C147.559 192.082 147.968 191.575 148.022 190.916C148.075 190.258 147.817 189.688 147.39 189.644C146.963 189.599 146.58 190.106 146.5 190.765Z" fill="#263238"/>
<path d="M147.23 189.661L148.859 189.359C148.859 189.359 147.897 190.516 147.23 189.661Z" fill="#263238"/>
<path d="M154.43 451.126L163.099 448.384L162.253 430.727L153.576 433.459L154.43 451.126Z" fill="#FFBE9D"/>
<path d="M83.2745 444.816L91.0798 447.023L97.6213 428.947L89.8071 426.74L83.2745 444.816Z" fill="#FFBE9D"/>
<path d="M92.0763 445.465L83.7103 441.905C83.5645 441.844 83.4015 441.837 83.2512 441.886C83.1009 441.935 82.9732 442.037 82.8915 442.172L78.9666 448.536C78.8715 448.694 78.8113 448.871 78.7901 449.055C78.7689 449.239 78.7871 449.425 78.8435 449.601C78.9 449.777 78.9933 449.939 79.1174 450.076C79.2414 450.213 79.3933 450.322 79.5629 450.396C82.5088 451.57 84.0129 451.989 87.6619 453.546C89.9225 454.499 91.6936 457.4 96.6687 457.4C100.033 457.4 100.674 454.356 99.3387 453.911C93.1087 451.918 94.3814 448.954 93.1087 446.435C92.891 445.999 92.5249 445.655 92.0763 445.465Z" fill="#263238"/>
<path d="M166.195 449.604C165.46 449.584 164.729 449.485 164.015 449.31C163.978 449.3 163.944 449.279 163.917 449.251C163.89 449.223 163.872 449.188 163.864 449.15C163.857 449.113 163.861 449.075 163.875 449.04C163.889 449.006 163.913 448.976 163.944 448.954C164.22 448.776 166.614 447.174 167.619 447.601C167.728 447.649 167.823 447.724 167.895 447.819C167.967 447.914 168.013 448.026 168.029 448.144C168.073 448.327 168.07 448.518 168.018 448.699C167.967 448.88 167.869 449.045 167.735 449.177C167.291 449.501 166.743 449.653 166.195 449.604ZM164.558 449.034C165.991 449.319 167.068 449.266 167.468 448.892C167.556 448.802 167.618 448.69 167.649 448.569C167.681 448.447 167.68 448.319 167.646 448.198C167.641 448.145 167.623 448.095 167.594 448.051C167.564 448.008 167.524 447.972 167.477 447.949C166.961 447.717 165.555 448.42 164.54 449.034H164.558Z" fill="#3FB6F9"/>
<path d="M164.059 449.31H163.962C163.932 449.295 163.907 449.272 163.89 449.244C163.872 449.216 163.863 449.183 163.864 449.15C163.864 449.043 163.792 446.685 164.656 445.901C164.763 445.798 164.893 445.721 165.035 445.676C165.177 445.631 165.327 445.62 165.475 445.643C165.629 445.648 165.777 445.703 165.897 445.799C166.018 445.895 166.104 446.028 166.142 446.177C166.356 447.067 164.923 448.847 164.157 449.319C164.124 449.325 164.091 449.322 164.059 449.31ZM165.35 445.99C165.192 445.993 165.04 446.053 164.923 446.159C164.406 446.631 164.273 447.939 164.246 448.74C165.012 448.117 165.893 446.791 165.759 446.231C165.759 446.142 165.688 446.026 165.439 445.999L165.35 445.99Z" fill="#3FB6F9"/>
<path d="M163.339 448.171H154.136C153.978 448.165 153.824 448.22 153.705 448.325C153.586 448.429 153.511 448.574 153.495 448.731L152.685 456.012C152.673 456.198 152.699 456.385 152.762 456.561C152.825 456.738 152.923 456.899 153.051 457.036C153.178 457.172 153.333 457.282 153.504 457.356C153.675 457.431 153.86 457.47 154.047 457.471C157.26 457.418 158.8 457.231 162.849 457.231C165.341 457.231 168.981 457.489 172.425 457.489C175.87 457.489 175.932 454.089 174.49 453.778C168.029 452.398 166.952 450.494 164.7 448.678C164.317 448.36 163.837 448.181 163.339 448.171Z" fill="#263238"/>
<path opacity="0.2" d="M162.244 430.727L162.707 440.188L154.012 442.573L153.576 433.468L162.244 430.727Z" fill="black"/>
<path opacity="0.2" d="M89.8067 426.749L97.612 428.956L94.2478 438.265L86.4336 436.058L89.8067 426.749Z" fill="black"/>
<path d="M107.58 214.964C104.163 215.765 100.407 228.074 100.407 228.074L109.939 238.158C109.939 238.158 118.038 226.525 116.445 222.324C114.762 217.946 111.576 214.021 107.58 214.964Z" fill="#3FB6F9"/>
<path opacity="0.2" d="M107.58 214.964C104.163 215.765 100.407 228.074 100.407 228.074L109.939 238.158C109.939 238.158 118.038 226.525 116.445 222.324C114.762 217.946 111.576 214.021 107.58 214.964Z" fill="#6CBCE9"/>
<path opacity="0.4" d="M112.858 222.68C114.638 221.078 115.759 221.523 116.543 222.769C117.29 226.392 112.226 234.597 110.313 237.517C109.503 234.09 108.933 226.32 112.858 222.68Z" fill="black"/>
<path d="M151.19 217.83C151.662 221.39 151.368 232.328 144.462 265.418L111.185 264.768C112.351 251.249 112.742 242.901 107.527 215C112.23 214.135 116.989 213.608 121.767 213.424C126.811 213.163 131.867 213.261 136.897 213.718C141.712 214.252 146.99 215.302 149.357 215.81C149.834 215.915 150.267 216.166 150.595 216.528C150.924 216.89 151.132 217.345 151.19 217.83Z" fill="#3FB6F9"/>
<path opacity="0.2" d="M151.19 217.83C151.662 221.39 151.368 232.328 144.462 265.418L111.185 264.768C112.351 251.249 112.742 242.901 107.527 215C112.23 214.135 116.989 213.608 121.767 213.424C126.811 213.163 131.867 213.261 136.897 213.718C141.712 214.252 146.99 215.302 149.357 215.81C149.834 215.915 150.267 216.166 150.595 216.528C150.924 216.89 151.132 217.345 151.19 217.83Z" fill="#6CBCE9"/>
<path d="M124.748 186.413C124.268 194.556 123.858 197.983 127.463 202.54C132.803 209.375 142.877 207.88 145.77 200.021C148.369 192.901 148.716 180.779 141.222 176.81C133.728 172.84 125.22 178.269 124.748 186.413Z" fill="#FFBE9D"/>
<path d="M135.695 265.214C135.695 265.214 130.863 324.63 124.49 356.163C119.346 381.661 96.0101 436.761 96.0101 436.761L85.8552 432.471C85.8552 432.471 97.6121 370.064 105.56 354.89C114.46 302.549 100.051 284.705 111.202 264.769L135.695 265.214Z" fill="#034175"/>
<path opacity="0.4" d="M126.644 297.707C123.004 313.184 125.362 327.237 127.828 336.511C129.287 326.57 130.605 315.863 131.726 305.833C130.186 302.949 128.255 300.226 126.644 297.707Z" fill="black"/>
<path d="M144.48 265.383C144.48 265.383 157.118 323.402 158.72 348.206C160.411 374.016 163.801 435.159 163.801 435.159L152.659 438.15C152.659 438.15 140.127 375.129 141.089 356.163C134.859 329.249 113.134 264.804 113.134 264.804L144.48 265.383Z" fill="#034175"/>
<path d="M165.484 437.989L151.012 440.428L149.624 435.266L165.119 432.631L165.484 437.989Z" fill="#3FB6F9"/>
<path d="M97.8346 437.268L84.2799 433.432L85.0364 428.404L99.5256 431.973L97.8346 437.268Z" fill="#3FB6F9"/>
<path d="M110.793 262.775L109.156 265.721C109.031 265.943 109.298 266.183 109.681 266.192L144.578 266.878C144.88 266.878 145.138 266.744 145.165 266.557L145.601 263.585C145.601 263.38 145.379 263.202 145.049 263.193L111.345 262.534C111.24 262.522 111.134 262.538 111.037 262.58C110.94 262.622 110.856 262.689 110.793 262.775Z" fill="#E6F6FF"/>
<path d="M115.145 266.628H114.255C114.077 266.628 113.944 266.522 113.961 266.415L114.558 262.552C114.558 262.445 114.736 262.356 114.914 262.356H115.804C115.982 262.356 116.115 262.454 116.097 262.57L115.501 266.424C115.492 266.539 115.332 266.628 115.145 266.628Z" fill="#263238"/>
<path d="M137.03 267.056H136.14C135.962 267.056 135.829 266.958 135.847 266.842L136.443 262.989C136.443 262.873 136.621 262.784 136.808 262.784H137.698C137.876 262.784 138.009 262.882 137.991 262.998L137.395 266.851C137.368 266.967 137.208 267.056 137.03 267.056Z" fill="#263238"/>
<path d="M153.032 222.022C154.661 225.484 156.477 229.079 158.372 232.488C160.172 235.867 162.221 239.107 164.504 242.18C164.789 242.545 165.074 242.919 165.305 243.186C165.537 243.453 165.83 243.773 166.133 244.076C166.756 244.683 167.416 245.251 168.109 245.776C169.602 246.903 171.169 247.929 172.799 248.846C176.212 250.772 179.733 252.498 183.346 254.017L182.26 258.022C178.069 257.316 173.966 256.162 170.022 254.578C167.97 253.765 165.988 252.786 164.095 251.65C163.1 251.046 162.145 250.377 161.238 249.647C160.766 249.274 160.348 248.855 159.859 248.419C159.369 247.983 158.969 247.529 158.648 247.138C157.883 246.31 157.206 245.464 156.512 244.619C155.818 243.773 155.195 242.892 154.59 242.011C153.344 240.231 152.222 238.451 151.137 236.671C148.972 233.055 147.043 229.303 145.36 225.439L153.032 222.022Z" fill="#FFBE9D"/>
<path d="M148.858 215.65C156.655 217.349 158.542 229.605 158.542 229.605L150.861 238.558C150.861 238.558 138.659 226.988 139.291 220.696C139.709 216.05 144.604 214.724 148.858 215.65Z" fill="#3FB6F9"/>
<path opacity="0.2" d="M148.858 215.65C156.655 217.349 158.542 229.605 158.542 229.605L150.861 238.558C150.861 238.558 138.659 226.988 139.291 220.696C139.709 216.05 144.604 214.724 148.858 215.65Z" fill="#6CBCE9"/>
<path d="M192.361 257.168L190.199 254.613C190.199 254.613 183.221 252.985 180.133 254.498L179.181 257.372L186.977 261.413L188.606 262.178C188.993 262.36 189.433 262.396 189.845 262.28C190.257 262.164 190.613 261.904 190.848 261.547L192.415 259.339C192.647 259.022 192.767 258.637 192.758 258.244C192.748 257.852 192.609 257.473 192.361 257.168Z" fill="#FFBE9D"/>
<path d="M147.505 231.402C148.867 227.771 149.624 223.392 149.285 221.301C148.823 225.021 145.992 230.112 143.153 233.894C138.052 235.933 132.556 236.79 127.076 236.401C121.597 236.013 116.276 234.389 111.514 231.652C109.173 226.917 107.233 219.521 108.461 215.106C106.957 217.349 105.845 223.481 106.557 227.807C104.162 225.359 102.765 222.609 102.756 219.904C102.756 206.901 118.429 207.693 118.643 198.205C118.856 188.718 114.994 169.325 134.342 173.463C147.016 172.867 144.364 184.045 142.299 190.845C140.421 197.12 159.592 221.203 147.505 231.402Z" fill="#263238"/>
<path d="M134.378 173.463C142.299 169.236 150.398 175.893 146.251 182.862C142.593 182.702 139.629 185.024 142.495 189.67C133.995 184.312 128.789 173.935 134.378 173.463Z" fill="#263238"/>
<path d="M142.709 188.46C143.57 189.945 143.932 191.667 143.741 193.373C143.492 195.562 141.783 195.562 140.582 194.263C139.38 192.963 138.383 190.267 139.077 188.593C139.216 188.232 139.458 187.92 139.773 187.695C140.088 187.47 140.462 187.342 140.849 187.328C141.236 187.314 141.618 187.414 141.949 187.615C142.279 187.816 142.544 188.11 142.709 188.46Z" fill="#FFBE9D"/>
<path d="M222 523C319.754 523 399 507.778 399 489C399 470.222 319.754 455 222 455C124.246 455 45 470.222 45 489C45 507.778 124.246 523 222 523Z" fill="#37B7FE" fill-opacity="0.12"/>
</g>
<defs>
<linearGradient id="paint0_linear_353_2779" x1="250.266" y1="303.92" x2="364.486" y2="303.92" gradientUnits="userSpaceOnUse">
<stop stop-color="#034175"/>
<stop offset="1" stop-color="#37B7FE"/>
</linearGradient>
<linearGradient id="paint1_linear_353_2779" x1="162.6" y1="277.807" x2="278.207" y2="277.807" gradientUnits="userSpaceOnUse">
<stop stop-color="#034175"/>
<stop offset="1" stop-color="#37B7FE"/>
</linearGradient>
<linearGradient id="paint2_linear_353_2779" x1="167.509" y1="278.321" x2="265.81" y2="278.321" gradientUnits="userSpaceOnUse">
<stop stop-color="#034175"/>
<stop offset="1" stop-color="#37B7FE"/>
</linearGradient>
<clipPath id="clip0_353_2779">
<rect x="-141" y="-203" width="724.32" height="724.32" rx="362.16" fill="white"/>
</clipPath>
</defs>
</svg>
